<svg width="60" height="60" viewBox="0 0 60 60" fill="none" xmlns="http://www.w3.org/2000/svg">
<g clip-path="url(#clip0)">
<path d="M3.00137 0.515137C2.31465 -0.17041 1.20137 -0.17041 0.514648 0.515137C-0.170898 1.20186 -0.170898 2.31514 0.514648 3.00186L9.90359 12.3909C10.4485 11.3069 11.079 10.2733 11.7856 9.29951L3.00137 0.515137Z" fill="url(#paint0_linear)"/>
<path d="M59.4853 56.9987L43.1835 40.6968C42.2097 41.4046 41.1761 42.0351 40.0933 42.58L56.9986 59.4853C57.6822 60.169 58.7971 60.1736 59.4853 59.4853C60.1709 58.7986 60.1709 57.6854 59.4853 56.9987Z" fill="url(#paint1_linear)"/>
<path d="M23.8031 8.38378C23.8043 8.38378 23.8054 8.38261 23.8054 8.38261C34.9524 3.48276 47.369 12.9154 45.1475 25.2094C44.3893 29.3985 41.9239 33.25 38.0881 35.6015L43.1835 40.6968C48.8178 36.6117 52.4823 29.9766 52.4823 22.4848C52.4823 10.0771 42.5237 0.0647555 30.1172 0.000302368C22.5762 -0.0383695 15.8931 3.63546 11.7856 9.29901L16.9161 14.4295C18.4935 11.7321 20.9876 9.61647 23.8031 8.38378Z" fill="url(#paint2_linear)"/>
<path d="M19.5166 17.0303L22.9713 20.485C22.9924 20.4627 23.0146 20.4404 23.0369 20.4193C25.514 18.0498 25.6502 15.0238 24.074 12.1787C22.149 13.2844 20.5031 14.9327 19.5166 17.0303Z" fill="url(#paint3_linear)"/>
<path d="M41.6883 24.5838C43.2207 16.1095 35.6446 9.03032 27.3798 10.8929C28.9431 14.0054 29.6825 18.9273 25.4673 22.9596C25.4638 22.9631 25.4591 22.9666 25.4556 22.969L35.5091 33.0225C38.7868 31.3115 41.0215 28.2693 41.6883 24.5838Z" fill="url(#paint4_linear)"/>
<path d="M24.6444 45.7978C24.2975 46.2279 23.7889 46.4517 23.2757 46.4517C21.8121 46.4517 20.9782 44.7437 21.9093 43.5888C24.2401 40.7036 26.6987 37.1819 32.122 34.6089L18.5203 21.0069C18.3921 23.4321 18.9275 24.6017 20.434 29.4854C20.7199 30.4136 20.1996 31.3968 19.2715 31.6827C18.3434 31.9698 17.3602 31.4495 17.0742 30.5214L15.6352 25.8562C14.8254 23.2276 14.7902 20.489 15.4594 17.946L9.90352 12.3901C8.43398 15.3104 7.58203 18.594 7.51992 22.071H7.51758V48.7275C7.51758 54.922 12.5168 59.9809 18.7124 59.9997C22.9569 60.0126 26.4409 58.3016 28.3675 54.1122C30.6233 49.2079 34.4589 45.1814 39.3654 42.9303C39.6103 42.8178 39.8529 42.7006 40.0931 42.5799L34.7693 37.256C29.2016 39.8311 27.9457 41.7113 24.6444 45.7978Z" fill="url(#paint5_linear)"/>
</g>
<defs>
<linearGradient id="paint0_linear" x1="5.89306" y1="0.000976562" x2="5.89306" y2="12.3909" gradientUnits="userSpaceOnUse">
<stop stop-color="#6575CE"/>
<stop offset="1" stop-color="#55B489"/>
</linearGradient>
<linearGradient id="paint1_linear" x1="50.0464" y1="40.6968" x2="50.0464" y2="59.9998" gradientUnits="userSpaceOnUse">
<stop stop-color="#6575CE"/>
<stop offset="1" stop-color="#55B489"/>
</linearGradient>
<linearGradient id="paint2_linear" x1="32.134" y1="0" x2="32.134" y2="40.6968" gradientUnits="userSpaceOnUse">
<stop stop-color="#6575CE"/>
<stop offset="1" stop-color="#55B489"/>
</linearGradient>
<linearGradient id="paint3_linear" x1="22.3121" y1="12.1787" x2="22.3121" y2="20.485" gradientUnits="userSpaceOnUse">
<stop stop-color="#6575CE"/>
<stop offset="1" stop-color="#55B489"/>
</linearGradient>
<linearGradient id="paint4_linear" x1="33.6713" y1="10.5928" x2="33.6713" y2="33.0225" gradientUnits="userSpaceOnUse">
<stop stop-color="#6575CE"/>
<stop offset="1" stop-color="#55B489"/>
</linearGradient>
<linearGradient id="paint5_linear" x1="23.8053" y1="12.3901" x2="23.8053" y2="59.9997" gradientUnits="userSpaceOnUse">
<stop stop-color="#6575CE"/>
<stop offset="1" stop-color="#55B489"/>
</linearGradient>
<clipPath id="clip0">
<rect width="60" height="60" fill="white"/>
</clipPath>
</defs>
</svg>
