<svg width="1920" height="338" viewBox="0 0 1920 338" fill="none" xmlns="http://www.w3.org/2000/svg">
<g opacity="0.4">
<g opacity="0.1">
<path opacity="0.1" d="M1930.73 219.766H-10.7939V221.175H1930.73V219.766Z" fill="url(#paint0_linear)"/>
</g>
<g opacity="0.1562">
<path opacity="0.1562" d="M1039.49 228.381C1015.68 228.381 989.841 228.005 988.783 227.308C987.211 226.565 958.771 225.466 933.678 224.497C897.027 223.082 874.681 222.152 873.41 221.189C870.597 219.958 792.394 219.724 791.77 219.793C791.444 219.83 787.8 219.865 780.845 219.934C770.586 220.035 753.418 220.206 752.473 220.416C751.033 220.966 705.733 221.31 705.425 221.291C704.914 221.219 698.238 221.007 689.785 220.737C638.883 219.116 621.401 218.235 620.506 217.247C619.024 216.452 593.854 215.42 573.629 214.588C545.961 213.451 533.741 212.879 532.849 212.166C530.351 211.164 472.328 210.787 471.93 210.845C471.556 210.934 468.267 211.041 459.653 211.305C446.89 211.695 425.529 212.348 424.139 212.986H424.137C422.616 213.961 411.297 214.674 378.044 216.339C357.256 217.38 333.697 218.557 332.157 219.496C330.11 222.149 236.617 222.785 235.804 222.584C235.16 222.471 224.644 222.278 213.51 222.074C193.544 221.708 180.398 221.449 179.643 221.176C177.673 220.62 100.82 220.588 98.2361 221.143C97.4971 221.319 81.5804 221.415 62.427 221.512C55.8876 221.546 50.7193 221.57 50.3503 221.592C49.8074 221.617 -10.0695 221.584 -11 221.124L-10.5864 219.814C-9.40768 220.017 46.4425 220.381 50.302 220.183C50.6933 220.161 55.6125 220.137 62.4233 220.103C75.3775 220.037 97.0574 219.927 98.0362 219.756C100.791 219.096 178.126 219.159 179.956 219.822C180.952 220.07 199.014 220.4 213.528 220.664C227.072 220.914 235.404 221.071 235.989 221.195C236.667 221.335 327.738 220.675 331.509 218.357C332.25 217.38 343.212 216.67 378.001 214.928C398.634 213.895 422.021 212.726 423.552 211.8C424.001 211.214 429.542 210.814 459.628 209.893C465.891 209.7 471.299 209.535 471.739 209.455C472.201 209.35 531.828 209.672 533.458 210.974C534.746 211.58 555.424 212.427 573.667 213.176C608.622 214.613 620.4 215.249 621.251 216.187C623.283 217.206 668.219 218.637 689.817 219.325C699.789 219.644 705.018 219.813 705.548 219.884C707.714 220.174 750.896 219.37 752.207 219.045C752.746 218.838 761.872 218.709 780.838 218.522C786.479 218.467 791.349 218.419 791.675 218.387C792.39 218.304 871.953 218.428 873.997 219.981C875.692 220.845 906.518 222.038 933.716 223.086C970.602 224.509 988.11 225.269 989.308 226.056C992.009 227.243 1075.87 227.396 1079.01 226.208C1079.32 226.032 1081.4 225.932 1092.04 225.588C1099.09 225.359 1108.75 225.046 1109.54 224.768C1109.78 224.52 1111.22 224.391 1124.61 223.854C1131.74 223.568 1140.58 223.213 1141.55 222.891C1146.13 219.467 1229.3 215.005 1329.28 209.956C1365.02 208.153 1393.25 206.727 1395.34 206.232C1396.34 205.997 1514.58 206.493 1517.26 209.766C1519 210.859 1550.62 212.318 1576.02 213.493C1611.08 215.112 1626.56 215.921 1627.64 216.879C1628.73 217.46 1643.4 218.632 1728.93 219.629C1731.02 219.654 1732.3 219.667 1732.57 219.672C1733.16 219.606 1795.43 219.466 1797.23 219.122C1798.78 218.766 1855.7 218.161 1856.07 218.18C1856.29 218.186 1857.53 218.194 1859.55 218.21C1929.42 218.775 1930.57 219.553 1931 219.848L1930.51 221.111C1929.66 220.762 1919.3 220.101 1859.55 219.619C1857.52 219.603 1856.27 219.594 1856.06 219.59C1856.05 219.59 1856.05 219.59 1856.03 219.59C1854.68 219.59 1799.1 220.195 1797.42 220.509C1795.76 220.891 1733.12 221.106 1732.55 221.081C1732.28 221.075 1731.01 221.061 1728.92 221.037C1629.07 219.875 1627.5 218.485 1626.99 218.028C1625.45 217.182 1599.17 215.969 1575.98 214.898C1532.93 212.91 1517.46 211.988 1516.47 210.772C1512.27 207.994 1396.41 207.408 1395.55 207.618C1393.37 208.129 1366.51 209.486 1329.32 211.364C1260.73 214.827 1145.94 220.621 1142.21 224.024C1141.88 224.437 1140.99 224.604 1124.65 225.26C1118.09 225.524 1110.66 225.822 1109.97 226.066C1109.7 226.339 1107.54 226.496 1092.06 226.996C1086.1 227.189 1079.94 227.387 1079.38 227.536C1078.36 228.112 1059.65 228.381 1039.49 228.381Z" fill="url(#paint1_linear)"/>
</g>
<g opacity="0.2125">
<path opacity="0.2125" d="M1040.37 235.662C1017.15 235.662 992.429 234.916 990.314 233.521C987.996 231.994 961.303 229.88 935.488 227.834C900.716 225.079 877.743 223.138 875.326 221.305C872.157 218.904 797.485 217.924 793.063 218.412C792.421 218.481 788.142 218.566 782.22 218.684C771.891 218.891 754.605 219.235 753.451 219.661C751.137 220.545 708.276 221.709 705.987 221.403C705.07 221.279 699.936 220.952 692.828 220.497C651.206 217.835 623.089 215.625 621.153 213.494C619.559 211.779 594.554 209.671 574.462 207.975C550.484 205.952 535.804 204.625 534.099 203.263C531.484 201.381 475.958 199.784 472.821 200.521C472.111 200.686 468.126 200.94 461.143 201.374C449.114 202.12 426.726 203.508 425.185 204.806C423.589 206.821 406.955 208.682 379.756 211.501C360.341 213.513 336.18 216.015 334.689 217.87C332.733 220.384 307.556 222.065 286.779 223.035C264.745 224.062 240.589 224.541 238.005 224.007C236.912 223.778 226.685 223.396 215.857 222.994C196.615 222.278 182.883 221.731 181.434 221.207C177.434 219.764 102.258 220.412 99.2725 221.124C97.8298 221.471 81.322 221.666 63.0656 221.851C56.7038 221.917 51.6814 221.966 50.9443 222.011C50.3958 222.042 -9.23386 221.996 -11 221.125L-10.5864 219.815C-8.71981 220.385 45.4729 220.891 50.8932 220.601C51.6498 220.558 56.4323 220.51 63.0535 220.441C75.9752 220.312 97.5975 220.092 99.0596 219.742C102.347 218.949 177.305 218.247 181.744 219.852C183.169 220.366 201.311 221.041 215.888 221.583C227.226 222.007 237.019 222.37 238.188 222.612C243.268 223.686 330.701 220.947 333.883 216.885C335.499 214.809 352.255 212.934 379.661 210.096C398.935 208.098 422.924 205.612 424.409 203.784C425.499 202.41 437.616 201.42 461.086 199.963C466.911 199.602 471.942 199.289 472.613 199.132C474.26 198.749 490.034 199.035 503.732 199.539C517.032 200.032 533.203 200.871 534.704 202.072C536.287 203.341 556.606 205.053 574.535 206.567C602.858 208.957 620.179 210.545 621.895 212.436C624.227 214.696 672.338 217.773 692.884 219.089C700.275 219.56 705.157 219.873 706.109 220C708.189 220.307 751.032 219.108 753.119 218.31C754.288 217.863 766.981 217.575 782.201 217.271C787.878 217.159 792.363 217.071 792.965 217.004C797.852 216.479 872.277 217.34 875.91 220.095C878.269 221.887 908.706 224.296 935.558 226.423C968.378 229.025 988.477 230.715 990.836 232.267C994.355 234.591 1077.12 234.904 1081.2 232.612C1081.82 232.265 1085.44 231.995 1094.16 231.42C1101.16 230.958 1110.75 230.324 1111.67 229.771C1112.27 229.217 1115.77 228.846 1126.69 227.946C1133.39 227.395 1142.57 226.638 1143.47 226.003C1148.91 219.071 1241.87 208.914 1336.61 199.112C1366.4 196.03 1389.93 193.595 1393.77 192.69C1400.12 191.198 1511.64 194.061 1516.15 199.567C1518.05 201.882 1549.31 204.86 1574.43 207.256C1604.69 210.137 1623.22 212.021 1625.29 213.864C1628.31 216.548 1683.84 218.618 1730.47 219.574L1730.82 219.582C1734.5 219.682 1793.18 219.147 1796.11 218.469C1798.95 217.82 1852.49 216.617 1855.5 216.601L1857.6 216.634C1904.2 217.339 1928.89 218.421 1931 219.849L1930.46 221.088C1929.58 220.491 1920.72 218.999 1857.59 218.043L1855.48 218.01C1855.39 218.007 1855.28 218.007 1855.13 218.007C1849.43 218.007 1798.8 219.287 1796.32 219.857C1793.21 220.57 1734.6 221.071 1730.8 220.991L1730.45 220.983C1706.65 220.495 1628.7 218.621 1624.64 215.015C1622.67 213.262 1598.1 210.921 1574.34 208.659C1540.04 205.392 1517.4 203.063 1515.36 200.574C1511.55 195.914 1401.57 192.275 1393.98 194.078C1390.08 194.994 1367.69 197.309 1336.71 200.517C1266.83 207.748 1149.87 219.849 1144.21 227.046C1143.58 227.847 1139.51 228.301 1126.76 229.353C1120.65 229.857 1113.05 230.482 1112.27 230.958C1111.6 231.574 1106.95 231.987 1094.22 232.826C1088.64 233.196 1082.31 233.613 1081.65 233.905C1079.53 235.101 1060.52 235.662 1040.37 235.662Z" fill="url(#paint2_linear)"/>
</g>
<g opacity="0.2688">
<path opacity="0.2688" d="M1041.81 242.962C1019.05 242.962 995.044 241.841 991.844 239.734C988.315 237.407 962.382 234.245 937.3 231.187C908.387 227.66 881.076 224.329 877.241 221.42C872.51 217.83 801.067 216.298 794.356 217.03C793.432 217.129 789.142 217.261 783.708 217.423C773.39 217.734 756.123 218.257 754.391 218.921C750.734 220.316 709.603 221.943 706.548 221.522C705.427 221.371 701.761 221.021 696.688 220.536C661.442 217.167 624.982 213.25 621.799 209.74C619.377 207.072 595.942 204.025 575.267 201.336C555.27 198.734 538.001 196.489 535.344 194.364C532.093 191.759 478.708 189.026 473.704 190.201C472.676 190.441 468.54 190.829 462.817 191.368C451.434 192.439 427.749 194.666 426.151 196.681C423.802 199.643 406.942 202.553 381.493 206.657C361.755 209.839 339.385 213.446 337.139 216.327C334.1 220.23 305.922 222.788 289.396 223.966C267.488 225.529 244.04 226.223 240.204 225.427C238.57 225.086 228.728 224.527 218.304 223.935C202.953 223.065 185.552 222.078 183.219 221.235C177.205 219.057 106.002 219.743 100.306 221.106C97.9507 221.673 77.1353 221.992 63.3631 222.204C57.3507 222.295 52.6007 222.37 51.5327 222.43C45.8513 222.725 -8.71517 222.251 -11 221.125L-10.5864 219.814C-8.36751 220.745 44.5341 221.386 51.4825 221.02C52.571 220.959 57.3275 220.885 63.351 220.794C76.2485 220.596 97.8382 220.266 100.096 219.723C105.825 218.349 177.475 217.695 183.533 219.88C185.739 220.676 203.826 221.703 218.359 222.529C229.268 223.145 238.691 223.682 240.391 224.035C248.967 225.837 331.852 221.1 336.336 215.341C338.677 212.333 355.678 209.396 381.349 205.258C400.92 202.104 423.099 198.528 425.351 195.69C427.102 193.483 444.034 191.724 462.734 189.962C468.207 189.448 472.531 189.043 473.498 188.814C477.931 187.765 532.13 190.116 535.952 193.175C538.384 195.121 557.194 197.568 575.384 199.935C602.245 203.428 620.04 205.925 622.542 208.683C625.874 212.356 677.383 217.277 696.774 219.13C701.858 219.617 705.531 219.967 706.672 220.12C710.113 220.6 750.927 218.769 754.06 217.572C755.798 216.909 769.062 216.458 783.679 216.014C789.092 215.851 793.37 215.722 794.258 215.626C800.679 214.932 872.441 216.135 877.824 220.214C881.44 222.959 911.175 226.584 937.409 229.783C963.757 232.996 988.644 236.032 992.366 238.485C997.904 242.134 1077.04 242.586 1083.42 239.01C1084.33 238.501 1088.89 238.017 1096.26 237.273C1102.89 236.602 1112.91 235.589 1113.85 234.749C1114.82 233.86 1120.14 233.147 1128.74 232.054C1135.41 231.209 1144.54 230.048 1145.41 229.096C1154.85 217.091 1275.51 197.996 1347.61 186.584C1370.68 182.931 1387.36 180.294 1392.2 179.152C1396.99 178.031 1426.1 178.587 1454.51 180.357C1475.43 181.659 1511.11 184.563 1515.05 189.372C1517.99 192.965 1547.15 197.264 1572.88 201.06C1598 204.765 1619.7 207.966 1622.95 210.853C1628.99 216.218 1716.14 219.227 1729.08 219.494C1734.3 219.62 1790.65 218.819 1795.01 217.82C1799.03 216.898 1848.28 215.018 1854.57 215.018C1854.71 215.018 1854.83 215.018 1854.93 215.02L1855.17 215.026C1871.78 215.356 1926.33 216.681 1931 219.852L1930.46 221.091C1926.93 218.693 1889.24 217.113 1855.15 216.436L1854.91 216.431C1850.5 216.296 1799.29 218.272 1795.21 219.208C1790.63 220.259 1734.35 221.03 1729.06 220.904C1728.07 220.884 1629.31 218.231 1622.3 212.004C1619.28 209.323 1595.62 205.832 1572.74 202.458C1539.36 197.536 1517.25 194.034 1514.26 190.379C1508.09 182.842 1403.06 178.022 1392.41 180.538C1387.53 181.685 1370.84 184.325 1347.74 187.981C1280.52 198.623 1155.38 218.428 1146.21 230.088C1145.29 231.255 1139.96 232.045 1128.85 233.457C1122.81 234.223 1115.3 235.175 1114.51 235.888C1113.43 236.884 1106.62 237.638 1096.35 238.676C1090.87 239.23 1084.66 239.857 1083.88 240.297C1080.66 242.104 1061.71 242.962 1041.81 242.962Z" fill="url(#paint3_linear)"/>
</g>
<g opacity="0.325">
<path opacity="0.325" d="M1039.34 250.048C1018.52 250.048 997.761 248.837 993.374 245.944C988.646 242.831 963.501 238.63 939.184 234.57C912.171 230.059 884.239 225.396 879.156 221.537C872.493 216.477 803.945 214.746 795.651 215.651C794.477 215.778 790.441 215.944 785.335 216.15C774.336 216.596 757.716 217.27 755.332 218.181C751.033 219.825 711.974 222.336 707.113 221.642C706.222 221.521 704.531 221.311 702.224 221.025C670.213 217.034 627.117 211.137 622.447 205.99C619.146 202.354 596.239 198.266 576.028 194.66C557.536 191.362 540.07 188.246 536.595 185.466C531.792 181.621 480.475 178.499 474.59 179.88C473.34 180.172 469.696 180.635 464.653 181.273C452.317 182.834 429.354 185.74 427.093 188.59C423.784 192.762 404.078 197.158 383.217 201.814C363.268 206.264 342.641 210.867 339.591 214.781C332.633 223.719 251.946 228.831 242.41 226.846C240.266 226.398 231.284 225.709 220.884 224.911C205.537 223.733 188.145 222.398 185.011 221.267C177.517 218.561 109.759 219.067 101.344 221.091C98.1748 221.854 77.4662 222.277 63.7628 222.558C58.034 222.676 53.509 222.77 52.1258 222.85C45.3261 223.205 -8.02167 222.597 -10.999 221.126L-10.5854 219.816C-8.10255 221.038 43.0878 221.93 52.0756 221.44C53.4746 221.36 58.0061 221.267 63.7452 221.148C77.4095 220.87 98.0586 220.445 101.133 219.708C109.59 217.671 177.772 217.183 185.324 219.912C188.336 221.002 206.421 222.389 220.952 223.504C231.385 224.305 240.392 224.996 242.595 225.453C252.843 227.605 332.458 221.923 338.787 213.795C342.088 209.558 361.971 205.121 383.02 200.425C402.791 196.012 423.237 191.451 426.294 187.597C428.645 184.635 446.476 182.155 464.539 179.867C469.368 179.256 473.181 178.775 474.384 178.491C480.583 177.062 532.066 180.161 537.203 184.274C540.47 186.889 558.628 190.129 576.187 193.262C597.549 197.074 619.637 201.015 623.191 204.93C626.468 208.542 653.097 213.483 702.338 219.619C704.648 219.908 706.342 220.117 707.237 220.238C712.049 220.896 750.753 218.457 755.004 216.83C757.532 215.864 773.581 215.214 785.3 214.738C790.391 214.532 794.41 214.369 795.557 214.245C803.264 213.411 872.573 214.884 879.743 220.328C884.625 224.033 912.438 228.68 939.334 233.169C964.873 237.436 988.994 241.466 993.9 244.695C1002.72 250.508 1078.47 249.424 1085.64 245.402C1086.81 244.747 1091.24 244.113 1098.35 243.131C1105.29 242.176 1114.79 240.865 1116.07 239.696C1117.29 238.582 1122.45 237.621 1130.79 236.167C1137.73 234.961 1146.37 233.458 1147.41 232.137C1161.45 214.292 1305.28 183.797 1366.7 170.777C1378.21 168.335 1386.52 166.574 1390.63 165.604C1403.49 162.594 1505.24 168.533 1513.95 179.17C1517.95 184.059 1546.34 189.828 1571.4 194.917C1594.52 199.616 1616.36 204.056 1620.61 207.835C1628.58 214.916 1710.4 219.047 1727.34 219.399C1733.42 219.54 1787.77 218.57 1793.9 217.164C1799.42 215.895 1846.95 213.434 1853.97 213.434C1854.11 213.434 1854.24 213.434 1854.36 213.437C1855.05 213.451 1923.87 215.012 1931 219.847L1930.47 221.086C1924.48 217.026 1868.9 215.132 1854.34 214.846C1854.23 214.843 1854.1 214.843 1853.95 214.843C1846.96 214.843 1799.6 217.29 1794.11 218.551C1787.93 219.968 1733.39 220.959 1727.32 220.808C1715.88 220.572 1628.69 216.737 1619.96 208.986C1615.92 205.394 1593.19 200.775 1571.21 196.31C1544.77 190.933 1517.42 185.377 1513.16 180.176C1504.57 169.691 1403.61 163.968 1390.84 166.991C1386.72 167.96 1378.4 169.725 1366.88 172.167C1305.57 185.165 1161.99 215.604 1148.21 233.127C1146.99 234.677 1140.87 235.836 1130.95 237.562C1124.79 238.633 1117.81 239.847 1116.73 240.835C1115.32 242.129 1108.59 243.139 1098.48 244.532C1092.92 245.297 1087.17 246.09 1086.11 246.69C1082.42 248.757 1060.84 250.048 1039.34 250.048Z" fill="url(#paint4_linear)"/>
</g>
<g opacity="0.3812">
<path opacity="0.3812" d="M1042.39 257.383C1021.51 257.383 1000.4 255.779 994.905 252.159C988.992 248.263 964.657 243.042 941.124 237.991C914.723 232.326 887.422 226.468 881.071 221.648C872.656 215.261 806.013 213.283 796.944 214.268C795.545 214.42 791.768 214.612 786.985 214.857C775.977 215.419 759.337 216.266 756.276 217.436C750.63 219.594 713.655 222.547 707.678 221.76C706.915 221.656 630.904 210.84 623.093 202.235C618.897 197.613 596.494 192.469 576.727 187.93C558.928 183.842 542.117 179.982 537.844 176.564C532.004 171.884 483.06 167.769 475.474 169.558C474.104 169.88 470.9 170.387 466.844 171.031C454.329 173.018 431.031 176.718 428.036 180.491C423.941 185.653 405.003 191.144 384.953 196.958C365.753 202.527 345.901 208.282 342.044 213.235C333.384 224.353 256.188 230.703 244.612 228.261C241.996 227.716 233.463 226.887 223.586 225.924C208.206 224.426 190.772 222.728 186.804 221.293C176.88 217.709 111.926 218.777 102.382 221.067C98.3532 222.037 77.654 222.568 63.9543 222.923C58.5973 223.061 54.3669 223.168 52.7169 223.264C41.844 223.831 -7.48165 222.86 -11 221.125L-10.5864 219.814C-7.42402 221.37 41.1171 222.474 52.6639 221.857C54.326 221.763 58.5638 221.653 63.9292 221.516C77.5898 221.163 98.2333 220.632 102.168 219.688C111.762 217.387 177.117 216.333 187.113 219.941C190.973 221.333 209.103 223.101 223.67 224.521C233.576 225.485 242.13 226.318 244.795 226.874C256.012 229.208 333.048 222.762 341.237 212.249C345.323 207.002 364.448 201.456 384.698 195.585C403.71 190.071 423.37 184.37 427.234 179.501C430.251 175.699 449.189 172.413 466.701 169.633C470.738 168.991 473.928 168.485 475.266 168.171C481.991 166.602 531.776 170.034 538.451 175.375C542.536 178.646 559.242 182.483 576.929 186.543C597.813 191.338 619.408 196.298 623.836 201.179C630.438 208.451 692.733 218.309 707.801 220.36C713.494 221.122 750.584 218.138 755.946 216.087C759.148 214.865 775.211 214.047 786.941 213.448C791.708 213.206 795.475 213.012 796.847 212.864C806.1 211.86 872.811 213.734 881.656 220.442C887.822 225.125 915.018 230.958 941.315 236.6C966.021 241.902 989.359 246.912 995.428 250.909C1005.77 257.727 1078.55 257.014 1087.86 251.798C1089.35 250.961 1094.48 250.058 1100.42 249.012C1107.64 247.74 1116.63 246.157 1118.28 244.647C1119.87 243.196 1125.87 241.855 1132.82 240.3C1139.6 238.783 1148.05 236.895 1149.4 235.181C1170.35 208.548 1361.01 158.673 1389.06 152.067C1403.51 148.656 1501.27 154.849 1512.84 168.973C1517.93 175.18 1545.58 182.444 1569.97 188.855C1592.11 194.674 1613.03 200.169 1618.27 204.823C1628.55 213.959 1709.78 218.983 1725.59 219.31C1732.74 219.459 1785.13 218.272 1792.79 216.513C1799.64 214.939 1846.69 211.738 1853.78 211.856C1854.46 211.87 1921.93 213.698 1931 219.85L1930.46 221.089C1922.57 215.735 1864.81 213.486 1853.76 213.266C1846.72 213.148 1799.81 216.333 1792.99 217.901C1785.04 219.726 1732.83 220.849 1725.57 220.719C1716.04 220.521 1628.9 215.993 1617.62 205.974C1612.57 201.487 1591.77 196.023 1569.74 190.234C1544 183.47 1517.38 176.473 1512.06 169.979C1501.73 157.375 1405.96 149.513 1389.27 153.452C1361.27 160.045 1170.95 209.791 1150.2 236.17C1148.71 238.061 1142.43 239.584 1133.01 241.687C1126.77 243.082 1120.32 244.525 1118.95 245.785C1117.2 247.381 1110.23 248.709 1100.58 250.407C1094.97 251.395 1089.67 252.329 1088.32 253.086C1083.45 255.814 1063.04 257.383 1042.39 257.383Z" fill="url(#paint5_linear)"/>
</g>
<g opacity="0.4375">
<path opacity="0.4375" d="M1044.86 264.529C1024.04 264.529 1002.86 262.602 996.435 258.372C989.357 253.709 966.904 247.763 943.134 241.465C917.317 234.628 890.619 227.558 882.986 221.764C873.005 214.189 811.382 211.453 798.236 212.89C796.657 213.06 793.174 213.275 788.763 213.545C777.706 214.225 760.997 215.249 757.216 216.696C750.808 219.143 715.559 222.857 708.24 221.877C697.534 220.421 632.669 208.323 623.739 198.485C618.628 192.855 596.711 186.632 577.371 181.14C560.285 176.287 544.144 171.704 539.093 167.663C531.924 161.921 485.101 157.181 476.357 159.237C475.01 159.553 472.562 160.018 469.461 160.608C457.565 162.865 432.806 167.569 428.973 172.397C424.097 178.544 405.923 185.131 386.682 192.104C368.232 198.79 349.156 205.702 344.494 211.689C334.174 224.943 261.141 232.67 246.814 229.686C243.786 229.052 235.797 228.105 226.546 227.008C211.805 225.26 193.458 223.083 188.589 221.324C177.326 217.255 115.059 218.26 103.416 221.051C98.4852 222.238 77.7599 222.879 64.0472 223.303C59.0909 223.457 55.1765 223.578 53.3072 223.685C40.8522 224.338 -6.71385 223.234 -11 221.126L-10.5864 219.815C-6.76683 221.695 39.6856 222.991 53.2551 222.276C55.1356 222.169 59.0537 222.047 64.0175 221.894C77.6958 221.47 98.3634 220.832 103.204 219.67C115.248 216.777 177.143 215.725 188.901 219.97C193.668 221.694 211.957 223.862 226.651 225.608C235.924 226.706 243.93 227.656 246.998 228.294C262.196 231.46 334.22 222.866 343.688 210.705C348.557 204.453 366.923 197.798 386.369 190.751C404.625 184.137 423.503 177.294 428.171 171.409C432.271 166.247 456.352 161.673 469.291 159.214C472.381 158.628 474.822 158.165 476.149 157.852C484.416 155.923 531.769 160.133 539.698 166.476C544.582 170.387 560.63 174.943 577.62 179.769C598.04 185.566 619.157 191.561 624.48 197.43C632.663 206.445 694.147 218.545 708.361 220.478C715.607 221.433 750.542 217.778 756.884 215.35C760.801 213.853 777.595 212.823 788.707 212.14C793.107 211.87 796.581 211.656 798.138 211.488C809.302 210.28 872.982 212.526 883.569 220.561C891.039 226.231 917.638 233.275 943.364 240.091C967.215 246.406 989.741 252.374 996.957 257.124C1009.45 265.357 1078.39 264.749 1090.08 258.195C1091.82 257.217 1096.74 256.155 1102.45 254.922C1109.58 253.381 1118.46 251.462 1120.5 249.598C1122.36 247.897 1128.42 246.224 1134.84 244.451C1141.82 242.524 1149.73 240.342 1151.39 238.225C1175.85 207.128 1347.03 148.052 1387.48 138.526C1405.42 134.297 1498.08 142.101 1511.74 158.777C1517.93 166.336 1543.71 174.753 1568.65 182.896C1589.78 189.794 1609.73 196.313 1615.92 201.813C1628.65 213.118 1708.5 218.904 1723.84 219.223C1733.65 219.441 1782.79 217.907 1791.68 215.865C1799.76 214.007 1844.81 210.195 1853.21 210.277C1864 210.492 1920.94 213.024 1931 219.854L1930.46 221.093C1920.6 214.401 1863.94 211.902 1853.19 211.687C1853.02 211.684 1852.83 211.682 1852.63 211.682C1843 211.682 1799.76 215.442 1791.89 217.253C1782.7 219.365 1733.89 220.868 1723.83 220.633C1707.8 220.3 1628.42 214.639 1615.27 202.964C1609.25 197.61 1589.39 191.128 1568.37 184.262C1543.29 176.073 1517.36 167.606 1510.95 159.785C1498.38 144.434 1406.79 135.405 1387.69 139.914C1347.32 149.422 1176.51 208.295 1152.19 239.216C1150.3 241.627 1142.9 243.667 1135.08 245.828C1129.05 247.49 1122.83 249.211 1121.16 250.738C1118.91 252.795 1110.64 254.583 1102.64 256.312C1097.24 257.477 1092.15 258.578 1090.54 259.483C1084.74 262.732 1064.97 264.529 1044.86 264.529Z" fill="url(#paint6_linear)"/>
</g>
<g opacity="0.4938">
<path opacity="0.4938" d="M1046.86 271.887C1026.39 271.887 1005.56 269.586 997.966 264.585C989.755 259.173 968.137 252.297 945.249 245.019C919.979 236.982 893.848 228.671 884.9 221.88C873.232 213.023 813.589 209.994 799.53 211.508C797.828 211.692 794.682 211.918 790.7 212.205C779.555 213.006 762.713 214.214 758.159 215.957C750.111 219.032 716.918 223.078 708.804 221.997C694.713 220.078 634.595 205.977 624.386 194.734C618.335 188.064 597.781 181.045 577.906 174.254C561.569 168.674 546.14 163.402 540.343 158.765C531.835 151.955 487.272 146.556 477.242 148.918C476.189 149.163 474.692 149.491 472.869 149.887C461.472 152.367 434.78 158.173 429.915 164.306C424.262 171.433 406.859 179.106 388.435 187.232C370.729 195.042 352.418 203.117 346.945 210.146C334.623 225.968 265.217 234.485 249.016 231.107C245.674 230.41 238.354 229.381 229.878 228.192C214.892 226.088 196.239 223.471 190.38 221.354C177.144 216.573 118.22 217.728 104.449 221.035C98.5707 222.447 77.8213 223.196 64.0909 223.691C59.6095 223.854 55.9388 223.986 53.8965 224.104C40.0323 224.828 -6.05201 223.561 -11 221.125L-10.5864 219.815C-6.01018 222.072 38.4995 223.514 53.8445 222.693C55.8895 222.578 59.5686 222.443 64.0593 222.28C77.7525 221.787 98.4471 221.039 104.237 219.652C118.075 216.329 177.355 215.179 190.691 219.999C196.459 222.082 215.058 224.692 230.003 226.79C238.495 227.981 245.829 229.011 249.2 229.716C266.884 233.369 334.943 223.533 346.139 209.16C351.794 201.898 370.231 193.766 388.06 185.902C405.554 178.186 423.643 170.209 429.114 163.314C434.233 156.862 460.197 151.214 472.675 148.497C474.491 148.103 475.987 147.779 477.035 147.53C487.452 145.091 532.028 150.437 540.949 157.575C546.601 162.097 561.949 167.342 578.203 172.894C598.2 179.726 618.883 186.792 625.129 193.676C634.981 204.527 695.374 218.75 708.926 220.595C716.94 221.671 749.854 217.655 757.828 214.608C762.514 212.815 779.435 211.601 790.633 210.798C794.608 210.511 797.747 210.289 799.433 210.104C813.997 208.523 873.385 211.494 885.484 220.674C894.287 227.357 920.334 235.64 945.526 243.654C968.479 250.953 990.161 257.849 998.488 263.335C1012.87 272.806 1078.82 272.146 1092.3 264.587C1094.27 263.48 1098.97 262.266 1104.42 260.862C1111.85 258.946 1120.28 256.774 1122.71 254.545C1124.84 252.602 1130.66 250.669 1136.83 248.624C1143.66 246.358 1151.4 243.79 1153.39 241.264C1182.58 204.153 1341.35 135.479 1385.92 124.981C1408.35 119.707 1495.73 130.37 1510.64 148.574C1517.97 157.531 1543.14 167.468 1567.47 177.08C1587.53 185.003 1606.48 192.488 1613.58 198.796C1628.15 211.733 1700.96 218.692 1722.1 219.133C1732.35 219.331 1779.84 217.68 1790.58 215.21C1800.15 213.008 1843.06 208.502 1852.64 208.695C1863.13 208.901 1918.95 211.676 1931 219.851L1930.46 221.09C1918.62 213.052 1863.06 210.31 1852.62 210.104C1843.08 210.002 1800.32 214.403 1790.78 216.597C1779.74 219.136 1732.67 220.754 1722.08 220.542C1706.54 220.217 1628.55 213.817 1612.93 199.946C1605.97 193.764 1587.11 186.312 1567.13 178.424C1542.67 168.765 1517.38 158.772 1509.85 149.581C1495.12 131.587 1408.43 121.107 1386.12 126.368C1341.65 136.842 1183.26 205.299 1154.19 242.255C1151.99 245.055 1144.43 247.563 1137.12 249.988C1131.32 251.91 1125.33 253.896 1123.38 255.686C1120.74 258.094 1112.19 260.3 1104.65 262.245C1099.49 263.575 1094.62 264.83 1092.76 265.876C1085.82 269.765 1066.5 271.887 1046.86 271.887Z" fill="url(#paint7_linear)"/>
</g>
<g opacity="0.55">
<path opacity="0.55" d="M1048.82 279.058C1028.63 279.058 1008.08 276.449 999.498 270.798C990.202 264.673 969.492 256.919 947.566 248.707C922.767 239.423 897.127 229.822 886.814 221.995C873.48 211.876 817.686 208.306 800.821 210.128C799.084 210.318 796.265 210.547 792.87 210.825C781.576 211.75 764.507 213.146 759.098 215.212C750.022 218.681 718.778 223.379 709.365 222.113C694.376 220.073 636.714 203.85 625.03 190.978C617.996 183.229 597.82 175.1 578.306 167.239C562.765 160.977 548.085 155.064 541.588 149.864C531.544 141.821 489.204 135.997 478.122 138.597L477.808 138.669C450.877 144.984 435.08 150.883 430.853 156.209C424.421 164.315 407.016 173.485 390.182 182.351C373.219 191.286 355.678 200.527 349.393 208.597C335.851 225.986 270.536 236.561 251.214 232.524C247.728 231.8 241.314 230.756 233.883 229.551C218.424 227.04 199.185 223.919 192.166 221.384C177.046 215.926 121.637 217.137 105.481 221.016C98.5696 222.675 77.6919 223.535 63.8779 224.101C59.9199 224.264 56.606 224.402 54.4839 224.522C37.4257 225.412 -5.47861 223.845 -11.0029 221.126L-10.5893 219.815C-5.29178 222.424 37.9053 223.985 54.4327 223.112C56.5568 222.991 59.8752 222.857 63.8426 222.691C77.6194 222.126 98.4441 221.271 105.27 219.633C121.505 215.73 177.246 214.524 192.478 220.029C199.414 222.534 218.607 225.65 234.028 228.152C241.467 229.36 247.893 230.404 251.398 231.133C270.571 235.138 335.233 224.761 348.588 207.611C355.031 199.337 372.68 190.041 389.746 181.051C406.477 172.237 423.778 163.126 430.052 155.217C436.668 146.877 467.476 139.657 477.601 137.284L477.915 137.21C489.126 134.587 532 140.515 542.194 148.675C548.567 153.778 563.18 159.664 578.65 165.896C598.271 173.801 618.562 181.977 625.772 189.921C637.304 202.621 694.579 218.683 709.487 220.712C718.782 221.956 749.77 217.303 758.767 213.863C764.304 211.749 781.449 210.345 792.797 209.418C796.181 209.142 798.991 208.912 800.724 208.724C815.227 207.141 873.196 210.012 887.398 220.789C897.586 228.521 923.158 238.097 947.888 247.358C969.867 255.588 990.631 263.362 1000.02 269.547C1016.63 280.494 1078.64 279.885 1094.51 270.981C1096.7 269.756 1101.16 268.413 1106.33 266.855C1113.71 264.631 1122.07 262.109 1124.93 259.494C1127.31 257.317 1132.89 255.137 1138.79 252.827C1145.48 250.212 1153.07 247.25 1155.38 244.305C1189.68 200.706 1333.85 123.331 1384.34 111.44C1408.76 105.695 1491.9 116.837 1509.54 138.374C1518.08 148.801 1542.7 160.335 1566.51 171.491C1585.43 180.352 1603.3 188.724 1611.24 195.781C1627.99 210.661 1696.96 218.554 1720.35 219.041C1732.73 219.302 1777.33 217.345 1789.47 214.557C1799.87 212.164 1838.68 207.102 1851.27 207.102C1851.55 207.102 1851.81 207.105 1852.06 207.111C1868.61 207.441 1918.06 211.075 1931 219.85L1930.46 221.089C1917.71 212.441 1868.52 208.851 1852.04 208.521C1840.71 208.218 1800 213.569 1789.67 215.945C1777.48 218.744 1732.73 220.728 1720.33 220.45C1696.85 219.96 1627.54 211.986 1610.59 196.931C1602.76 189.978 1584.96 181.64 1566.12 172.809C1542.19 161.603 1517.46 150.015 1508.75 139.382C1491.3 118.079 1408.81 107.112 1384.55 112.827C1334.18 124.688 1190.37 201.834 1156.19 245.296C1153.67 248.489 1146.28 251.379 1139.13 254.173C1133.31 256.446 1127.82 258.591 1125.59 260.634C1122.55 263.414 1114.07 265.971 1106.59 268.226C1101.69 269.701 1097.06 271.097 1094.98 272.269C1087.14 276.666 1068.14 279.058 1048.82 279.058Z" fill="url(#paint8_linear)"/>
</g>
<g opacity="0.6062">
<path opacity="0.6062" d="M1050.7 286.24C1030.83 286.24 1010.62 283.33 1001.03 277.01C990.745 270.233 971.057 261.683 950.218 252.632C925.772 242.016 900.493 231.038 888.732 222.111C873.572 210.608 820.121 206.795 802.117 208.747C800.449 208.928 798.084 209.143 795.307 209.396C784.5 210.384 766.412 212.036 760.042 214.472C750.21 218.232 720.627 223.65 709.931 222.228C691.23 219.685 638.277 201.102 625.683 187.226C617.602 178.323 597.719 169.017 578.49 160.019C563.823 153.153 549.969 146.668 542.842 140.964C531.831 132.147 492.13 125.206 479.011 128.274C465.637 131.41 438.558 139.596 431.799 148.115C424.593 157.196 408.001 167.494 391.955 177.451C375.731 187.52 358.951 197.934 351.85 207.053C336.914 226.231 276.602 238.775 253.423 233.944C250.157 233.264 245.125 232.336 239.296 231.266C223.764 228.408 202.489 224.494 193.959 221.414C176.662 215.159 124.651 216.646 106.522 220.998C98.4917 222.925 77.4513 223.888 63.5295 224.527C60.1189 224.684 57.1918 224.819 55.0789 224.94C36.7538 225.91 -4.70416 224.225 -11 221.125L-10.5864 219.815C-4.77666 222.678 35.1001 224.587 55.025 223.531C57.1407 223.41 60.0697 223.275 63.4848 223.12C77.3742 222.481 98.3615 221.521 106.308 219.616C124.531 215.24 176.846 213.764 194.269 220.06C202.726 223.113 223.958 227.019 239.458 229.87C245.292 230.944 250.33 231.871 253.604 232.551C276.01 237.231 336.614 224.594 351.042 206.068C358.277 196.777 375.143 186.309 391.453 176.187C407.415 166.28 423.922 156.038 430.995 147.125C439.69 136.167 477.21 127.261 478.802 126.887C492.06 123.782 532.277 130.838 543.446 139.776C550.471 145.399 564.272 151.86 578.883 158.698C598.206 167.743 618.188 177.096 626.423 186.169C638.878 199.891 691.459 218.301 710.051 220.828C720.62 222.265 749.956 216.853 759.709 213.123C766.2 210.64 783.666 209.046 795.224 207.992C797.995 207.739 800.354 207.524 802.019 207.343C820.138 205.378 873.977 209.268 889.315 220.906C900.974 229.755 926.195 240.709 950.586 251.3C971.467 260.37 991.192 268.937 1001.55 275.761C1020.14 288.004 1079.05 287.3 1096.73 277.376C1099.09 276.055 1103.48 274.533 1108.13 272.923C1115.49 270.369 1123.83 267.475 1127.15 264.442C1129.76 262.046 1135.08 259.635 1140.71 257.081C1147.6 253.96 1154.72 250.731 1157.38 247.345C1193.27 201.717 1322.68 112.052 1382.77 97.8981C1409.34 91.6493 1487.96 103.178 1508.44 128.177C1518.27 140.19 1542.49 153.45 1565.91 166.271C1583.55 175.933 1600.22 185.061 1608.9 192.768C1628.26 209.959 1695.23 218.464 1718.61 218.951C1732.68 219.243 1774.71 217.044 1788.36 213.906C1800.4 211.137 1838.85 205.321 1851.49 205.53C1870.34 205.908 1916.54 210.037 1931 219.853L1930.46 221.092C1916.18 211.399 1870.24 207.314 1851.48 206.94C1838.85 206.618 1800.57 212.533 1788.56 215.295C1774.85 218.444 1732.67 220.643 1718.59 220.362C1695.11 219.872 1627.8 211.287 1608.25 193.921C1599.66 186.296 1583.05 177.199 1565.46 167.567C1541.95 154.693 1517.63 141.381 1507.65 129.187C1488.93 106.326 1411.46 92.5795 1382.98 99.2878C1323.05 113.404 1193.98 202.829 1158.18 248.339C1155.34 251.951 1148.1 255.234 1141.1 258.408C1135.54 260.927 1130.3 263.305 1127.81 265.584C1124.33 268.769 1115.88 271.698 1108.43 274.283C1103.82 275.879 1099.48 277.388 1097.2 278.667C1088.45 283.567 1069.74 286.24 1050.7 286.24Z" fill="url(#paint9_linear)"/>
</g>
<g opacity="0.6625">
<path opacity="0.6625" d="M1052.44 293.637C1033.08 293.637 1013.42 290.374 1002.56 283.223C991.472 275.918 973.058 266.751 953.566 257.046C929.218 244.926 904.042 232.393 890.646 222.228C874.175 209.725 824.209 205.12 803.411 207.369C801.996 207.524 800.229 207.699 798.22 207.9C787.101 209.007 768.489 210.862 760.984 213.733C750.488 217.741 722.605 224.012 710.492 222.347C690.011 219.564 640.692 199.304 626.327 183.476C617.098 173.311 597.376 162.711 578.303 152.459C564.636 145.115 551.73 138.179 544.089 132.065C531.296 121.825 493.789 114.695 479.894 117.957C468.483 120.63 440.767 129.901 432.736 140.022C424.762 150.073 408.988 161.487 393.734 172.528C378.243 183.74 362.223 195.334 354.297 205.508C337.213 227.452 279.458 240.338 255.621 235.366C253.587 234.942 251.08 234.433 248.248 233.857C232.735 230.702 206.772 225.425 195.747 221.443C176.587 214.519 127.228 216.257 107.556 220.98C98.2649 223.213 76.9262 224.28 62.8035 224.988C60.0548 225.126 57.6203 225.247 55.6683 225.359C34.4764 226.472 -4.27187 224.438 -10.999 221.125L-10.5854 219.815C-3.96419 223.074 34.5313 225.066 55.6181 223.949C57.5729 223.839 60.0074 223.715 62.7608 223.578C76.8472 222.873 98.1366 221.808 107.346 219.598C127.117 214.852 176.764 213.113 196.06 220.088C207.022 224.049 232.942 229.318 248.429 232.464C251.263 233.039 253.77 233.548 255.807 233.975C279.424 238.878 336.612 226.199 353.493 204.522C361.524 194.21 377.612 182.567 393.17 171.308C408.363 160.314 424.07 148.945 431.936 139.031C440.235 128.573 467.692 119.382 479.688 116.569C493.75 113.272 531.73 120.497 544.697 130.875C552.26 136.929 565.126 143.842 578.748 151.165C597.902 161.457 617.709 172.101 627.072 182.419C641.023 197.79 690.753 218.245 710.616 220.945C722.574 222.583 750.238 216.368 760.655 212.384C768.279 209.469 786.966 207.605 798.132 206.493C800.137 206.295 801.902 206.118 803.315 205.965C823.768 203.732 873.923 207.884 891.231 221.022C904.546 231.127 929.677 243.638 953.983 255.738C973.505 265.456 991.944 274.635 1003.08 281.974C1023.77 295.606 1079.55 294.662 1098.95 283.769C1101.43 282.379 1105.48 280.788 1109.76 279.101C1117.16 276.189 1125.55 272.888 1129.36 269.392C1132.2 266.799 1137.24 264.176 1142.57 261.401C1149.35 257.878 1156.35 254.236 1159.38 250.388C1202.59 195.45 1317.31 99.4042 1381.2 84.3562C1411.56 77.2052 1485.34 91.1249 1507.34 117.979C1518.65 131.789 1542.69 147.003 1565.95 161.713C1582.1 171.926 1597.35 181.571 1606.56 189.755C1627.14 208.032 1688.37 218.267 1716.87 218.861C1732.77 219.203 1772.22 216.709 1787.25 213.252C1801.63 209.949 1837.15 203.757 1850.92 203.95C1869.96 204.327 1914.58 208.712 1931 219.852L1930.47 221.091C1914.23 210.075 1869.85 205.734 1850.9 205.359C1837.12 205.095 1801.79 211.347 1787.46 214.638C1772.37 218.107 1732.74 220.601 1716.85 220.271C1689.91 219.709 1627.68 210.243 1605.91 190.905C1596.76 182.782 1581.55 173.159 1565.45 162.972C1542.11 148.212 1517.99 132.948 1506.55 118.987C1484.77 92.3908 1411.55 78.6273 1381.41 85.743C1317.72 100.743 1203.29 196.565 1160.18 251.379C1157 255.428 1149.88 259.128 1143.01 262.703C1137.73 265.445 1132.75 268.035 1130.03 270.531C1126.06 274.162 1117.58 277.501 1110.1 280.447C1105.85 282.12 1101.84 283.701 1099.42 285.058C1089.55 290.587 1071.14 293.637 1052.44 293.637Z" fill="url(#paint10_linear)"/>
</g>
<g opacity="0.7188">
<path opacity="0.7188" d="M1054.28 300.842C1035.31 300.842 1016.01 297.291 1004.09 289.435C992.694 281.929 976.201 272.607 958.74 262.739C933.827 248.663 908.066 234.107 892.561 222.342C874.623 208.727 827.809 203.481 804.703 205.986L801.77 206.3C790.957 207.447 770.83 209.584 761.923 212.988C750.895 217.206 724.652 224.313 711.054 222.463C689.448 219.525 643.054 197.441 626.972 179.722C616.401 168.079 596.593 155.978 577.438 144.276C565.011 136.684 553.273 129.513 545.336 123.163C531.764 112.301 496.781 103.873 480.776 107.632C468.855 110.427 442.803 120.424 433.675 131.924C424.95 142.924 410.01 155.438 395.562 167.538C380.787 179.914 365.508 192.714 356.748 203.961C338.306 227.642 285.394 242.539 257.821 236.781C243.191 233.734 211.763 226.612 197.535 221.47C176.451 213.854 129.768 215.877 108.589 220.959C97.8521 223.538 76.0662 224.708 61.6517 225.478C59.6699 225.585 57.8536 225.685 56.2557 225.776C33.4501 226.97 -3.25132 224.939 -11.001 221.124L-10.5873 219.814C-3.09794 223.499 33.9865 225.536 56.2055 224.367C57.8043 224.276 59.6225 224.18 61.6043 224.072C75.9854 223.301 97.7229 222.134 108.379 219.577C129.426 214.526 175.842 212.169 197.848 220.116C212.025 225.238 243.399 232.349 258.007 235.391C284.732 240.965 338.044 225.955 355.944 202.976C364.784 191.624 380.114 178.783 394.939 166.366C409.338 154.304 424.23 141.831 432.876 130.934C442.18 119.21 468.531 109.069 480.57 106.246C496.757 102.45 532.198 110.974 545.944 121.974C553.826 128.284 565.536 135.438 577.933 143.01C597.154 154.753 617.034 166.894 627.716 178.665C643.663 196.235 689.717 218.143 711.177 221.061C724.598 222.894 750.645 215.825 761.594 211.639C770.617 208.192 790.821 206.046 801.676 204.895L804.607 204.582C824.979 202.382 873.348 206.112 893.145 221.136C908.591 232.857 934.32 247.397 959.201 261.458C976.681 271.331 993.189 280.66 1004.61 288.186C1027.89 303.524 1079.58 302.279 1101.17 290.162C1103.68 288.756 1107.3 287.156 1111.13 285.463C1118.65 282.138 1127.17 278.373 1131.58 274.339C1134.6 271.576 1139.33 268.779 1144.34 265.817C1151.03 261.864 1157.95 257.774 1161.37 253.428C1205.19 197.727 1307.19 87.875 1379.63 70.814C1414.9 62.518 1482.62 78.9454 1506.23 107.779C1519.38 123.836 1544.87 142.273 1567.36 158.542C1581.52 168.782 1594.89 178.454 1604.22 186.737C1628.43 208.246 1688.4 218.214 1715.12 218.77C1732.99 219.139 1770.01 216.306 1786.15 212.599C1793.84 210.828 1833.14 202.086 1850.35 202.367C1872.21 202.805 1913.44 207.938 1931 219.852L1930.47 221.091C1913.08 209.296 1872.09 204.211 1850.33 203.777C1833.2 203.419 1794.03 212.222 1786.35 213.986C1770.16 217.708 1733.03 220.574 1715.1 220.179C1688.26 219.62 1627.98 209.574 1603.57 187.888C1594.28 179.641 1580.93 169.984 1566.8 159.761C1544.25 143.452 1518.7 124.968 1505.45 108.788C1482.05 80.2151 1414.86 63.9551 1379.84 72.2018C1307.67 89.1967 1205.9 198.824 1162.17 254.419C1158.62 258.942 1151.61 263.085 1144.82 267.093C1139.86 270.024 1135.18 272.794 1132.24 275.48C1127.71 279.634 1119.1 283.434 1111.51 286.79C1107.7 288.475 1104.1 290.067 1101.63 291.451C1090.88 297.482 1072.73 300.842 1054.28 300.842Z" fill="url(#paint11_linear)"/>
</g>
<g opacity="0.775">
<path opacity="0.775" d="M1056.04 308.061C1037.55 308.061 1018.69 304.259 1005.62 295.649C996.263 289.483 984.685 282.142 972.426 274.368C945.202 257.103 914.344 237.534 894.475 222.458C873.833 206.79 829.835 202.02 805.996 204.608C795.509 205.744 773.684 208.109 762.865 212.249C757.289 214.38 728.611 224.903 711.619 222.582C688.505 219.439 645.328 195.479 627.619 175.971C615.283 162.379 593.924 147.691 575.078 134.734C564.414 127.397 554.337 120.47 546.584 114.265C531.179 101.935 498.415 93.3695 481.66 97.3134C468.268 100.452 444.468 111.415 434.617 123.832C425.168 135.74 411.103 149.3 397.5 162.413C383.402 176 368.827 190.053 359.2 202.414C338.248 229.316 287.809 243.971 260.024 238.204C243.857 234.835 214.953 227.146 199.323 221.501C175.356 212.844 131.833 215.616 109.626 220.942C97.2144 223.921 74.8309 225.181 60.0203 226.012L56.845 226.194C30.602 227.584 -2.99848 225.068 -11.001 221.124L-10.5873 219.813C-2.84418 223.626 31.1634 226.141 56.7948 224.785L59.9702 224.606C74.75 223.775 97.0824 222.517 109.415 219.561C131.732 214.201 175.501 211.427 199.636 220.147C215.229 225.782 244.073 233.45 260.21 236.812C287.751 242.553 337.67 228.041 358.396 201.428C368.078 188.998 382.686 174.914 396.812 161.295C410.386 148.209 424.422 134.68 433.817 122.841C443.832 110.216 467.917 99.0992 481.454 95.9246C498.43 91.9389 531.604 100.599 547.191 113.074C554.912 119.254 564.972 126.171 575.622 133.495C594.518 146.488 615.934 161.218 628.363 174.912C645.942 194.277 688.8 218.06 711.743 221.178C728.501 223.46 756.996 213.014 762.535 210.897C773.47 206.716 795.372 204.341 805.9 203.201C829.877 200.589 874.209 205.423 895.06 221.251C914.891 236.3 945.727 255.857 972.936 273.108C985.198 280.884 996.78 288.229 1006.14 294.398C1031.9 311.367 1080.4 309.458 1103.39 296.556C1105.76 295.229 1108.79 293.743 1111.99 292.171C1119.8 288.345 1128.64 284.007 1133.79 279.288C1136.94 276.411 1141.31 273.499 1145.94 270.413C1152.61 265.971 1159.5 261.379 1163.37 256.469C1167.01 251.83 1170.86 246.895 1174.9 241.726C1226.89 175.081 1305.47 74.3692 1378.06 57.2701C1413.78 48.869 1478.42 64.9662 1505.13 97.5803C1521.16 117.157 1548.5 139.506 1572.62 159.224C1583.42 168.054 1593.63 176.397 1601.87 183.722C1627.82 206.773 1682.7 218.039 1713.37 218.678C1731.69 219.042 1766.27 216.259 1785.04 211.945L1789.74 210.857C1806.46 206.973 1834.44 200.461 1849.77 200.786C1868.7 201.162 1910.04 205.63 1931 219.85L1930.46 221.089C1909.7 206.998 1868.59 202.569 1849.76 202.195C1834.58 201.914 1806.62 208.372 1789.94 212.245L1785.24 213.333C1766.41 217.662 1731.76 220.437 1713.36 220.087C1682.53 219.446 1627.37 208.094 1601.22 184.873C1592.99 177.562 1582.8 169.227 1572 160.401C1547.84 140.648 1520.45 118.26 1504.34 98.5877C1477.86 66.2573 1413.73 50.2921 1378.27 58.6579C1306.02 75.6723 1227.6 176.194 1175.7 242.712C1171.67 247.881 1167.82 252.82 1164.17 257.46C1160.18 262.522 1153.21 267.166 1146.47 271.658C1141.88 274.719 1137.54 277.609 1134.46 280.428C1129.19 285.251 1120.27 289.625 1112.4 293.484C1109.21 295.051 1106.19 296.529 1103.85 297.845C1092.3 304.325 1074.35 308.058 1056.04 308.061Z" fill="url(#paint12_linear)"/>
</g>
<g opacity="0.8313">
<path opacity="0.8313" d="M1057.94 315.292C1039.86 315.292 1021.34 311.209 1007.15 301.858C974.406 280.286 926.782 245.635 896.391 222.571C874.67 206.082 834.278 200.296 807.29 203.225C787.071 205.42 772.44 208.205 763.807 211.508C746.434 218.148 726.725 224.669 712.183 222.698C686.571 219.219 647.403 193.3 628.267 172.217C612.864 155.247 589.131 137.123 568.192 121.133C560.861 115.534 553.934 110.246 547.834 105.363C532.439 93.0419 501.86 82.4661 482.545 86.9941C467.942 90.418 446.374 102.106 435.56 115.738C425.505 128.408 412.45 142.838 399.821 156.791C386.273 171.766 372.261 187.249 361.651 200.872C340.057 228.602 294.524 246.351 262.227 239.627C245.111 236.06 218.526 227.823 201.115 221.534C176.752 212.731 137.175 214.567 110.661 220.925C96.2078 224.397 72.9049 225.729 57.4846 226.612C29.8491 228.074 -2.11815 225.5 -11 221.125L-10.5864 219.815C-1.97686 224.053 30.4319 226.627 57.387 225.204C72.8194 224.32 96.0739 222.991 110.449 219.542C137.086 213.147 176.893 211.309 201.426 220.178C218.807 226.457 245.336 234.677 262.411 238.233C294.396 244.91 339.469 227.332 360.845 199.885C371.484 186.224 385.512 170.724 399.075 155.733C411.688 141.796 424.733 127.383 434.758 114.745C445.729 100.918 467.565 89.0711 482.338 85.6053C501.888 81.0308 532.869 91.7108 548.44 104.172C554.532 109.047 561.452 114.332 568.777 119.928C589.755 135.948 613.533 154.105 629.01 171.157C648.018 192.1 686.903 217.843 712.306 221.295C726.632 223.254 746.215 216.755 763.477 210.157C772.185 206.826 786.894 204.022 807.194 201.819C834.347 198.876 875.048 204.72 896.977 221.363C927.352 244.419 974.951 279.05 1007.68 300.609C1035.77 319.121 1080.99 316.761 1105.61 302.948C1107.43 301.927 1109.48 300.826 1111.67 299.657C1119.72 295.346 1129.73 289.984 1136.01 284.236C1139.16 281.349 1143.08 278.429 1147.23 275.334C1153.98 270.307 1160.96 265.108 1165.36 259.509C1176.56 245.275 1188.6 228.418 1201.36 210.573C1249.44 143.289 1309.29 59.5535 1376.49 43.7287C1418.19 33.9044 1476.61 53.8916 1504.03 87.3801C1529.57 118.563 1571.67 155.96 1599.53 180.706C1627.69 205.714 1677.38 217.873 1711.63 218.586C1732.14 219.01 1764.58 215.74 1783.93 211.292C1787.4 210.496 1791.31 209.536 1795.49 208.509C1812.89 204.231 1834.56 198.91 1849.2 199.202C1873.61 199.686 1909.68 205.384 1931 219.849L1930.46 221.088C1909.33 206.747 1873.47 201.093 1849.18 200.611C1834.59 200.289 1813.05 205.629 1795.7 209.89C1791.52 210.92 1787.61 211.88 1784.13 212.679C1764.72 217.138 1732.16 220.405 1711.61 219.995C1677.19 219.28 1627.23 207.038 1598.88 181.857C1570.99 157.086 1528.84 119.65 1503.24 88.3874C1476.05 55.1762 1418.1 35.3406 1376.7 45.1156C1309.88 60.8502 1250.17 144.387 1202.2 211.511C1189.43 229.37 1177.38 246.239 1166.16 260.501C1161.66 266.229 1154.62 271.473 1147.81 276.546C1143.68 279.624 1139.78 282.528 1136.67 285.377C1130.29 291.218 1120.21 296.616 1112.11 300.954C1109.94 302.121 1107.89 303.217 1106.07 304.239C1093.64 311.212 1076.01 315.292 1057.94 315.292Z" fill="url(#paint13_linear)"/>
</g>
<g opacity="0.8875">
<path opacity="0.8875" d="M1060.41 322.55C1041.79 322.55 1023.28 317.692 1008.68 308.074C986.358 293.367 961.464 273.207 937.388 253.712C923.568 242.52 910.512 231.947 898.307 222.687C873.956 204.209 835.693 198.893 808.583 201.847C797.896 203.006 777.988 205.703 764.75 210.765L761.069 212.183C746.395 217.85 728.131 224.897 712.746 222.819C685.707 219.141 650.336 192.066 628.913 168.465C611.053 148.79 584.195 124.563 549.083 96.464C532.183 82.9376 504.203 71.7888 483.429 76.6721C467.513 80.4048 447.775 93.4326 436.498 107.645L427.768 118.645C406.994 144.818 383.449 174.484 364.102 199.326C339.845 230.478 297.926 248.018 264.428 241.045C246.398 237.288 222.374 228.604 204.832 222.258L202.903 221.562C175.269 211.577 137.672 214.677 111.695 220.907C97.0323 224.427 77.2347 225.933 58.0265 227.035C29.1268 228.559 -1.1886 225.961 -11 221.127L-10.5864 219.817C-1.06032 224.507 29.6911 227.111 57.9763 225.624C77.1427 224.526 96.8901 223.026 111.485 219.524C137.583 213.263 175.391 210.151 203.217 220.207L205.147 220.907C222.66 227.238 246.647 235.911 264.612 239.655C297.765 246.556 339.276 229.187 363.297 198.34C382.646 173.495 406.193 143.827 426.97 117.652L435.697 106.655C447.118 92.2587 467.106 79.0673 483.222 75.2853C504.289 70.3526 532.605 81.6028 549.69 95.2752C584.85 123.416 611.755 147.686 629.657 167.409C650.952 190.867 686.075 217.774 712.869 221.415C728.012 223.499 746.162 216.469 760.737 210.837L764.421 209.416C777.758 204.318 797.754 201.604 808.487 200.443C835.779 197.49 874.324 202.836 898.893 221.482C911.108 230.752 924.17 241.331 938 252.529C962.055 272.007 986.928 292.148 1009.21 306.825C1036.68 324.932 1078.16 325.992 1107.83 309.347C1116.45 304.513 1129.47 297.21 1138.23 289.189C1141.12 286.538 1144.36 283.869 1147.78 281.041C1154.86 275.189 1162.18 269.139 1167.36 262.552C1183.14 242.484 1198.86 217.82 1215.5 191.709C1259.07 123.339 1308.44 45.8458 1374.92 30.1885C1418.4 19.9596 1472.24 39.7124 1502.93 77.1846C1534.51 115.744 1569.75 153.321 1597.19 177.695C1624.12 201.619 1668.36 217.633 1709.89 218.499C1730.81 218.928 1760.81 215.702 1782.83 210.642C1787.67 209.527 1793.01 208.124 1798.65 206.637C1815.21 202.274 1833.99 197.306 1848.63 197.622C1860.62 197.862 1902 200.174 1931 219.853L1930.47 221.092C1901.68 201.564 1860.54 199.271 1848.61 199.032C1834.03 198.716 1815.38 203.668 1798.88 208.017C1793.23 209.506 1787.89 210.912 1783.03 212.03C1760.95 217.103 1730.86 220.324 1709.87 219.909C1668.13 219.039 1623.65 202.922 1596.54 178.847C1569.05 154.431 1533.76 116.802 1502.14 78.1929C1471.7 41.0183 1418.27 21.392 1375.13 31.5763C1309.07 47.1341 1259.82 124.41 1216.38 192.588C1199.72 218.73 1183.99 243.424 1168.16 263.543C1162.9 270.235 1155.53 276.326 1148.4 282.217C1144.99 285.035 1141.77 287.695 1138.89 290.329C1130.04 298.435 1116.95 305.777 1108.29 310.635C1094.09 318.6 1077.2 322.55 1060.41 322.55Z" fill="url(#paint14_linear)"/>
</g>
<g opacity="0.9438">
<path opacity="0.9438" d="M1062.16 329.804C1043.92 329.804 1025.88 324.613 1010.21 314.287C988.725 300.13 967.371 280.955 946.72 262.413C931.437 248.689 915.635 234.498 900.222 222.803C877.022 205.197 843.242 196.85 809.876 200.465C799.871 201.549 780.825 204.236 765.692 210.025C763.108 211.01 760.489 212.068 757.839 213.133C743.36 218.957 728.401 224.991 713.309 222.937C689.914 219.755 661.738 200.164 629.56 164.713C598.886 130.919 572.971 105.683 550.332 87.5644C533.188 73.8427 506.845 61.0643 484.314 66.3522C468.514 70.057 450.992 82.469 437.439 99.5495C425.03 115.19 412.626 133.096 400.63 150.413C389.5 166.478 377.993 183.09 366.554 197.78C339.48 232.541 301.187 249.674 266.631 242.461C251.55 239.323 235.298 233.141 219.581 227.162C214.396 225.191 209.501 223.328 204.692 221.591C173.386 210.28 137.403 214.968 112.731 220.888C96.0321 224.896 76.0059 226.454 58.6186 227.451C28.4111 229.031 -0.208855 226.438 -11 221.125L-10.5864 219.814C0.0718689 225.061 28.5142 227.626 58.5685 226.04C75.9138 225.047 95.8899 223.495 112.521 219.506C137.315 213.552 173.491 208.847 205.005 220.235C209.821 221.975 214.721 223.839 219.91 225.813C235.592 231.778 251.809 237.946 266.817 241.071C301.029 248.195 338.929 231.23 365.75 196.794C377.165 182.136 388.662 165.538 399.78 149.49C411.789 132.153 424.205 114.231 436.64 98.557C450.349 81.2784 468.092 68.7204 484.107 64.9635C506.957 59.6011 533.616 72.5089 550.939 86.3738C573.627 104.533 599.585 129.811 630.303 163.655C662.303 198.911 690.272 218.383 713.432 221.532C728.262 223.566 743.129 217.569 757.493 211.79C760.15 210.72 762.773 209.665 765.361 208.674C780.595 202.847 799.729 200.15 809.779 199.059C843.364 195.428 877.409 203.838 900.807 221.595C916.255 233.322 932.077 247.528 947.377 261.266C967.997 279.781 989.318 298.926 1010.74 313.038C1040.27 332.5 1078.33 333.537 1110.04 315.738C1121.37 309.388 1132.16 301.716 1140.44 294.135C1142.17 292.552 1143.95 290.948 1145.76 289.321C1154.04 281.872 1162.61 274.168 1169.35 265.59C1188.72 240.97 1206.06 210.143 1224.42 177.508C1264.53 106.22 1306.01 32.5029 1373.35 16.6419C1417.77 6.1953 1468.21 25.9378 1501.82 66.9828C1508.75 75.4389 1515.62 84.1098 1522.88 93.2932C1545.81 122.242 1569.52 152.181 1594.84 174.678C1625.6 201.996 1665.83 217.523 1708.14 218.404C1729.68 218.836 1756.49 215.784 1781.71 209.986C1787.7 208.609 1793.96 206.837 1800.59 204.962C1816.12 200.566 1832.17 196.024 1846.7 196.024C1847.15 196.024 1847.61 196.03 1848.06 196.038C1879.84 196.672 1909.3 205.128 1931 219.848L1930.46 221.087C1908.92 206.471 1879.65 198.075 1848.04 197.447C1833.24 197.183 1816.79 201.818 1800.84 206.336C1794.2 208.216 1787.93 209.992 1781.92 211.374C1756.63 217.187 1729.73 220.232 1708.12 219.813C1665.59 218.927 1625.13 203.308 1594.19 175.828C1568.79 153.258 1545.04 123.277 1522.09 94.2829C1514.82 85.1051 1507.96 76.4369 1501.04 67.9893C1467.68 27.2605 1417.64 7.64259 1373.55 18.0287C1306.66 33.7818 1265.32 107.259 1225.34 178.319C1206.95 211.004 1189.58 241.874 1170.15 266.58C1163.34 275.243 1154.74 282.981 1146.42 290.462C1144.61 292.089 1142.83 293.691 1141.1 295.274C1132.76 302.909 1121.9 310.633 1110.51 317.025C1095.3 325.559 1078.65 329.804 1062.16 329.804Z" fill="url(#paint15_linear)"/>
</g>
<path d="M1063.92 337.067C1046.07 337.067 1028.5 331.54 1011.75 320.499C989.745 306.004 970.12 286.476 951.144 267.59C935.568 252.093 919.465 236.066 902.139 222.918C876.72 203.627 845.277 195.386 811.172 199.085C794.622 200.878 779.638 204.31 766.634 209.283C762.981 210.679 759.341 212.224 755.821 213.716C742.02 219.574 728.984 225.101 713.873 223.052C682.693 218.814 654.373 187.599 631.617 162.516L630.208 160.961C623.776 153.876 617.338 146.501 611.11 139.369C592.489 118.042 573.231 95.9904 551.582 78.6644C527.088 59.0577 504.754 51.4378 485.198 56.0291C469.729 59.6567 454.413 71.2455 438.382 91.4559C425.399 107.82 414.039 126.541 403.055 144.649C392.439 162.148 381.461 180.243 369.006 196.233C348.065 223.127 313.683 253.221 268.834 243.884C254.386 240.872 240.229 235.09 226.536 229.496C219.983 226.818 213.204 224.048 206.484 221.62C178.634 211.562 149.18 211.317 113.783 220.866C96.7339 224.452 78.8931 226.742 59.2098 227.869C27.7269 229.524 0.815509 226.947 -11 221.125L-10.5864 219.815C1.09066 225.565 27.8171 228.111 59.1578 226.46C78.7927 225.337 96.5917 223.054 113.57 219.484C149.126 209.886 178.757 210.139 206.794 220.266C213.535 222.702 220.32 225.474 226.885 228.155C240.536 233.733 254.654 239.499 269.018 242.491C313.385 251.759 347.443 221.904 368.2 195.247C380.604 179.32 391.562 161.26 402.157 143.795C413.163 125.652 424.545 106.893 437.58 90.4653C453.781 70.0428 469.288 58.3275 484.991 54.6422C504.837 50.0017 527.443 57.6699 552.188 77.4757C573.919 94.8668 593.213 116.963 611.869 138.331C618.092 145.458 624.527 152.827 630.95 159.903L632.362 161.459C654.996 186.409 683.17 217.459 713.996 221.648C728.852 223.685 741.78 218.188 755.46 212.383C758.988 210.885 762.636 209.338 766.304 207.935C779.383 202.933 794.447 199.481 811.075 197.681C845.404 193.951 877.096 202.264 902.723 221.711C920.109 234.905 936.241 250.961 951.843 266.486C970.78 285.331 990.362 304.82 1012.27 319.249C1043.9 340.098 1078.48 341.097 1112.26 322.134C1122.71 316.276 1132.93 308.525 1142.64 299.099C1152.45 290.638 1162.1 280.395 1171.35 268.633C1193.81 240.08 1212.48 202.258 1230.54 165.68C1266.07 93.7395 1302.81 19.3466 1371.78 3.10325C1417.72 -7.71167 1463.51 11.35 1500.72 56.7853C1511.79 70.2977 1522.29 85.0081 1532.45 99.2367C1550.76 124.883 1569.69 151.405 1592.51 171.665C1626.85 202.175 1664.11 217.433 1706.4 218.314C1728.37 218.771 1751.96 215.922 1780.61 209.335C1787.61 207.725 1794.84 205.528 1801.83 203.404C1816.78 198.856 1832.21 194.207 1847.49 194.458C1879.44 195.094 1906.76 203.398 1931 219.851L1930.47 221.09C1906.38 204.75 1879.24 196.5 1847.47 195.867C1832.34 195.617 1816.98 200.243 1802.1 204.771C1795.09 206.902 1787.85 209.104 1780.81 210.722C1752.09 217.321 1728.42 220.219 1706.38 219.723C1663.86 218.84 1626.4 203.494 1591.86 172.816C1568.94 152.463 1549.97 125.883 1531.61 100.176C1521.47 85.9671 1510.98 71.2734 1499.94 57.7936C1463 12.6857 1417.56 -6.24946 1371.99 4.49104C1303.5 20.619 1266.9 94.7394 1231.51 166.422C1213.41 203.065 1194.7 240.955 1172.15 269.625C1162.85 281.45 1153.15 291.747 1143.31 300.237C1133.55 309.706 1123.26 317.515 1112.73 323.423C1096.51 332.521 1080.1 337.064 1063.92 337.067Z" fill="url(#paint16_linear)"/>
</g>
<defs>
<linearGradient id="paint0_linear" x1="959.969" y1="37.9735" x2="959.969" y2="406.308" gradientUnits="userSpaceOnUse">
<stop stop-color="#FA4468"/>
<stop offset="0.518" stop-color="#FCD9D9"/>
<stop offset="1" stop-color="#FA4468"/>
</linearGradient>
<linearGradient id="paint1_linear" x1="960" y1="37.9815" x2="960" y2="406.3" gradientUnits="userSpaceOnUse">
<stop stop-color="#FA4468"/>
<stop offset="0.518" stop-color="#FCD9D9"/>
<stop offset="1" stop-color="#FA4468"/>
</linearGradient>
<linearGradient id="paint2_linear" x1="960" y1="37.9813" x2="960" y2="406.299" gradientUnits="userSpaceOnUse">
<stop stop-color="#FA4468"/>
<stop offset="0.518" stop-color="#FCD9D9"/>
<stop offset="1" stop-color="#FA4468"/>
</linearGradient>
<linearGradient id="paint3_linear" x1="960" y1="37.9814" x2="960" y2="406.3" gradientUnits="userSpaceOnUse">
<stop stop-color="#FA4468"/>
<stop offset="0.518" stop-color="#FCD9D9"/>
<stop offset="1" stop-color="#FA4468"/>
</linearGradient>
<linearGradient id="paint4_linear" x1="960" y1="37.9815" x2="960" y2="406.3" gradientUnits="userSpaceOnUse">
<stop stop-color="#FA4468"/>
<stop offset="0.518" stop-color="#FCD9D9"/>
<stop offset="1" stop-color="#FA4468"/>
</linearGradient>
<linearGradient id="paint5_linear" x1="960" y1="37.981" x2="960" y2="406.299" gradientUnits="userSpaceOnUse">
<stop stop-color="#FA4468"/>
<stop offset="0.518" stop-color="#FCD9D9"/>
<stop offset="1" stop-color="#FA4468"/>
</linearGradient>
<linearGradient id="paint6_linear" x1="960" y1="37.9819" x2="960" y2="406.3" gradientUnits="userSpaceOnUse">
<stop stop-color="#FA4468"/>
<stop offset="0.518" stop-color="#FCD9D9"/>
<stop offset="1" stop-color="#FA4468"/>
</linearGradient>
<linearGradient id="paint7_linear" x1="960" y1="37.9816" x2="960" y2="406.299" gradientUnits="userSpaceOnUse">
<stop stop-color="#FA4468"/>
<stop offset="0.518" stop-color="#FCD9D9"/>
<stop offset="1" stop-color="#FA4468"/>
</linearGradient>
<linearGradient id="paint8_linear" x1="960" y1="37.9821" x2="960" y2="406.3" gradientUnits="userSpaceOnUse">
<stop stop-color="#FA4468"/>
<stop offset="0.518" stop-color="#FCD9D9"/>
<stop offset="1" stop-color="#FA4468"/>
</linearGradient>
<linearGradient id="paint9_linear" x1="960" y1="37.9814" x2="960" y2="406.299" gradientUnits="userSpaceOnUse">
<stop stop-color="#FA4468"/>
<stop offset="0.518" stop-color="#FCD9D9"/>
<stop offset="1" stop-color="#FA4468"/>
</linearGradient>
<linearGradient id="paint10_linear" x1="960" y1="37.9817" x2="960" y2="406.299" gradientUnits="userSpaceOnUse">
<stop stop-color="#FA4468"/>
<stop offset="0.518" stop-color="#FCD9D9"/>
<stop offset="1" stop-color="#FA4468"/>
</linearGradient>
<linearGradient id="paint11_linear" x1="960" y1="37.9819" x2="960" y2="406.299" gradientUnits="userSpaceOnUse">
<stop stop-color="#FA4468"/>
<stop offset="0.518" stop-color="#FCD9D9"/>
<stop offset="1" stop-color="#FA4468"/>
</linearGradient>
<linearGradient id="paint12_linear" x1="960" y1="37.982" x2="960" y2="406.3" gradientUnits="userSpaceOnUse">
<stop stop-color="#FA4468"/>
<stop offset="0.518" stop-color="#FCD9D9"/>
<stop offset="1" stop-color="#FA4468"/>
</linearGradient>
<linearGradient id="paint13_linear" x1="960" y1="37.9817" x2="960" y2="406.301" gradientUnits="userSpaceOnUse">
<stop stop-color="#FA4468"/>
<stop offset="0.518" stop-color="#FCD9D9"/>
<stop offset="1" stop-color="#FA4468"/>
</linearGradient>
<linearGradient id="paint14_linear" x1="960" y1="37.9816" x2="960" y2="406.3" gradientUnits="userSpaceOnUse">
<stop stop-color="#FA4468"/>
<stop offset="0.518" stop-color="#FCD9D9"/>
<stop offset="1" stop-color="#FA4468"/>
</linearGradient>
<linearGradient id="paint15_linear" x1="960" y1="37.9818" x2="960" y2="406.301" gradientUnits="userSpaceOnUse">
<stop stop-color="#FA4468"/>
<stop offset="0.518" stop-color="#FCD9D9"/>
<stop offset="1" stop-color="#FA4468"/>
</linearGradient>
<linearGradient id="paint16_linear" x1="960" y1="37.9818" x2="960" y2="406.301" gradientUnits="userSpaceOnUse">
<stop stop-color="#FA4468"/>
<stop offset="0.518" stop-color="#FCD9D9"/>
<stop offset="1" stop-color="#FA4468"/>
</linearGradient>
</defs>
</svg>
