<svg width="49" height="62" viewBox="0 0 49 62" fill="none" xmlns="http://www.w3.org/2000/svg">
<path d="M23.8235 9.17194L21.8911 9.34823L22.711 0.855283L26.3152 1.19689L24.732 6.94685L28.4686 5.11652L24.8602 19.2995L23.8235 9.17194ZM43.7489 31.955V35.1155C51.8513 35.1155 48.4783 46.6104 42.6786 46.7504C37.1234 66.529 11.5198 66.5307 5.96803 46.7504C-0.242474 46.5952 -3.11535 35.1155 4.90356 35.1155V31.955C4.90356 22.4482 10.2217 16.4612 16.9222 13.9899L22.4419 24.3224L20.286 13.0646C21.218 12.8891 22.1636 12.7753 23.1125 12.723L24.3085 24.3975L34.5011 15.2652C39.8386 18.2427 43.7489 23.8045 43.7489 31.955ZM27.5846 12.9321C28.6389 13.0907 29.6806 13.3277 30.6962 13.6415L25.1301 22.5798L27.5846 12.9321ZM20.9009 20.0485L16.0273 9.50764L14.7832 11.9959L11.0314 4.21821L14.337 2.72948L16.1344 6.70647L17.1339 4.70912L20.9009 20.0485ZM28.4719 19.2346L34.0372 10.2971L29.0775 9.42076L36.5861 0L39.4244 2.25629L35.7165 6.90806L41.1586 7.86793L28.4719 19.2346Z" fill="url(#paint0_linear)"/>
<path d="M17 46L19 43.5L21.5 46L25 43L27 46L30 43L32.5 46" stroke="white" stroke-width="1.5"/>
<defs>
<linearGradient id="paint0_linear" x1="24.278" y1="0" x2="24.278" y2="61.585" gradientUnits="userSpaceOnUse">
<stop stop-color="#6575CE"/>
<stop offset="1" stop-color="#55B786"/>
</linearGradient>
</defs>
</svg>
