<svg width="60" height="60" viewBox="0 0 60 60" fill="none" xmlns="http://www.w3.org/2000/svg">
<path d="M53.6462 5.78488C49.5512 1.87809 44.1734 -0.125467 38.5031 0.140666C33.1925 0.390744 28.25 2.73098 24.5861 6.73024C20.9737 10.6732 18.9844 15.7959 18.9844 21.1547V28.3594H22.0988C23.0453 28.3594 23.8597 29.0868 23.9043 30.0323C23.9518 31.0417 23.1475 31.875 22.1484 31.875H18.9844V44.1326C18.9844 52.8174 26.05 59.8829 34.7346 59.8829C38.756 59.8829 42.499 57.8921 44.7469 54.5575C46.9948 51.2229 47.4361 47.0065 45.9275 43.2787C45.3275 41.7958 46.0293 40.1084 47.5017 39.4833C50.3603 38.2698 52.9325 36.4118 54.9982 34.0312C58.2237 30.3139 60 25.5529 60 20.6252C60 14.9641 57.7436 9.69367 53.6462 5.78488ZM52.0312 25.5283C50.6374 29.0541 47.824 31.8473 44.312 33.1918C43.4053 33.5386 42.3891 33.0851 42.042 32.1786C41.6948 31.2719 42.1485 30.2555 43.0552 29.9084C45.6493 28.9154 47.7293 26.8478 48.7617 24.2359C49.79 21.6344 49.6666 18.7818 48.4139 16.2039C46.8888 13.0657 43.7433 10.953 40.2043 10.6902C39.8114 10.6611 39.4269 10.6564 38.9943 10.6756C36.7611 10.7808 34.5851 11.736 32.8718 13.3648C31.7517 14.4296 30.9803 15.7639 30.575 17.2124C32.1131 16.01 34.0138 15.3516 35.9766 15.3516C40.8229 15.3516 44.7656 19.2944 44.7656 24.1407C44.7656 25.1114 43.9786 25.8985 43.0078 25.8985C42.037 25.8985 41.25 25.1114 41.25 24.1407C41.25 21.2329 38.8843 18.8672 35.9766 18.8672C33.4904 18.8672 31.3925 20.5628 30.8475 22.9509C31.0475 23.5035 31.3431 24.0745 31.6327 24.5961C32.5579 26.3071 33.0469 28.2398 33.0469 30.1848C33.0469 32.7106 32.2123 35.2143 30.6968 37.235C29.9452 38.2373 29.5312 39.479 29.5312 40.7317V42.8884C29.5312 44.4624 30.5698 45.4633 31.5417 45.8751C32.6939 46.3633 33.9 46.153 34.768 45.3127L34.8169 45.2646C35.5032 44.5782 36.6163 44.5782 37.3028 45.2646C37.9893 45.9511 37.9893 47.0641 37.3028 47.7505C37.2736 47.7797 37.2442 47.8086 37.2148 47.8371C35.9835 49.0292 34.4074 49.6516 32.7786 49.6516C31.9093 49.6516 31.0253 49.4744 30.1702 49.112C27.6464 48.0426 26.0156 45.5997 26.0156 42.8883V40.7316C26.0156 38.7232 26.6793 36.7323 27.8843 35.1256C28.9464 33.7095 29.5312 31.9548 29.5312 30.1848C29.5419 28.6489 29.0768 27.1444 28.301 25.8259C25.5745 20.7835 26.4581 14.6116 30.4496 10.8169C32.7748 8.60629 35.7524 7.30891 38.8338 7.1636C39.4057 7.13828 39.9374 7.14508 40.465 7.18422C45.2481 7.53942 49.5056 10.4069 51.576 14.6673C53.2645 18.1422 53.4261 21.9994 52.0312 25.5283Z" fill="url(#paint0_linear)"/>
<path d="M16.6406 28.3593C15.884 28.3593 15.2122 28.8434 14.9731 29.5613L14.2969 31.5897L12.4488 26.0457C11.9147 24.4431 9.64783 24.4431 9.11369 26.0457L7.26564 31.5897L6.58947 29.5613C6.35029 28.8434 5.67857 28.3593 4.92189 28.3593H1.80751C0.860992 28.3593 0.0465386 29.0867 0.00200733 30.0321C-0.0455708 31.0416 0.758804 31.8749 1.75783 31.8749H3.65486L5.59794 37.7042C6.13209 39.3067 8.39896 39.3067 8.9331 37.7042L10.7813 32.1601L12.6293 37.7042C13.1635 39.3067 15.4303 39.3067 15.9645 37.7042L17.9077 31.8749H18.9844V28.3593H16.6406Z" fill="url(#paint1_linear)"/>
<defs>
<linearGradient id="paint0_linear" x1="39.4922" y1="0.117187" x2="39.4922" y2="59.8829" gradientUnits="userSpaceOnUse">
<stop stop-color="#6578CA"/>
<stop offset="1" stop-color="#56B38B"/>
</linearGradient>
<linearGradient id="paint1_linear" x1="9.49219" y1="24.8438" x2="9.49219" y2="38.9061" gradientUnits="userSpaceOnUse">
<stop stop-color="#6578CA"/>
<stop offset="1" stop-color="#56B38B"/>
</linearGradient>
</defs>
</svg>
