<svg xmlns="http://www.w3.org/2000/svg" xmlns:xlink="http://www.w3.org/1999/xlink" id="Слой_1" x="0" y="0" version="1.1" viewBox="0 0 1912 809.7" xml:space="preserve"><style>.st2{opacity:.1}.st28{opacity:.55}</style><g opacity=".9"><defs><path id="SVGID_1_" d="M0-195h1942V899H0z"/></defs><clipPath id="SVGID_2_"><use overflow="visible" xlink:href="#SVGID_1_"/></clipPath><g clip-path="url(#SVGID_2_)" opacity=".7"><g class="st2"><linearGradient id="SVGID_3_" x1="1098.839" x2="784.505" y1="11718.064" y2="-13966.237" gradientTransform="matrix(1 0 0 -1 0 900)" gradientUnits="userSpaceOnUse"><stop offset="0" stop-color="#b0caf9"/><stop offset=".523" stop-color="#e7effd"/><stop offset="1" stop-color="#9fbef8"/></linearGradient><path fill="url(#SVGID_3_)" d="M1912.6 553.3L6.4 556.6v1.3l1906.5-3.5c-.1-.4-.2-.8-.3-1.1z" opacity=".1"/></g><g opacity=".135"><linearGradient id="SVGID_4_" x1="966.375" x2="949.859" y1="940.975" y2="-408.644" gradientTransform="matrix(1 0 0 -1 0 900)" gradientUnits="userSpaceOnUse"><stop offset="0" stop-color="#b0caf9"/><stop offset=".523" stop-color="#e7effd"/><stop offset="1" stop-color="#9fbef8"/></linearGradient><path fill="url(#SVGID_4_)" d="M1912.4 548.2c-23.5-.2-59.5 2.1-101.2 5.1-31.3 2.3-61 4.4-62.8 2.6-.7-.8-8.4-1.4-36.5-3.4-26.1-1.8-65.6-4.6-67.8-7-.6-8-23.7-13.8-68.9-17.2-74.8-5.6-204.1-3-205.6 4.2-.9 1.8-19.7 7.3-176.5 20.5-87.7 7.4-175.9 13.6-180.8 13.6h-.1c-3.2-.9-54-6.1-100.2-10.4-45.1-4.1-99.7-8.6-102.2-6.4-1.4.8-20.8 2.2-36.5 3.3-25.6 1.8-33.2 2.4-33.8 3.2-2.4 1.7-45.8-.7-108.4-5.9-57.9-4.8-107.1-10.1-109.2-11.5-.5-1-2.8-2.1-15.7-2.2-53.8-.5-271.1 20-273.8 24.2-2.1 2.6-38.8-.1-71.2-2.4-48.6-3.5-81-5.5-84-1.8-1.6.5-15 .9-22.2 1.2-6.5.2-8.2.3-8.5.4-1.9.4-37.6-.3-39.6-1.3l-.4.5-.6.2c.8 2.1 40.6 1.9 40.9 1.8.4-.1 4.2-.2 8.2-.3 19.1-.6 22.5-.9 23.1-1.6 2.5-3.5 47.2-.3 83 2.2 43.3 3.1 69.9 4.8 72.2 2 2.5-1.7 62.9-8.7 136.5-15.3 83-7.4 138.6-10.2 149.5-7.6 1.4.3 1.7.7 1.7.7.3.5.7 1.3 25.8 4.1 52.8 5.9 190.1 17.5 193.6 13.6 1.3-.7 18.2-1.9 33.2-2.9 28.7-2 36-2.7 37.2-3.6 2.3-1.4 40.5 1.1 101.9 6.7 49.2 4.5 97.7 9.6 99.6 10.3h.4c5.1 0 93.9-6.2 182.2-13.7 175-14.8 176-19.7 176.3-21.3 1.5-3 44.6-6.3 106.1-6.4 66.7-.1 121.8 3.4 147.9 9.5 15 3.5 18.2 7.2 18.4 9.7.1 2.7 20.4 4.6 68.7 8 17.7 1.3 34.4 2.4 35.8 3.1 1.9 1.9 20.2.8 63.6-2.3 31.9-2.3 73.9-5.3 101.1-5.1-.4-.4-.4-.7-.4-1.1z" opacity=".135"/></g><g opacity=".169"><linearGradient id="SVGID_5_" x1="965.112" x2="951.184" y1="850.582" y2="-287.412" gradientTransform="matrix(1 0 0 -1 0 900)" gradientUnits="userSpaceOnUse"><stop offset="0" stop-color="#b0caf9"/><stop offset=".523" stop-color="#e7effd"/><stop offset="1" stop-color="#9fbef8"/></linearGradient><path fill="url(#SVGID_5_)" d="M1912.1 543.1c-26.7-.8-67.2 4.9-102.5 9.9-32.4 4.6-63.2 9-65.8 5.1-1.3-1.5-13.6-3.4-35.3-6.6-24.9-3.7-66.8-9.8-67-14.7-1.2-26.4-66.4-35.3-105.3-38.3-73.3-5.7-163.6.7-165.9 11.8-1.5 7.6-64.2 22.4-173 40.9-85.4 14.5-174.3 27-182 27h-.2c-4.3-1.5-51.1-11.8-99.3-20.9-43.6-8.3-96.9-17.3-101.8-13-1.3 1.6-20.9 4.3-36.7 6.6-20.1 2.8-32.5 4.6-33.8 6.1-.8.9-5.5 2.1-27.5-.1-59.3-5.9-186.7-30.4-189.6-35.4-1.5-2.7-7.5-4.1-18.4-4.2h-1.5c-62.8 0-263.7 40.6-268.1 47.8-4.4 5.3-39.2.2-73-4.7-41-6-80-11.7-85.5-3.9-1.3 1-15.6 1.9-23.4 2.4-5.2.3-7.9.5-8.5.7-3.2.9-39.1-.7-40.9-2.6l-1.2.5c.2.6.8 2 20.7 3.1 9.2.5 20.1.7 21.8.2.5-.1 4.2-.4 8.2-.6 15.6-1 23.2-1.7 24.3-2.9 5.1-7.3 47.3-1.1 84.4 4.3 37.2 5.5 69.3 10.2 74.1 4.2 1.8-2.7 49.4-14.4 114.5-26.6 71.7-13.5 129.7-21.2 155.5-20.6 11.8.3 15.2 2.1 16.1 3.6 3.3 5.9 127.1 28.8 184 35.2 32.1 3.6 34.3 1.2 35.1.4 1.2-1.3 18.9-3.8 33.1-5.8 22.5-3.2 36.2-5.2 37.4-6.9 3.5-3 40.3 1.9 100.8 13.4 48.4 9.2 95.5 19.5 99.2 20.9h.5c7.8 0 96.7-12.5 182.2-27 78.6-13.3 171.8-31.3 173.9-41.8 1.9-9.4 89.4-16.7 164.7-10.9 66.6 5.1 103.5 18.4 104.4 37.3.3 5.4 28.4 9.9 67.9 15.7 16.5 2.4 33.6 4.9 34.7 6.2 2.8 4.2 26 1.1 66.7-4.7 33.9-4.8 75.4-10.7 102.4-9.9v-.2c-.4-.4-.4-.7-.4-1z" opacity=".169"/></g><g opacity=".204"><linearGradient id="SVGID_6_" x1="964.894" x2="951.316" y1="837.729" y2="-271.732" gradientTransform="matrix(1 0 0 -1 0 900)" gradientUnits="userSpaceOnUse"><stop offset="0" stop-color="#b0caf9"/><stop offset=".523" stop-color="#e7effd"/><stop offset="1" stop-color="#9fbef8"/></linearGradient><path fill="url(#SVGID_6_)" d="M1912.1 538.2c-27.1-1.6-68.3 7-104.2 14.6-34.7 7.3-64.7 13.6-68.7 7.6-1.8-2.2-14.1-5-34-9.6-27.8-6.3-66-14.9-66.4-22.6-2.1-44.8-85.2-56.2-121-59-69.4-5.5-143.9 4.1-146.9 19.1-2.4 11.8-62.6 33.5-170.7 61.4-85.8 22.1-171.7 40.3-181.9 40.3h-.3c-12.4-4.6-186.1-63-199.7-51.2-1.7 2.5-20.5 6.4-37.1 10-19.7 4.2-31.8 6.9-33.8 9-1.3 1.4-5.8 2.7-20.5 1-56.3-6.3-192-47-196.3-54.5-2.3-4-8.9-6.1-20.3-6.2h-1.1c-66-.1-258.9 61.3-265.1 71.3-6.7 8.1-41.2.4-74.7-7.1-38.6-8.6-78.8-17.6-87-5.9-1.4 1.6-16.5 3-24.5 3.7-4.9.5-7.7.7-8.5.9-5.1 1.5-41.3-1.2-42.4-4.1l-1.2.4c1.6 4.3 40 6 43.9 4.9.7-.2 4.2-.5 8.3-.9 12.9-1.2 23.7-2.3 25.4-4.2 7.8-11 47.5-2.2 85.8 6.4 35.4 7.9 68.7 15.4 75.9 6.6 2.6-4.2 49.2-21.5 111.4-39.4 33.1-9.5 113.2-31.4 152.7-31.3h1.1c10.8.1 17.3 2 19.3 5.6 5 9 143.6 49 197.1 55 12.3 1.4 19.3.9 21.4-1.4 1.8-2 18.5-5.6 33.2-8.7 21.6-4.6 35.9-7.8 37.7-10.3 12.8-11.2 187.3 47.3 198.5 51.5H1018.1c10.3 0 96.4-18.2 182.3-40.4 76.9-19.8 168.3-46.6 171.5-62.3 2.6-12.9 72.1-24 145.8-18.2 35.6 2.8 118 14 120.1 57.9.4 7.9 29.4 15.1 67.2 23.6 16.4 3.7 31.8 7.2 33.5 9.2 4.3 6.5 33.2.4 69.7-7.3 35.9-7.5 77.1-16.2 103.9-14.7-.1-.1 0-.4 0-.7z" opacity=".204"/></g><g opacity=".238"><linearGradient id="SVGID_7_" x1="964.956" x2="951.552" y1="831.215" y2="-264.003" gradientTransform="matrix(1 0 0 -1 0 900)" gradientUnits="userSpaceOnUse"><stop offset="0" stop-color="#b0caf9"/><stop offset=".523" stop-color="#e7effd"/><stop offset="1" stop-color="#9fbef8"/></linearGradient><path fill="url(#SVGID_7_)" d="M1912.5 533.8v-.5c-27.5-2.9-69.7 8.8-106.3 19-35.4 9.8-66.2 18.4-71.6 10.3-2.4-2.9-15.8-7-32.7-12.3-27.5-8.5-65.3-20.2-65.8-30.8-2.9-62.6-90.7-76.4-128.6-79.4-65.9-5.3-132.2 7.3-136 26.1-7.6 37.7-324.2 135.4-350.3 135.5h-.4c-2.7-1-10.1-4.3-20.2-8.8-48.5-21.6-163.2-72.6-178-59.6-2.4 3.4-21 8.7-37.5 13.4-15.9 4.6-31 8.9-33.7 11.9-1.5 1.6-5.7 3.3-17.6 2-51.6-5.8-192.3-61.9-198.7-73.3-3-5.3-10.4-8-22-8.2h-.9c-68-.2-254.3 82.2-262.1 94.8-8.9 10.9-43.2.6-76.4-9.4-38.1-11.5-77.6-23.4-88.5-8-2 2.2-16.9 4-25.8 5.1-4.3.5-7.4.9-8.4 1.2-5.4 1.6-42.3-1.3-43.9-5.6l-1.2.4c2.1 5.7 40.5 7.8 45.4 6.4.9-.3 4.3-.7 8.2-1.1 12.8-1.5 24.5-3.1 26.6-5.5 10.4-14.8 49.5-3 87.2 8.4 35.1 10.6 68.2 20.6 77.7 8.9 7.8-12.6 193.3-94.4 261.1-94.3h.9c11.2.1 18.3 2.7 21 7.6 6.5 11.6 147.8 68.1 199.6 73.9 10 1.1 16.1.4 18.5-2.3 2.5-2.7 18.1-7.2 33.1-11.5 18.3-5.2 35.5-10.2 38-13.8 14.2-12.4 128.4 38.4 176.7 59.9 10.2 4.6 17.6 7.8 20.3 8.9h.7c13.2-.1 98.8-24.6 182.3-53.7 61.6-21.5 164.6-60.6 169.1-82.8 3.6-17.9 70.7-30.3 134.9-25.2 37.6 3 124.8 16.7 127.7 78.4.6 11.4 37.2 22.7 66.6 31.8 16.1 5 30 9.3 32.2 11.9 5.8 8.6 35.3.4 72.6-9.9 36.5-10.2 78.7-21.9 105.9-19 .2-.4.2-.6.3-.8z" opacity=".238"/></g><g opacity=".273"><linearGradient id="SVGID_8_" x1="964.912" x2="951.613" y1="827.232" y2="-259.433" gradientTransform="matrix(1 0 0 -1 0 900)" gradientUnits="userSpaceOnUse"><stop offset="0" stop-color="#b0caf9"/><stop offset=".523" stop-color="#e7effd"/><stop offset="1" stop-color="#9fbef8"/></linearGradient><path fill="url(#SVGID_8_)" d="M1912.5 528.5c-27.7-4.4-69.9 10.1-108.1 23.3-36.2 12.5-67.6 23.3-74.5 13.1-2.9-3.5-15.4-8.4-31.2-14.7-27.2-10.8-64.7-25.7-65.4-39.3-1.4-30.8-15.9-55.3-43.2-72.9-28.6-18.5-64.3-24.8-89.3-26.9-62.7-5.2-124.4 10.5-128.9 32.9-4 20-64.2 57.2-166.1 102.4-85.4 37.9-167.2 66.9-181.9 66.9h-.5c-4.8-1.8-18.5-9.5-35.9-19.3-53.6-30.1-144.1-81-160.9-66.3-3 4.3-21.5 11-37.9 17-15.5 5.6-30.2 11-33.5 14.6-2.5 2.8-8.2 3.7-16.8 2.8-22.3-2.5-65.3-18.4-115.4-42.6-43.7-21.1-79.7-42.4-83.7-49.5-3.7-6.6-11.6-10-23.6-10.2h-.7c-39.4-.2-110.7 32.5-150.2 52.2-52.4 26.2-103.5 57.1-109 66-11.2 13.8-43.6 1.4-78-11.8-37.5-14.4-76.4-29.2-90-10-2.6 2.9-17.9 5.1-27.1 6.5-4 .6-7.1 1-8.3 1.4C45.1 566.3 9 562.4 7 557l-1.2.4c2.4 6.5 39.7 10 46.9 7.9 1.1-.3 4.2-.8 8.1-1.4C74 562 86 560 88.7 557c13.1-18.5 51.6-3.8 88.6 10.4 34.8 13.3 67.6 25.9 79.5 11.3 4.9-7.8 52.4-37.6 108.5-65.6 39.3-19.7 110.5-52.3 149.6-52.1h.7c11.6.2 19.2 3.4 22.6 9.6 4.1 7.4 39.6 28.4 84.2 50 50.2 24.3 93.3 40.2 115.7 42.7 9 1 14.9 0 17.7-3.1 3.1-3.4 18.4-9 33.1-14.3 17.3-6.3 35.2-12.8 38.4-17.3 16.1-14.1 109.7 38.6 159.5 66.6 18.1 10.2 31.2 17.6 36.1 19.4h.8c16.4-.1 104.3-32.4 182.3-67.1 60.2-26.7 161.1-75.3 166.7-103.2 4.3-21.5 66.7-37.1 127.8-32 24.9 2.1 60.4 8.3 88.9 26.7 26.9 17.4 41.3 41.6 42.7 72 .8 14.4 37 28.7 66.1 40.3 15.1 6 28.1 11.1 30.8 14.4 7.2 10.8 39-.1 75.5-12.7 38.2-13.1 80.4-27.6 107.8-23.3.2-.5.2-.9.2-1.2z" opacity=".273"/></g><g opacity=".308"><linearGradient id="SVGID_9_" x1="964.664" x2="951.435" y1="824.51" y2="-256.441" gradientTransform="matrix(1 0 0 -1 0 900)" gradientUnits="userSpaceOnUse"><stop offset="0" stop-color="#b0caf9"/><stop offset=".523" stop-color="#e7effd"/><stop offset="1" stop-color="#9fbef8"/></linearGradient><path fill="url(#SVGID_9_)" d="M1912.1 523.7c-28.2-5.9-71 11.6-109.5 27.4-37 15.1-69 28.3-77.3 15.9-3.4-4-14.9-9.6-29.6-16.8-27-13.2-64.2-31.3-65.1-48.1-1.8-37.6-16.7-67.4-44.4-88.5-29.1-22.2-65-29.4-90-31.5-60.4-5.1-118.4 13.5-123.7 39.8-7 34.6-116.5 97.3-163.8 122.9-79.2 42.9-163.6 80.1-181.9 80.3h-.7c-6.8-2.6-24-14.5-45.9-29.5-51.7-35.6-130.5-89.9-149.4-73.3-3.7 5.3-21.3 13.1-38.4 20.6-15.1 6.7-29.4 13-33.3 17.3-2.9 3.2-8.6 4.4-16.7 3.5-53.6-6-189.3-94.2-198.6-110.7-4.4-7.9-12.9-12-25.2-12.2h-.6c-39.9-.2-110 39.1-148.7 62.7-53.9 33-101.3 69-107.6 79-13.5 16.6-45.6 1.7-79.7-14.2-36.9-17.2-75.3-35-91.6-12-3.2 3.6-19.1 6.3-28.6 7.9-3.8.6-6.7 1.1-8.1 1.5-9 2.7-44.4-2.1-46.9-8.7l-1.2.4c3 8 39.8 12 48.4 9.4 1.3-.4 4.2-.9 7.9-1.5 10.3-1.8 25.8-4.4 29.3-8.4 15.7-22.2 53.6-4.6 90.1 12.4 34.5 16.1 67 31.2 81.2 13.8 6.2-10 53.5-45.8 107.2-78.7 38.5-23.6 108.4-62.7 148-62.5h.6c11.9.2 20 4.1 24.2 11.5 5 9 42.2 35.6 84.4 60.5 24 14.1 83 47.3 115.1 50.9 8.5 1 14.5-.3 17.7-3.9 3.7-4.1 17.9-10.4 32.9-17 17.2-7.6 35-15.5 38.8-20.9 18.2-15.9 96.6 38.1 148 73.5 22 15.2 39.3 27.1 46.2 29.7H1026.5c18.5-.1 103.1-37.4 182.4-80.4 47.4-25.7 157.2-88.6 164.3-123.7 5.1-25.3 63.7-43.8 122.6-38.8 30.3 2.5 128.8 18.6 133.5 118.9.9 17.5 36.9 35 65.7 49 14 6.8 26.1 12.7 29.3 16.5 8.7 13 41.1-.3 78.4-15.6 38.5-15.8 81.2-33.3 109.2-27.3.2-.3.2-.7.2-1.1z" opacity=".308"/></g><g opacity=".342"><linearGradient id="SVGID_10_" x1="964.638" x2="951.458" y1="822.512" y2="-254.351" gradientTransform="matrix(1 0 0 -1 0 900)" gradientUnits="userSpaceOnUse"><stop offset="0" stop-color="#b0caf9"/><stop offset=".523" stop-color="#e7effd"/><stop offset="1" stop-color="#9fbef8"/></linearGradient><path fill="url(#SVGID_10_)" d="M1912.1 519.2c-28.8-7.9-72.3 12.7-111.3 31.2-37.7 17.9-70.4 33.4-80.1 18.8-3.7-4.4-14.4-10.6-27.8-18.5-26.9-15.7-63.9-37.2-65-57.3-2.1-44.4-17.2-79.4-45.1-104.2-29.2-25.9-65.1-33.9-90-36.1-57.6-5-113.7 16.8-119.7 46.5-5.8 28.5-65.8 81.9-161.4 143.4-79 50.8-161.8 93.4-181.9 93.5h-.7c-8.6-3.3-29.2-20.2-52.9-39.8-50.3-41.5-119.7-98.7-140.9-80.3-4.4 6.3-22 15.4-39 24.3-14.7 7.7-28.6 14.9-33 19.9-3.3 3.7-9.1 5.1-17.1 4.2-52.9-5.9-186.1-108.5-197.8-129.4-5.1-9.2-14.1-13.9-26.7-14.1h-.5c-70.5-.4-238.3 141.1-253.3 165.2-15.8 19.4-47.6 2-81.3-16.6-36.4-20-74.2-40.8-93.1-14-3.9 4.3-20.3 7.5-30 9.4-3.5.7-6.3 1.2-7.8 1.7-10.3 3-45.5-2.3-48.4-10.2l-1.2.4c3.4 9.1 40.3 13.8 49.9 11 1.4-.4 4.2-.9 7.7-1.6 10.6-2.1 26.6-5.1 30.8-9.8 18.3-25.9 55.6-5.4 91.5 14.3 34.2 18.8 66.4 36.5 82.9 16.2 15-24.1 182.2-165.1 252.3-164.7h.5c12.2.2 20.8 4.8 25.7 13.5 11.8 21 145.6 124 198.7 129.9 8.4.9 14.4-.6 18-4.6 4.3-4.8 18.1-12 32.7-19.6 17.1-9 34.8-18.2 39.3-24.6 20.4-17.7 89.4 39.2 139.4 80.4 24.9 20.6 44.6 36.7 53.3 40h1c20.6-.1 102-41.9 182.5-93.7 46.2-29.7 153.6-102.7 161.9-144.2 5.9-29.2 61.5-50.6 118.6-45.6 30.3 2.6 128.6 20.3 134.2 139.2 1.1 20.8 38.4 42.5 65.5 58.3 12.9 7.5 24 14 27.6 18.2 10.2 15.2 43.2-.4 81.3-18.5 39-18.5 82.6-39.1 111-31.1-.3-.2-.3-.6-.3-1z" opacity=".342"/></g><g opacity=".377"><linearGradient id="SVGID_11_" x1="964.751" x2="951.61" y1="820.964" y2="-252.822" gradientTransform="matrix(1 0 0 -1 0 900)" gradientUnits="userSpaceOnUse"><stop offset="0" stop-color="#b0caf9"/><stop offset=".523" stop-color="#e7effd"/><stop offset="1" stop-color="#9fbef8"/></linearGradient><path fill="url(#SVGID_11_)" d="M1912.5 515.3v-.3c-29.3-10.5-73.8 13.4-113.5 34.8-38.4 20.6-71.7 38.6-82.9 21.8-4-4.7-14.1-11.6-25.8-19.6-26.9-18.3-63.8-43.4-65.1-67.1-2.4-51.3-17.7-91.5-45.6-119.8-29.2-29.6-64.8-38.5-89.5-40.6-56.1-4.9-109.6 19.5-116.5 53.3-6.7 33-65.9 94.1-159.1 164-80.1 60-159.5 106.7-181.9 106.8h-.8c-10.5-4-32.6-25.4-58.2-50.2-49.2-47.7-110.8-107.5-134.2-87.1-5.1 7.3-22.7 17.9-39.7 28.3-14.2 8.6-27.6 16.7-32.6 22.2-3.7 4.1-9.6 5.8-17.6 4.9-31.1-3.5-84.1-43.4-113.1-67-42.1-34.2-77.3-69.5-83.7-81-5.9-10.5-15.4-15.9-28.2-16.1h-.5c-38.9-.3-100.4 45.1-145.5 83.6-51.2 43.7-96.4 91.5-104.8 105.1-18.1 22.3-49.6 2.3-83-19-35.9-22.8-73.1-46.5-94.7-15.9-4.6 5.1-21.5 8.7-31.7 10.9-3.3.7-5.8 1.3-7.4 1.7-11.6 3.2-46.5-2.8-49.9-12l-1.2.5C9.7 568 46.2 573.2 57.2 570c1.5-.4 4-1 7.3-1.7 11-2.4 27.5-5.9 32.4-11.4 20.9-29.6 57.7-6.3 93 16.2 33.9 21.5 65.7 41.8 84.6 18.7C283 578.2 328 530.6 379.1 487c44.9-38.3 106.2-83.6 144.7-83.3h.5c12.4.2 21.6 5.4 27.2 15.5 13.4 23.9 142.9 142.4 197.7 148.5 8.3.9 14.5-.8 18.5-5.2 4.9-5.4 18.2-13.5 32.3-22 17.1-10.4 34.8-21.1 40-28.5 22.5-19.6 83.7 39.8 132.6 87.1 25.8 25 48 46.5 58.7 50.5h1.1c22.6-.2 102.3-47 182.6-107.1 93.5-70 152.8-131.4 159.6-164.7 6.7-33.3 59.7-57.3 115.3-52.4 30 2.6 127.7 21.9 134.2 159.3 1.3 24.3 38.5 49.6 65.6 68 11.7 7.9 21.7 14.8 25.6 19.4 11.7 17.5 45.4-.6 84.1-21.5 39.7-21.4 84.2-45.3 113.1-34.6v-.7z" opacity=".377"/></g><g opacity=".411"><linearGradient id="SVGID_12_" x1="964.271" x2="951.159" y1="819.729" y2="-251.656" gradientTransform="matrix(1 0 0 -1 0 900)" gradientUnits="userSpaceOnUse"><stop offset="0" stop-color="#b0caf9"/><stop offset=".523" stop-color="#e7effd"/><stop offset="1" stop-color="#9fbef8"/></linearGradient><path fill="url(#SVGID_12_)" d="M1911.5 511.5v-.2c0-.3 0-.6.1-1-29.9-12.3-74.7 14.6-114.5 38.6-39.1 23.5-72.9 43.8-85.7 24.8-4.2-4.9-13.1-11.9-23.5-20-27-21-64-50-65.5-77.6-2.7-58.1-18.1-103.7-45.9-135.4-29.1-33.4-64.3-43-88.7-45.2-53.9-4.8-106.2 22.6-113.7 60-7.6 37.8-66 106.5-156.8 184.5-79.8 68.5-157.6 119.9-181.9 120.1h-.9c-12.4-4.7-35.5-30.6-62.2-60.7-45.8-51.5-103.2-116-128.7-93.8-5.9 8.4-23.5 20.6-40.7 32.4-13.6 9.4-26.4 18.3-31.9 24.3-4.1 4.6-10.3 6.4-18.2 5.5-54.6-6.1-180.7-139.6-195.8-166.5-6.6-11.8-16.6-17.9-29.8-18.1h-.5c-39.4-.3-99.8 50.8-143.9 94.1-50.5 49.6-94.3 103.3-103.5 118.1-20.5 25.1-51.5 2.5-84.6-21.4-25.4-18.4-51.6-37.5-73.4-33.7-9 1.6-16.4 6.7-22.8 15.8-5.3 5.9-22.9 10.1-33.4 12.5-2.8.7-5.3 1.2-6.8 1.7C45.9 574 10.8 567.5 7 557l-1.2.4c4.1 11.2 39.8 17.9 52.9 14 1.5-.4 3.9-1 6.7-1.7 10.7-2.5 28.5-6.7 34.1-13 6.2-8.8 13.4-13.8 22.1-15.3 21.2-3.7 47.3 15.2 72.5 33.5 32.1 23.2 65.1 47.2 86.3 21.1 9.2-14.8 52.8-68.4 103.3-117.9 43.9-43.1 104.1-94 143.1-93.7h.5c12.7.2 22.4 6.1 28.8 17.5 15.1 27 141.7 161 196.6 167.1 8.3.9 14.8-1.1 19.2-5.9 5.4-5.9 18.2-14.8 31.7-24.2 17.2-11.9 34.9-24.2 40.8-32.6 24.6-21.5 81.6 42.6 127.1 93.8 26.9 30.3 50.1 56.4 62.8 61.1h1.2c24.5-.2 102.6-51.7 182.6-120.4 91-78.2 149.5-147.1 157.2-185.2 7.4-36.9 59.2-63.9 112.6-59.1 29.7 2.7 126.3 23.4 133.7 179.5 1.5 28.2 38.8 57.3 65.9 78.5 10.3 8.1 19.3 15 23.3 19.8 13.2 19.7 47.5-.9 86.9-24.6 39.7-23.7 84.4-50.6 113.8-38.2z" opacity=".411"/></g><g opacity=".446"><linearGradient id="SVGID_13_" x1="964.462" x2="951.374" y1="818.7" y2="-250.769" gradientTransform="matrix(1 0 0 -1 0 900)" gradientUnits="userSpaceOnUse"><stop offset="0" stop-color="#b0caf9"/><stop offset=".523" stop-color="#e7effd"/><stop offset="1" stop-color="#9fbef8"/></linearGradient><path fill="url(#SVGID_13_)" d="M1912.1 507.1c-.1-.3-.1-.5-.2-.8-.5-.3-1-.5-1.5-.8-30.5-13.7-75.3 16-115.2 42.4-39.7 26.3-74.2 49.2-88.4 28-4.2-4.9-11.9-11.7-20.8-19.6-25.7-22.6-64.6-57-66.3-89-3-65-18.5-115.8-46-151-28.9-37.1-63.6-47.5-87.7-49.7-52.8-4.8-102.9 25.1-111.3 66.8-10.2 50.3-86.2 138.6-154.5 205-79.5 77.3-155.7 133.2-181.9 133.4h-1c-14.3-5.4-39.1-37.4-65.4-71.4-37.1-47.9-79.4-102.6-108.4-105.4-6-.6-11.2 1.1-15.7 5-6.7 9.5-24.6 23.5-41.9 37-12.9 10-25 19.5-30.9 26-4.6 5-10.9 7.1-18.9 6.2-56.8-6.4-178.3-156-194.6-185.1-7.3-13.1-17.8-19.9-31.2-20.1h-.4c-76.7-.7-226.8 207.3-244.4 235.6-22.8 27.9-53.5 2.8-86.2-23.9-24.5-20-50-40.8-72.2-37.6-9.8 1.4-18.2 7.2-25.6 17.7-6.2 6.8-24.4 11.5-35.4 14.2-2.4.6-4.6 1.2-6.1 1.6-13.9 4.3-48.6-2.5-53-14.6l-1.2.4c4.7 12.8 39.9 19.8 54.4 15.5 1.5-.4 3.6-1 6-1.6 11.1-2.8 29.6-7.5 36-14.7 7.2-10.2 15.3-15.9 24.8-17.3 21.7-3.2 46.9 17.4 71.3 37.3 31.7 25.9 64.4 52.6 88 23.6 17.6-28.3 167.2-235.8 243.4-235.1h.4c13 .3 23.2 6.8 30.3 19.5 16.3 29.2 138.3 179.3 195.5 185.7 8.4 1 15.1-1.3 19.9-6.6 5.8-6.4 17.9-15.9 30.8-25.9 17.4-13.6 35.4-27.6 42.1-37.2 4.2-3.6 9.2-5.2 14.8-4.6 28.4 3 70.5 57.4 107.5 105.2 27.6 35.6 51.4 66.3 66 71.8h1.4c26.9-.2 101.7-55 182.6-133.7 68.4-66.5 144.6-155.1 154.8-205.6 4-19.7 17.7-37.4 38.6-50 21-12.6 46.4-18.2 71.6-15.9 29.2 2.7 124.6 24.9 132.8 199.7 1.7 32.5 40.9 67.1 66.7 89.8 8.9 7.8 16.6 14.6 20.6 19.4 14.8 22 49.6-1.1 89.7-27.7 39.6-26.3 84.2-55.9 114.3-42.3.7.3 1.3.6 2 1-.1-.2 0-.4 0-.6z" opacity=".446"/></g><g opacity=".481"><linearGradient id="SVGID_14_" x1="964.481" x2="951.411" y1="817.828" y2="-250.059" gradientTransform="matrix(1 0 0 -1 0 900)" gradientUnits="userSpaceOnUse"><stop offset="0" stop-color="#b0caf9"/><stop offset=".523" stop-color="#e7effd"/><stop offset="1" stop-color="#9fbef8"/></linearGradient><path fill="url(#SVGID_14_)" d="M1912.1 503.2c0-.2 0-.4.1-.6v-.1c-1.6-.9-3.2-1.8-4.8-2.5-30.9-13.1-75 18.7-114 47-38.7 28-75.4 54.6-91.2 31.1-3.9-4.6-10.2-10.8-17.4-17.9-26.1-25.7-65.8-64.6-67.8-101.6-3.4-71.9-18.8-127.9-46-166.7-28.6-40.8-62.8-52-86.5-54.2-50.9-4.7-100 28.2-109.2 73.5-11.4 56.4-85.8 153.2-152.2 225.5-79.1 86.3-153.6 146.4-181.9 146.7h-1.1c-16.2-6.1-41.3-43-67.9-82.1-34.5-50.7-73.7-108.4-102.9-112.2-6.4-.8-12.2 1-17.3 5.4-7.7 10.9-26.9 27.7-43.9 42.4-11.9 10.4-23.1 20.2-29.3 26.9-5 5.5-11.6 7.8-19.7 6.9-56.5-6.3-172.6-166.4-193.4-203.7-8-14.4-19-21.8-32.7-22.1h-.4c-76.1-.8-214.3 215.3-241.5 259-6.7 8.2-14 12.6-22.3 13.3-20.1 1.7-43.2-19.3-65.5-39.6-23.8-21.6-48.5-44.1-71.1-41.4-10.6 1.2-19.8 7.7-28.2 19.6-7 7.8-26.1 12.9-37.5 16-2 .5-3.8 1-5.1 1.4-16.2 4.9-49.8-3.6-54.4-16.2l-1.2.4c5.3 14.2 40.4 21.6 55.9 17.1 1.4-.4 3.1-.9 5.1-1.4 11.5-3.1 30.8-8.3 38.1-16.4 8.2-11.7 17.2-17.9 27.4-19.1 22.1-2.6 46.6 19.6 70.1 41.1 23.6 21.5 45.8 41.7 66.4 39.9 8.6-.7 16.2-5.2 23.2-13.8 11.6-18.6 52.9-83.9 100.8-144 60.8-76.5 107.7-114.8 139.7-114.5h.4c13.2.3 23.9 7.5 31.7 21.5 21 37.3 137.5 197.9 194.4 204.2 8.5 1 15.4-1.5 20.7-7.3 6.1-6.7 17.3-16.5 29.2-26.8 17-14.8 36.3-31.6 44-42.6 4.8-4.1 10.3-5.8 16.3-5C897.9 494 937 551.5 971.3 602c26.7 39.3 51.9 76.4 68.5 82.5h1.5c33.3-.3 115.6-73.9 182.6-147 66.5-72.5 141-169.5 152.4-226.1 9.1-44.7 57.7-77.2 108.1-72.6 28.8 2.7 122.6 26.4 131.6 219.8 2 37.4 41.8 76.6 68.1 102.4 7.2 7.1 13.5 13.2 17.3 17.8 16.3 24.3 53.4-2.6 92.5-30.9 38.8-28.1 82.6-59.8 113.1-46.9 1.7.7 3.4 1.6 5 2.6 0 0 .1-.2.1-.4z" opacity=".481"/></g><g opacity=".515"><linearGradient id="SVGID_15_" x1="964.519" x2="951.465" y1="817.077" y2="-249.5" gradientTransform="matrix(1 0 0 -1 0 900)" gradientUnits="userSpaceOnUse"><stop offset="0" stop-color="#b0caf9"/><stop offset=".523" stop-color="#e7effd"/><stop offset="1" stop-color="#9fbef8"/></linearGradient><path fill="url(#SVGID_15_)" d="M1912.3 500v-1.1c-2.5-1.8-5.1-3.2-7.9-4.4-31.3-12.6-74.6 21.4-113 51.5-39.3 30.8-76.6 60.1-93.9 34.3-3.3-3.9-7.9-8.8-13.1-14.5-25.3-27.2-67.9-73.1-70.2-116-3.7-78.8-19.2-140.1-46-182.3-28.3-44.5-61.9-56.5-85.2-58.7-24-2.3-48.4 4.8-68.6 20-20.1 15.1-33.9 36.5-38.7 60.2-10.5 51.7-69 148-149.8 246.1-65.5 79.5-146.9 159.6-181.8 159.9h-1.3c-18.1-6.8-43.2-48.6-69.8-92.9-33.7-56.1-68.6-114.3-98-119-6.8-1.1-13.1.8-18.8 5.8-8.9 12.7-29.2 32.2-47.2 49.5-10.4 10-20.2 19.5-26.3 26.1-5.4 5.9-12.3 8.5-20.5 7.5-59.2-6.6-173.4-188.8-192.1-222.2-8.8-15.8-20.5-24-34.6-24.1-30-.3-71.8 35-124.4 105.4-43 57.5-82 123.2-103 158.6-4.8 8.1-8.6 14.4-11.1 18.5-7.6 9.3-15.5 14.1-24.4 14.6-20.7 1.2-43.1-21.4-65-43.4-23.1-23.2-47-47.3-70.1-45.2-11.3 1-21.4 8.1-30.8 21.5-8 8.9-28.7 14.7-39.8 17.9-1.5.4-2.8.8-4 1.1-17.1 5-50.7-3.8-55.9-17.8l-1.2.4c5.5 14.8 39.4 23.9 57.4 18.6 1.1-.3 2.4-.7 3.9-1.1 11.3-3.2 32.2-9 40.5-18.3 9.3-13.1 19.1-20 29.9-21 22.5-2.1 46.2 21.8 69.1 44.8 21.5 21.6 43.6 43.9 64.4 43.8.5 0 1 0 1.5-.1 9.3-.6 17.5-5.5 25.4-15.1 2.5-4.1 6.3-10.5 11.1-18.6 39-65.8 156.8-264.2 226.4-263.4 13.7.2 25 8.1 33.6 23.5 10.3 18.5 43.9 72.8 82 122.8 33.3 43.8 79.4 96.4 111 100 8.6 1 15.8-1.7 21.4-7.9 6-6.6 15.8-16.1 26.2-26.1 18-17.3 38.3-36.9 47.2-49.6 5.3-4.6 11.3-6.5 17.8-5.4 28.8 4.6 65.2 65.2 97.2 118.5 26.8 44.6 52 86.5 70.5 93.4H1043.9c15.7-.2 42-16.3 76.1-46.7 31.9-28.5 69.7-68.8 106.6-113.6 80.9-98.2 139.6-194.7 150.1-246.6 9.8-48.4 57.5-83.9 106.1-79.3 28.2 2.7 120.3 27.8 130.3 239.9 2.3 43.4 45.1 89.4 70.5 116.7 5.2 5.7 9.8 10.5 13 14.4 17.9 26.6 55.6-3 95.3-34.2 38.2-30 81.2-63.7 112.1-51.4 2.9 1.2 5.6 2.7 8.2 4.6.1.3.1.2.1.1z" opacity=".515"/></g><g class="st28"><linearGradient id="SVGID_16_" x1="964.418" x2="951.379" y1="816.419" y2="-249.029" gradientTransform="matrix(1 0 0 -1 0 900)" gradientUnits="userSpaceOnUse"><stop offset="0" stop-color="#b0caf9"/><stop offset=".523" stop-color="#e7effd"/><stop offset="1" stop-color="#9fbef8"/></linearGradient><path fill="url(#SVGID_16_)" d="M1912.2 495.3c-3.3-2.7-6.9-4.7-10.6-6.2-31.7-12-72.5 22.4-112.2 55.9-31.1 26.3-60.6 51.2-81 48.2-6.3-.9-11.3-4.4-15.6-10.6-2.1-2.5-4.5-5.3-7.2-8.4-24.9-28.7-71.5-82.4-74.2-133-4-85.7-19.4-152.3-45.9-198-27.9-48.2-60.9-60.9-83.8-63.2-48.3-4.6-94.7 33.5-105.5 86.9-11.6 57.2-69.3 161.6-147.5 266.6-78.2 105-149.4 172.8-181.9 173.2h-1.3c-20.1-7.5-45-54.2-71.4-103.7-31.4-58.9-64.1-120.1-93.6-125.7-7.2-1.4-13.9.7-20.2 6.2-11.1 15.7-35.1 41.1-54.5 61.5-7.7 8.1-14.3 15-19.2 20.5-5.8 6.4-13 9.1-21.3 8.2-38.9-4.3-106.4-89.3-190.6-240.4l-.2-.4c-9.6-17.2-21.7-26-36.1-26.1h-.6c-66.9.3-166.3 181.6-214.5 269.4-9.1 16.5-16.2 29.6-20.5 36.4-8.4 10.3-17.1 15.5-26.5 15.9h-.8c-20.9.1-42.6-23.9-63.6-47.1-21.8-24.1-44.4-49-67.1-49-.7 0-1.4 0-2.1.1-11.9.8-22.8 8.5-33.3 23.3-9.2 10.2-30.9 16.5-42.6 19.9l-2.4.7C46.1 581.8 12.7 572.5 7 557l-1.2.4c6 16.3 39.8 25.7 58.9 20.1l2.4-.7c11.8-3.4 33.7-9.8 43.2-20.3 10.3-14.6 20.9-22 32.4-22.8 22.9-1.5 45.9 23.9 68.2 48.5 21.5 23.8 43.8 48.3 65.4 47.5 9.8-.4 18.8-5.7 27.5-16.4 4.3-6.9 11.5-20 20.5-36.5 24.1-43.9 60.4-110.1 99.8-166.7 47.1-67.7 85.3-101.9 113.7-102.1h.6c13.9.2 25.7 8.8 35.1 25.5l.2.4c84.5 151.4 152.3 236.6 191.5 241 8.7 1 16.2-1.9 22.3-8.6 4.9-5.4 11.5-12.4 19.2-20.5 19.4-20.4 43.5-45.8 54.5-61.5 6-5.2 12.3-7.1 19.2-5.8 29 5.5 61.5 66.4 92.8 125.1 26.6 49.8 51.6 96.7 72.1 104.3h1.7c39.6-.4 123.1-93.7 182.7-173.7 78.3-105.1 136.1-209.7 147.7-267.1 10.7-52.9 56.6-90.7 104.4-86 27.6 2.7 118 29.3 128.8 260.1 2.7 51 49.5 104.9 74.5 133.8 2.7 3.1 5.1 5.9 7.1 8.3 4.3 6.3 9.7 10 16.2 11 20.9 3 50.5-22 81.8-48.4 39.4-33.3 80-67.6 111.2-55.7 3.8 1.5 7.5 3.6 10.8 6.4-.1-.4-.1-.8 0-1.3z" opacity=".55"/></g><g opacity=".585"><linearGradient id="SVGID_17_" x1="964.358" x2="951.33" y1="815.833" y2="-248.658" gradientTransform="matrix(1 0 0 -1 0 900)" gradientUnits="userSpaceOnUse"><stop offset="0" stop-color="#b0caf9"/><stop offset=".523" stop-color="#e7effd"/><stop offset="1" stop-color="#9fbef8"/></linearGradient><path fill="url(#SVGID_17_)" d="M1912.1 491.9c-4.1-3.7-8.5-6.4-13.2-8.1-32-11.5-72.3 24.9-111.4 60.2-31.3 28.3-61 55.2-82.3 52.4-6.8-.9-12.3-4.6-17-11.5-18.8-22.2-76.2-90-79.5-152.3-4.3-92.6-19.7-164.5-45.8-213.6-27.5-51.9-59.9-65.4-82.3-67.6-46.6-4.6-92.3 36.5-103.8 93.6-12.6 62.2-70.7 177.2-145.2 287.1-61 90-140.6 186-181.8 186.5h-1.5c-22-8.2-46.5-59.8-72.6-114.7-29.4-61.8-59.9-125.9-89.6-132.3-7.5-1.6-14.7.6-21.6 6.5-16.4 23.3-54.2 66.4-74 88.2-6.3 6.9-13.8 9.9-22.5 8.8-54.7-6.7-140.7-168.2-177.6-237.7-4.9-9.2-8.8-16.5-11.6-21.6-10.6-19-23.6-28.5-38.8-28.1-64.8 1.4-154.9 179.9-203.7 276.5-12.3 24.4-22 43.6-27.7 52.8-9.2 11.4-18.6 17-28.6 17.1h-.2c-21.5.1-43-25.7-63.8-50.8-21.5-25.9-43.7-52.7-66.9-52.7h-1.4c-12.5.6-24.2 8.8-35.7 25.1-10.5 11.7-34.3 18.7-45.7 22l-.5.1C46.6 583.6 13.3 574.1 7 557l-1.2.4c6.5 17.6 40.7 27.4 60.4 21.6l.5-.1c11.6-3.4 35.6-10.5 46.4-22.5 11.3-16 22.7-24.1 34.8-24.7 23.1-1.1 45.7 26 67.4 52.2 21 25.3 42.6 51.4 64.7 51.3h.3c10.4-.2 20-5.9 29.6-17.6 5.8-9.3 15.5-28.6 27.8-52.9 48.7-96.4 138.5-274.4 202.7-275.8 14.8-.3 27.4 8.9 37.8 27.5 2.8 5 6.7 12.3 11.6 21.6 37.1 69.6 123.2 231.5 178.5 238.3 9 1.1 16.9-2 23.4-9.2 19.8-21.8 57.6-64.9 74-88.2 6.6-5.7 13.3-7.8 20.5-6.2 29.1 6.3 59.5 70.2 88.8 131.7 26.2 55.1 50.9 107 73.3 115.3h1.9c41.6-.5 121.6-96.8 182.7-187 74.6-110 132.8-225.2 145.4-287.5 11.4-56.6 56.7-97.3 102.7-92.7 22.2 2.2 54.2 15.6 81.5 67.1 26 49 41.3 120.7 45.7 213.1 3.3 62.7 60.9 130.8 79.7 153 4.7 7 10.6 11 17.6 11.9 21.7 2.7 51.6-24.2 83.1-52.7 38.9-35.2 78.9-71.3 110.4-60 4.8 1.7 9.2 4.5 13.3 8.3-.3-.5-.3-.9-.2-1.3z" opacity=".585"/></g><g opacity=".619"><linearGradient id="SVGID_18_" x1="964.45" x2="951.432" y1="815.306" y2="-248.349" gradientTransform="matrix(1 0 0 -1 0 900)" gradientUnits="userSpaceOnUse"><stop offset="0" stop-color="#b0caf9"/><stop offset=".523" stop-color="#e7effd"/><stop offset="1" stop-color="#9fbef8"/></linearGradient><path fill="url(#SVGID_18_)" d="M1912.3 488.9c-4.9-5-10.3-8.6-16-10.5-32.3-11-72.1 27.3-110.8 64.5-31.6 30.3-61.5 59.1-83.6 56.7-7.2-.8-13.2-4.8-18.3-12.4-12.2-14.4-73.7-90.5-77.5-163.3-4.7-99.6-20-176.7-45.6-229.3-27.1-55.6-58.8-69.9-80.8-72.1-22.1-2.2-44.8 7-63.9 25.9-18.8 18.7-32.4 45.1-38.4 74.5-13.8 68.4-71.1 191.7-142.9 307.6-77.2 124.6-145.1 199.3-181.8 199.7h-1.6c-24-8.9-48-65.5-73.6-125.6-27.5-64.7-56-131.8-85.9-138.9-7.8-1.9-15.4.4-22.9 6.9-18.2 25.8-54.6 72.8-74.3 94.5-6.8 7.5-14.8 10.7-23.7 9.5-52.5-7.2-130.4-163.8-168.1-239.5-8.4-16.9-15-30.2-19.5-38.2-11.5-20.6-25.3-30.7-40.8-30.1C479 271 397.3 447 348 552.9c-14.8 31.9-26.5 57.1-33.5 68.3-10 12.3-19.9 18.3-30.3 18.4h-.3c-22-.1-43.1-27.7-63.6-54.5-21.4-28-43.5-57-67.6-56.3-13.1.4-25.5 9.2-38 26.9-10.8 12-32.2 19.3-47.4 23.8-20.4 6-53.4-3.7-60.3-22.4l-1.2.4c7.1 19.2 40.9 29.3 61.9 23.1 15.3-4.5 37-11.9 48-24.2 12.3-17.5 24.4-26.1 37.1-26.5h.8c23.2 0 44.9 28.4 65.8 55.9 20.6 27 41.9 54.9 64.6 55h.3c10.8-.1 21-6.2 31.3-18.9 7.1-11.4 18.8-36.6 33.6-68.5 49.1-105.7 130.7-281.2 193.4-283.6 15.2-.6 28.5 9.4 39.8 29.5 4.4 7.9 11 21.3 19.4 38.1 40.7 81.8 115.9 232.9 168.9 240.2 9.3 1.3 17.6-2 24.7-9.8 20-22.1 55.8-68.2 74.3-94.5 7.1-6.2 14.3-8.4 21.8-6.6 29.3 7 57.7 73.8 85.1 138.2 25.7 60.4 49.9 117.3 74.3 126.3h1.9c37.2-.5 105.4-75.3 182.8-200.3 71.9-116 129.2-239.5 143-308 11.9-59 52.8-100.9 96.2-99.8 1.6 0 3.3.1 4.9.3 21.7 2.2 53.1 16.4 79.9 71.5 25.6 52.5 40.8 129.4 45.5 228.8 3.9 73.2 65.6 149.5 77.8 164 5.2 7.7 11.6 12 19 12.8 22.6 2.5 52.7-26.5 84.4-57 38.5-37 78-75 109.8-64.3 5.9 2 11.4 5.7 16.4 11-.2-.3-.2-.8-.2-1.3z" opacity=".619"/></g><g opacity=".654"><linearGradient id="SVGID_19_" x1="964.324" x2="951.315" y1="814.83" y2="-248.098" gradientTransform="matrix(1 0 0 -1 0 900)" gradientUnits="userSpaceOnUse"><stop offset="0" stop-color="#b0caf9"/><stop offset=".523" stop-color="#e7effd"/><stop offset="1" stop-color="#9fbef8"/></linearGradient><path fill="url(#SVGID_19_)" d="M1912.2 485.7c-5.6-6.3-11.7-10.5-18.4-12.6-32.6-10.5-72 29.7-110.2 68.7-31.8 32.4-61.9 63.2-84.9 61-7.7-.7-14.2-5-19.7-13.3-28.4-33.5-72.1-107.8-75.6-174.3-5-106.5-20.3-188.9-45.4-245-26.6-59.3-57.7-74.3-79.2-76.5-44.1-4.5-87.5 41.5-100.8 107.1-15 73.9-72.6 208.5-140.6 328.2-35.2 61.9-70 114.2-100.5 151.1-34.8 42-62.7 62.8-83 61.8-25.9-9.6-50.5-74.1-74.3-136.6-25.7-67.5-52.4-137.6-82.5-145.4-8-2.1-16.1.3-24.1 7.3-2.8 3.9-5.8 8.3-9.2 13.1-19.8 28.3-46.9 67.2-65.4 87.6-7.3 8.1-15.7 11.5-25 10.1-51.2-8-119.3-155-160.3-243.5-11-23.8-19.7-42.6-25.5-52.9-12.3-22.2-26.7-33-42.8-32.1-62.3 3.3-136.7 176.9-186.2 292.5-16.8 39.2-30.1 70.3-38.3 83.5-10.9 13.4-21.6 19.8-32.5 19.6-22.5-.5-43.2-29.8-63.3-58.3-20.8-29.5-42.3-60-66.7-60h-.3c-13.6.1-26.8 9.5-40.3 28.7-9 10-25.3 18.5-48.6 25.4-23.2 6.8-55-5.4-61.8-23.9l-1.2.4c7.2 19.4 39.2 31.8 63.4 24.7 23.5-6.9 40-15.6 49.2-25.8 13.3-18.9 26.2-28.1 39.3-28.2h.3c23.7 0 45.1 30.3 65.7 59.5 20.2 28.7 41.1 58.2 64.2 58.8 11.3.2 22.3-6.3 33.5-20.1 8.3-13.4 21.6-44.4 38.4-83.7C406.2 434.1 483.4 254 544.9 250.7c15.5-.8 29.6 9.8 41.7 31.5 5.7 10.3 14.4 29.1 25.4 52.8 41.1 88.7 109.4 236.1 161.2 244 9.7 1.5 18.4-2 26-10.4 18.5-20.5 45.7-59.4 65.5-87.8 3.3-4.8 6.4-9.2 9.1-13 7.7-6.7 15.2-9 23-6.9 29.5 7.7 56.1 77.5 81.7 144.7 25 65.7 48.6 127.6 75 137.3h2.1c20.5-.3 48.2-21.3 82.1-62.3 30.6-37 65.4-89.3 100.6-151.3 68-119.7 125.7-254.5 140.7-328.5 13.2-65 56.1-110.6 99.6-106.2 68.5 7 114.6 126.8 123.7 320.4 3.6 66.8 47.4 141.3 75.9 174.9 5.7 8.5 12.4 12.9 20.4 13.7 23.4 2.2 53.7-28.7 85.7-61.3 38.1-38.8 77.2-78.7 109.3-68.4 6.8 2.2 13 6.6 18.7 13.1-.2-.3-.2-.8-.1-1.3z" opacity=".654"/></g><g opacity=".689"><linearGradient id="SVGID_20_" x1="964.19" x2="951.189" y1="814.395" y2="-247.876" gradientTransform="matrix(1 0 0 -1 0 900)" gradientUnits="userSpaceOnUse"><stop offset="0" stop-color="#b0caf9"/><stop offset=".523" stop-color="#e7effd"/><stop offset="1" stop-color="#9fbef8"/></linearGradient><path fill="url(#SVGID_20_)" d="M1911.5 482c-6.2-7.3-12.9-12.1-20.2-14.3-32.8-10-71.9 32-109.8 72.8-32 34.4-62.4 67.1-86.2 65.3-8.2-.6-15.1-5.3-21.1-14.2-28.2-33.3-69.9-113-73.7-185.2-5.3-113.5-20.5-201.2-45.2-260.6-26.1-63-56.6-78.8-77.5-81-21-2.2-42.6 8.4-61 29.8-18 21-31.6 50.8-38.4 84-16.4 81.1-73.1 224.2-138.2 348.7-74.9 143.2-141.1 225.7-181.9 226.2h-1.8c-27.9-10.3-51.7-80.1-74.8-147.7-24.1-70.4-49-143.4-79.3-151.9-8.3-2.3-16.8.2-25.3 7.7-6.4 9.1-14 20.7-22 33-17.4 26.6-37.1 56.7-52.8 74-7.9 8.7-16.7 12.3-26.3 10.7-50.5-8.4-115-158.1-153.8-248-13-30.2-23.3-54.1-30.3-66.6-13.2-23.7-28.2-35.2-44.6-34.1-61.5 4.1-132 182.3-178.9 301-18.4 46.5-32.9 83.2-42.3 98.4-11.7 14.5-23 21.2-34.4 20.8-22.9-.9-43.2-31.9-62.9-62-20.4-31.1-41.6-63.4-66.3-63.6h-.2c-14 0-27.8 10-42.3 30.5-13.1 14.5-36.8 23.1-49.8 27-24.4 7-55.8-5.6-63.2-25.7l-1.2.5c7.6 20.6 39.8 33.6 64.8 26.2 13.1-3.9 37-12.6 50.4-27.4 14.2-20.2 27.7-30 41.3-30h.2c24.1.2 45.1 32.2 65.3 63.1 19.9 30.3 40.4 61.6 63.9 62.5 11.8.5 23.4-6.5 35.4-21.3 9.5-15.3 24-52.1 42.4-98.6 46.8-118.4 117.1-296.2 177.8-300.2 16-1 30.6 10.2 43.5 33.5 6.9 12.4 17.2 36.3 30.2 66.5 41.4 96 103.6 240.3 154.7 248.7 10 1.7 19.2-2.1 27.3-11 15.8-17.4 35.5-47.6 52.9-74.2 8-12.3 15.6-23.9 21.9-32.8 8.3-7.2 16.2-9.6 24.2-7.3 29.7 8.4 54.6 81.1 78.5 151.2 23.2 67.9 47.2 138 75.5 148.4h2.1c41.2-.6 107.8-83.3 182.9-226.8 65.1-124.6 121.9-267.8 138.3-349 13.9-68.8 56.2-117.3 98.2-112.9 20.7 2.1 50.8 17.8 76.7 80.3 24.6 59.3 39.8 146.9 45.1 260.2 3.9 72.6 45.7 152.5 73.9 185.9 6.2 9.1 13.3 13.9 21.8 14.6 24.3 1.8 54.8-31 87-65.6 37.7-40.6 76.5-82.4 108.8-72.5 7.6 2.3 14.6 7.4 20.9 15.4 0-.9-.2-1.6-.2-2.4z" opacity=".689"/></g><g opacity=".723"><linearGradient id="SVGID_21_" x1="964.176" x2="951.182" y1="813.993" y2="-247.706" gradientTransform="matrix(1 0 0 -1 0 900)" gradientUnits="userSpaceOnUse"><stop offset="0" stop-color="#b0caf9"/><stop offset=".523" stop-color="#e7effd"/><stop offset="1" stop-color="#9fbef8"/></linearGradient><path fill="url(#SVGID_21_)" d="M1912 479.9c-7-9.2-14.6-15-23-17.4-33.1-9.6-71.8 34.2-109.4 76.8-32.3 36.5-62.8 71.2-87.5 69.6-8.6-.5-15.9-5.4-22.4-15-27.1-32-67.4-114.1-71.8-196.2-5.7-120.5-20.8-213.4-45-276.3-25.7-66.7-55.4-83.3-75.9-85.4-20.3-2.2-41.5 9.1-59.6 31.8-17.6 22.1-31.3 53.7-38.4 88.7-17.8 87.6-74.8 242.6-135.9 369.2-33.9 70.3-67.7 129.1-97.5 169.9-34.5 47.2-63.6 70.6-86.3 69.6-29.8-11-52.8-86-75.2-158.7-23.5-76.6-45.8-149.2-76.3-158.3-8.5-2.6-17.4.1-26.5 8-7.9 11.3-17 26.1-26.5 41.8-16.4 26.8-33.3 54.6-48.6 71.5-8.4 9.2-17.6 13-27.5 11.3-50-9-108.9-155.8-148.2-253.5-14.6-36.4-26.2-65.2-34.2-79.6-14-25.3-29.6-37.4-46.5-36.1-60.8 4.6-125 180.3-172.1 309.4-19.6 53.6-35.1 96.1-45.6 113.1-12.6 15.5-24.4 22.7-36.2 22-23.4-1.3-43.3-34-62.6-65.7-20-32.7-40.6-66.6-65.7-67.2h-.7c-14.3 0-28.7 10.6-44 32.3-14.4 16-38.1 24.7-51 28.5-25.5 7.5-57-5.6-64.9-27l-1.2.4c8.3 22.3 39.9 35.5 66.3 27.7 13-3.8 36.9-12.7 51.6-29 15.3-21.7 29.6-32.1 43.7-31.8 24.4.6 44.9 34.2 64.7 66.7 19.5 32 39.6 64.9 63.6 66.3 12.2.7 24.4-6.7 37.3-22.5 10.6-17.2 26.2-59.7 45.8-113.4C423.2 399.9 489.9 217.3 550 212.6c16.3-1.3 31.6 10.7 45.4 35.5 8 14.4 19.5 43.1 34.1 79.5 39.4 97.9 98.5 245.1 149 254.2 10.3 1.8 19.9-2.1 28.5-11.6 15.3-16.9 32.3-44.8 48.7-71.7 9.6-15.7 18.6-30.5 26.4-41.6 8.8-7.7 17.1-10.2 25.3-7.7 29.9 9 53.2 84.6 75.6 157.6 22.4 73.1 45.6 148.4 75.9 159.5H1061.2c22.8-.3 51.5-23.9 85.2-70.1 29.9-40.9 63.7-99.7 97.6-170.1 62.1-128.7 117.9-280.4 136-369.5 7.1-34.9 20.6-66.2 38.2-88.2 17.8-22.4 38.7-33.5 58.7-31.4 20.2 2.1 49.6 18.6 75 84.7 24.2 62.7 39.2 155.6 44.9 275.9 4.4 82.3 44.8 164.8 72 196.9 6.6 9.8 14.2 14.9 23.1 15.4 25.1 1.6 55.9-33.2 88.3-70 37.4-42.4 76-85.9 108.4-76.5 8.4 2.4 16 8.3 22.9 17.6.2-.3.3-.7.5-1.1z" opacity=".723"/></g><g opacity=".758"><linearGradient id="SVGID_22_" x1="964.111" x2="951.124" y1="813.622" y2="-247.555" gradientTransform="matrix(1 0 0 -1 0 900)" gradientUnits="userSpaceOnUse"><stop offset="0" stop-color="#b0caf9"/><stop offset=".523" stop-color="#e7effd"/><stop offset="1" stop-color="#9fbef8"/></linearGradient><path fill="url(#SVGID_22_)" d="M1911.6 476.7c-7.6-10.6-15.8-17.1-24.9-19.6-33.3-9.2-71.8 36.5-109.1 80.9-31.9 37.9-62.2 73.9-87.4 74h-1.4c-9.1-.4-16.8-5.6-23.8-15.9-30.8-36.3-65.4-123.8-69.9-207.2-6-127.5-21-225.8-44.7-292-25.2-70.4-54.2-87.7-74.2-89.9-40.1-4.4-80.8 49.1-96.6 127.2C1360 230.7 1304 394.3 1246 524c-42.5 95.2-123.4 255.5-183.9 252.7-31.8-11.7-53.9-92-75.4-169.8-22-79.6-42.8-155-73.5-164.8-8.7-2.8-18 0-27.6 8.4-9 12.8-18.7 29.8-28.9 47.9-15.3 26.9-31.1 54.7-46.5 71.6-8.9 9.8-18.6 13.8-28.7 11.8-49.7-9.6-103.6-153.6-143.2-259.3-15.2-40.7-28.4-75.9-37.5-92.2-14.9-26.8-31.1-39.6-48.3-38.1-60.3 5.5-121.3 185.9-166.1 318.3-19.7 58.4-36.8 108.9-48.5 127.7-13.4 16.5-25.8 24.1-38.1 23.2-23.8-1.7-43.4-36.1-62.4-69.4-19.5-34.3-39.8-69.9-65.2-70.9h-1.1c-14.6 0-29.6 11.1-45.7 34-16.3 18.1-41.9 27.1-52.1 30.1-26.8 8.2-57.8-5.1-66.3-28.2l-1.2.4c8.8 23.7 40.5 37.3 67.8 29.2 10.4-3.1 36.2-12.2 52.8-30.6 15.9-22.6 30.5-33.6 44.7-33.6h1.1c24.7 1 44.8 36.2 64.2 70.2 19.2 33.6 38.9 68.3 63.3 70 12.7.9 25.5-6.9 39.1-23.8 11.8-19 28.9-69.6 48.6-128C432.2 378.9 493 199 552.6 193.5c16.6-1.5 32.5 11.1 47.1 37.5 9 16.2 22.2 51.4 37.4 92 39.7 106 93.8 250.3 144.1 260 10.6 2 20.6-2.1 29.8-12.2 15.5-17.1 31.3-44.9 46.6-71.9 10.2-18 19.9-35 28.8-47.7 9.3-8.1 18-10.8 26.5-8.1 30.2 9.6 51.9 88.2 72.8 164 21.6 78.2 43.8 158.8 76.2 170.6H1064.3c60.9-.9 140.7-159.1 182.8-253.4 58-129.8 114.1-293.5 133.6-389.9 15.7-77.5 56-130.7 95.5-126.4 28.2 3 53.5 33.9 73.3 89.1 23.7 66.1 38.7 164.2 44.6 291.7 4.4 83.6 39.2 171.4 70.1 207.8 7.1 10.5 15.1 15.9 24.5 16.3h1.5c25.6-.1 56.1-36.3 88.2-74.4 37.2-44.1 75.4-89.5 108.2-80.5 9.3 2.6 17.8 9.4 25.5 20.7-.4-.5-.5-1.2-.5-2z" opacity=".758"/></g><g opacity=".792"><linearGradient id="SVGID_23_" x1="720.731" x2="707.749" y1="816.256" y2="-244.447" gradientTransform="matrix(1 0 0 -1 0 900)" gradientUnits="userSpaceOnUse"><stop offset="0" stop-color="#b0caf9"/><stop offset=".523" stop-color="#e7effd"/><stop offset="1" stop-color="#9fbef8"/></linearGradient><path fill="url(#SVGID_23_)" d="M1430.5.3c-.4 0-.7 0-1.1-.1-3.7 4.1-7.4 8.7-10.9 13.8-16.9 24.4-30.6 59.3-38.5 98.2-39.5 194.9-206.3 674.5-313.1 676.2h-2.2c-33.7-12.4-54.9-98-75.5-181-20.5-82.6-39.8-160.8-70.9-171.1-8.9-3-18.6-.1-28.7 8.8-9.9 14.1-19.9 32.9-30.5 52.8-14.5 27.3-29.5 55.6-45.2 73-9.4 10.4-19.5 14.6-29.9 12.4-49.5-10.2-101-157.4-138.8-265.4C629 271.6 615 231.6 605 213.5c-15.7-28.4-32.6-41.9-50-40.1-59.9 6.1-117.9 191.2-160.5 327.1-20.4 65.2-38.1 121.6-50.9 142.3-14.2 17.5-27.2 25.6-39.9 24.4-24.2-2-43.5-38.1-62.1-73.1-19.1-35.9-39-73.1-64.7-74.4-15.3-.8-31.4 10.9-48.9 35.8-17.6 19.4-43.1 28.5-53.2 31.5-27.7 8.2-58.8-5.5-67.8-30l-1.2.5c9.3 25 41 39.1 69.3 30.7 10.3-3 36-12.2 54-32.2 17.3-24.6 33-36 47.8-35.3 25 1.3 44.7 38.2 63.7 73.8 18.8 35.3 38.2 71.7 63.1 73.8 13 1.1 26.4-7.1 41-25 12.9-20.9 30.6-77.4 51.1-142.6C438.2 365.2 496 180.5 555.2 174.5c17-1.7 33.4 11.6 48.9 39.5 10 18.1 24 58 40.2 104.3 37.9 108.3 89.5 255.9 139.7 266.2 10.9 2.2 21.3-2.1 31-12.8 15.8-17.4 30.9-45.8 45.4-73.2 10.6-19.9 20.5-38.7 30.3-52.6 9.9-8.6 18.9-11.4 27.6-8.5 30.4 10.2 49.7 88.1 70.1 170.3 20.6 83.3 41.9 169.3 76.3 181.8h2.5c25.1-.4 54.8-26.6 88.3-77.8 29.7-45.4 61.5-109 94.6-188.8 61.9-149.2 112.8-319.3 131.3-410.4 7.9-38.8 21.5-73.6 38.3-97.8 3.8-5.4 7.6-10.2 11.5-14.4h-.7z" opacity=".792"/><linearGradient id="SVGID_24_" x1="1712.497" x2="1699.515" y1="804.118" y2="-256.585" gradientTransform="matrix(1 0 0 -1 0 900)" gradientUnits="userSpaceOnUse"><stop offset="0" stop-color="#b0caf9"/><stop offset=".523" stop-color="#e7effd"/><stop offset="1" stop-color="#9fbef8"/></linearGradient><path fill="url(#SVGID_24_)" d="M1911.8 474.6c-8.3-12.5-17.4-20-27.4-22.7-33.6-8.8-71.8 38.7-108.9 84.8-32.3 40.2-63 78.3-89 78.4h-1.1c-9.5-.3-17.7-5.8-25.1-16.8-33.6-39.7-63.5-135.5-67.9-218.1-6.3-134.6-21.2-238.1-44.4-307.7-10.7-32.2-23.1-56.6-36.8-72.5-.3 0-.6.1-.9.1h-.5c13.8 15.8 26.3 40.2 37.2 72.8 23.1 69.5 38 172.9 44.4 307.4 2.2 41.3 10.6 86.7 23.6 127.7 12.6 39.8 28.5 72.2 44.5 91.1 7.6 11.2 16 16.8 25.8 17.2h1.1c26.5-.2 57.3-38.5 89.8-78.8 36.9-45.9 74.9-93.1 107.9-84.5 10 2.6 19.1 10.3 27.4 23.2 0-.6.1-1.2.3-1.6z" opacity=".792"/></g><g opacity=".827"><linearGradient id="SVGID_25_" x1="1720.47" x2="1707.494" y1="803.696" y2="-256.582" gradientTransform="matrix(1 0 0 -1 0 900)" gradientUnits="userSpaceOnUse"><stop offset="0" stop-color="#b0caf9"/><stop offset=".523" stop-color="#e7effd"/><stop offset="1" stop-color="#9fbef8"/></linearGradient><path fill="url(#SVGID_25_)" d="M1912 474.1v-1.5c-9-14.6-18.9-23.2-29.8-26-33.8-8.4-71.8 40.8-108.8 88.7-32.7 42.4-63.8 82.7-90.6 82.8h-.8c-9.9-.2-18.5-6-26.4-17.6-33.2-39.2-61-135.5-66-229.1-6.7-141.7-21.5-250.4-44.1-323.4-5.8-18.6-12.1-34.7-18.7-48.2h-.4c-.3 0-.6 0-.8-.1 6.8 13.5 13.1 29.8 18.9 48.6 22.6 72.8 37.4 181.5 44.1 323.1 5 93.8 32.9 190.5 66.2 229.8 8 11.9 16.9 17.8 27.1 18h.8c27.3-.2 58.5-40.6 91.4-83.2 36.7-47.6 74.6-96.7 107.8-88.4 10.9 2.7 20.9 11.6 29.9 26.6.1.1.1 0 .2-.1z" opacity=".827"/><linearGradient id="SVGID_26_" x1="711.582" x2="698.606" y1="816.043" y2="-244.235" gradientTransform="matrix(1 0 0 -1 0 900)" gradientUnits="userSpaceOnUse"><stop offset="0" stop-color="#b0caf9"/><stop offset=".523" stop-color="#e7effd"/><stop offset="1" stop-color="#9fbef8"/></linearGradient><path fill="url(#SVGID_26_)" d="M1412.4.1c-.3 0-.6 0-.9-.1-12.8 23.6-23.6 54.4-30.8 90.1-43 211.9-200 708.1-310.8 709.9h-2.2c-35.7-13.1-55.9-104-75.5-192.1-19-85.5-37-166.5-68.3-177.5-9.1-3.2-19.1-.1-29.8 9.2-10.7 15.2-20.8 35.6-31.5 57.2-13.9 28-28.3 57-44.4 74.9-9.9 11-20.4 15.4-31.1 13-49.5-10.7-98.7-161.3-134.8-271.8-16.9-51.7-31.5-96.5-42.6-116.5-16.6-29.9-33.9-44.1-51.7-42.1-59.6 6.7-112.6 188.8-155.3 335.9-20.9 72-39 134.4-52.9 156.8-15 18.5-28.6 26.9-41.6 25.7-24.7-2.4-43.6-40.2-61.9-76.9-18.7-37.5-38.2-76.3-64.2-78-15.8-1-32.4 11.2-50.9 37.5-19 21.1-44.5 30.3-54.5 33.3-29.5 8.5-60-5.3-69.7-31.6l-1.2.4c10 26.9 41.1 41 70.8 32.3 10.2-3 35.9-12.3 55.1-33.7 18.3-26 34.6-38 49.9-37 25.4 1.7 44.6 40.2 63.2 77.4 18.5 36.9 37.6 75.1 62.9 77.5 13.4 1.3 27.4-7.2 42.7-26.2 14-22.7 32.2-85.1 53.1-157.2 21-72.4 44.8-154.2 70.9-219.3 30.1-75 57.4-112.8 83.4-115.7 17.2-1.9 34.2 12 50.6 41.5 11 19.9 25.6 64.6 42.5 116.2C687.1 424 736.4 575 786.6 585.8c11.1 2.4 22-2.1 32.2-13.4 16.2-17.9 30.7-47 44.6-75.1 10.7-21.6 20.8-41.9 31.3-56.9 10.4-9.1 19.8-12 28.6-8.9 30.7 10.7 48.7 91.4 67.6 176.7 19.7 88.5 40 179.7 76.3 193h2.6c62.3-1 133.8-152.7 182.9-279.9 60.4-156.6 109.1-333.1 129-430.9 7.3-35.9 18.1-66.7 30.9-90.3h-.2z" opacity=".827"/></g><g opacity=".862"><linearGradient id="SVGID_27_" x1="543.417" x2="530.446" y1="817.8" y2="-242.087" gradientTransform="matrix(1 0 0 -1 0 900)" gradientUnits="userSpaceOnUse"><stop offset="0" stop-color="#b0caf9"/><stop offset=".523" stop-color="#e7effd"/><stop offset="1" stop-color="#9fbef8"/></linearGradient><path fill="url(#SVGID_27_)" d="M1065.1 809.8h1.2c-35.1-18.9-53.5-111.6-71.4-201.5-17.6-88.5-34.3-172.3-65.9-183.8-9.3-3.4-19.7-.2-30.9 9.6-11.4 16.2-21.5 38.1-32.3 61.2-13.4 28.8-27.3 58.7-43.9 77.1-10.5 11.5-21.3 16.1-32.3 13.6-49.5-11.3-94.7-159-131.2-278.4-17.5-57.1-32.6-106.6-44.6-128.3-17.4-31.4-35.4-46.3-53.4-44.1C501 142.4 450.7 329.1 410 479.9c-21.3 78.8-39.7 147.1-54.7 171.3-15.8 19.5-30 28.3-43.4 26.9-25.1-2.7-43.7-42.3-61.7-80.6-18.4-39.1-37.4-79.5-63.8-81.6-.7-.1-1.4-.1-2.2-.1-15.5 0-32.2 12.9-50.8 39.3-19.6 21.9-43.3 31.3-55.6 34.9-30 8.9-60.5-5.3-70.8-33l-1.2.4c10.5 28.4 41.6 42.8 72.3 33.8 12.5-3.7 36.4-13.2 56.3-35.3 19.3-27.3 36.2-40 51.9-38.8 25.7 2 44.6 42.2 62.8 80.9 18.2 38.6 36.9 78.4 62.7 81.3 13.8 1.5 28.3-7.4 44.5-27.4 15.1-24.5 33.6-92.8 54.9-171.7 40.6-150.4 90.8-336.7 149.4-343.8 17.5-2.1 35.1 12.5 52.2 43.5 12 21.6 27.1 71 44.5 128.1 36.6 119.6 81.9 267.8 132 279.2 11.4 2.6 22.6-2.1 33.4-14 16.8-18.5 30.7-48.5 44.1-77.4 10.7-23.1 20.8-44.9 32.1-60.9 10.9-9.5 20.7-12.5 29.7-9.2 31 11.3 47.6 94.8 65.2 183 17.7 88.7 35.9 180.1 70.3 201.3.3-.2.7-.2 1-.2z" opacity=".862"/><linearGradient id="SVGID_28_" x1="1246.644" x2="1233.673" y1="809.194" y2="-250.693" gradientTransform="matrix(1 0 0 -1 0 900)" gradientUnits="userSpaceOnUse"><stop offset="0" stop-color="#b0caf9"/><stop offset=".523" stop-color="#e7effd"/><stop offset="1" stop-color="#9fbef8"/></linearGradient><path fill="url(#SVGID_28_)" d="M1400.6.2c-7.8 20.2-14.4 43.2-19.4 67.8-22.9 112.7-70.8 295.9-126.6 451.2-44.9 125.1-109.8 273-170.7 290.7.5-.2 1-.2 1.6-.2.4 0 .7 0 1 .1.3-.1.7-.1 1.1-.1h.5c60.2-22.9 123.5-167.3 167.6-290 55.8-155.4 103.8-338.7 126.6-451.4 5.1-25.3 11.8-48.2 19.5-68-.5 0-.9-.1-1.2-.1z" opacity=".862"/><linearGradient id="SVGID_29_" x1="1724.943" x2="1711.972" y1="803.34" y2="-256.547" gradientTransform="matrix(1 0 0 -1 0 900)" gradientUnits="userSpaceOnUse"><stop offset="0" stop-color="#b0caf9"/><stop offset=".523" stop-color="#e7effd"/><stop offset="1" stop-color="#9fbef8"/></linearGradient><path fill="url(#SVGID_29_)" d="M1911.5 469.8c-9.6-16.2-20-25.6-31.6-28.4-34-8.1-71.9 43-108.6 92.6-33.1 44.7-64.5 87.1-92.2 87.3h-.5c-10.3-.1-19.4-6.2-27.7-18.5-37.8-44.5-59.4-152.7-64.1-240.1-7-148.8-21.7-262.8-43.8-339.1-2.4-8.2-4.8-15.9-7.4-23.2h-1.1c2.6 7.4 5.1 15.2 7.5 23.5 22.1 76.2 36.8 190.1 43.8 338.8 4.7 87.7 26.4 196.1 64.3 240.8 8.5 12.6 17.8 18.8 28.5 18.9h.5c28.2-.2 59.8-42.8 93-87.7 36.6-49.4 74.2-100.2 107.6-92.2 11.8 2.8 22.5 12.8 32.2 30v-.4c-.3-.7-.4-1.5-.4-2.3z" opacity=".862"/></g><g opacity=".896"><linearGradient id="SVGID_30_" x1="538.03" x2="525.063" y1="817.58" y2="-241.951" gradientTransform="matrix(1 0 0 -1 0 900)" gradientUnits="userSpaceOnUse"><stop offset="0" stop-color="#b0caf9"/><stop offset=".523" stop-color="#e7effd"/><stop offset="1" stop-color="#9fbef8"/></linearGradient><path fill="url(#SVGID_30_)" d="M1054.5 809.8c.4 0 .7 0 1 .1-27.9-33.7-43-118.5-57.7-201.1-16.3-91.5-31.7-178.1-63.6-190.2-9.5-3.6-20.2-.3-32 9.9-12.1 17.2-22.2 40.4-32.9 65-13 29.7-26.4 60.6-43.6 79.5-11 12.1-22.2 16.9-33.4 14.2-49.7-11.8-92.9-163-127.9-285.1-17.9-62.5-33.4-116.5-46.3-140-18.2-32.9-36.8-48.5-55-46.1-59.2 7.7-107.2 199-145.9 353.5-21.5 85.6-40 159.8-56.1 185.9-16.6 20.5-31.4 29.7-45.1 28.1-25.5-3.1-43.8-44.3-61.5-84.3-18-40.6-36.7-82.8-63.4-85.2-16.5-1.5-34.5 11.9-55 41-15.5 17.3-35.7 30.2-56.9 36.5-31 9.2-61.4-5.3-72.3-34.5l-1.2.4c11.1 29.8 42.1 44.6 73.8 35.3 21.4-6.3 41.8-19.4 57.5-36.9 20.2-28.7 37.9-41.9 53.9-40.5 26 2.4 44.5 44.1 62.4 84.5 17.9 40.3 36.3 81.8 62.5 85 14.2 1.7 29.3-7.6 46.2-28.6 16.3-26.3 34.8-100.5 56.3-186.3 38.6-154.1 86.4-345 144.9-352.6 17.8-2.3 35.9 13 53.9 45.5 12.9 23.3 28.4 77.3 46.2 139.7 35 122.4 78.4 274 128.7 285.9 11.6 2.8 23.3-2.2 34.5-14.6 17.3-19.1 30.8-50 43.8-79.9 10.7-24.5 20.8-47.7 32.7-64.7 11.5-10 21.5-13.1 30.8-9.6 31.3 11.8 46.7 98.1 62.9 189.3 14.6 82 29.6 166.2 57.3 200.8.2.1.4.1.5.1z" opacity=".896"/><linearGradient id="SVGID_31_" x1="1255.451" x2="1242.484" y1="808.8" y2="-250.731" gradientTransform="matrix(1 0 0 -1 0 900)" gradientUnits="userSpaceOnUse"><stop offset="0" stop-color="#b0caf9"/><stop offset=".523" stop-color="#e7effd"/><stop offset="1" stop-color="#9fbef8"/></linearGradient><path fill="url(#SVGID_31_)" d="M1393.6.1l-.5-.1c-4.2 14.2-8 29.5-11.3 45.9-25 123.2-70.8 311.9-124.2 471.7-31 92.7-61.3 165.6-90 216.7-20.3 36-39.8 61.2-58.4 75.3h.7c.4 0 .7 0 1.1.1 18.4-14.4 37.6-39.4 57.5-74.8 28.8-51.2 59.1-124.2 90.1-216.9 53.5-159.9 99.3-348.7 124.3-471.9 3.3-16.4 7.2-31.8 11.4-46.1-.3.1-.5.1-.7.1z" opacity=".896"/><linearGradient id="SVGID_32_" x1="1727.509" x2="1714.542" y1="803.022" y2="-256.508" gradientTransform="matrix(1 0 0 -1 0 900)" gradientUnits="userSpaceOnUse"><stop offset="0" stop-color="#b0caf9"/><stop offset=".523" stop-color="#e7effd"/><stop offset="1" stop-color="#9fbef8"/></linearGradient><path fill="url(#SVGID_32_)" d="M1911.8 468.3c-10.3-18.6-21.6-29.3-34-32.1-34.3-7.8-72 45.1-108.6 96.5-33.5 47-65.2 91.6-93.8 91.8h-.2c-10.7 0-20.2-6.3-29-19.3-32.5-38.3-55.8-132.2-62.1-251.1-7.3-155.2-21.8-274.1-43.2-353.6-.3.1-.7.1-1.1.1 21.4 79.4 35.9 198.4 43.2 353.6 6.4 119.2 29.7 213.3 62.4 251.8 9 13.3 18.7 19.7 29.8 19.7h.2c29.1-.2 61-45 94.6-92.2 36.4-51.1 73.9-103.7 107.6-96.1 12.4 2.8 23.6 13.6 33.9 32.6.1-.7.1-1.2.3-1.7z" opacity=".896"/></g><g opacity=".931"><linearGradient id="SVGID_33_" x1="535.278" x2="522.314" y1="817.345" y2="-241.857" gradientTransform="matrix(1 0 0 -1 0 900)" gradientUnits="userSpaceOnUse"><stop offset="0" stop-color="#b0caf9"/><stop offset=".523" stop-color="#e7effd"/><stop offset="1" stop-color="#9fbef8"/></linearGradient><path fill="url(#SVGID_33_)" d="M1049.4 809.8h.7c-23.9-40.7-36.7-121.6-49.2-200.6-15-94.5-29.1-183.9-61.4-196.4-9.7-3.8-20.8-.3-33 10.3-12.8 18.1-23.3 43.8-33.4 68.6-12.6 30.7-25.6 62.5-43.4 82.1-11.5 12.7-23.1 17.7-34.6 14.8-49.8-12.3-91.3-167-124.8-291.9-18.2-67.8-33.9-126.4-47.8-151.6-19-34.4-38.1-50.6-56.7-48.1-59.1 8.1-104.7 204.1-141.6 362.2-21.5 92.5-40.1 172.5-57.4 200.4-17.4 21.5-32.7 31.1-46.8 29.3-26-3.4-43.9-46.4-61.4-88-17.7-42.2-36-86-63-88.7-16.9-1.7-35.5 12.3-56.9 42.7-16.7 18.6-36.8 31.8-58.1 38.1-32 9.5-62.4-5.3-73.8-36.1l-1.2.4c11.6 31.4 42.6 46.5 75.3 36.8 21.5-6.4 41.8-19.7 58.7-38.5 21.2-30.1 39.5-43.9 55.8-42.3 26.4 2.7 44.5 46.1 62 88 17.6 42 35.7 85.3 62.3 88.8 14.5 1.9 30.2-7.8 47.9-29.8 17.4-28.1 36-108.2 57.5-200.8C462.2 301.9 507.7 106.4 566 98.4c18.1-2.5 36.7 13.5 55.5 47.5 13.8 25 29.5 83.6 47.7 151.3 33.6 125.2 75.2 280.3 125.6 292.7 11.9 2.9 23.9-2.2 35.7-15.2 17.9-19.8 31-51.7 43.6-82.5 10.1-24.8 20.6-50.4 33.2-68.3 12-10.4 22.4-13.7 31.8-10 31.6 12.3 45.7 101.4 60.7 195.5 12.5 78.7 25.2 159.2 49 200.4h.6z" opacity=".931"/><linearGradient id="SVGID_34_" x1="1260.742" x2="1247.778" y1="808.466" y2="-250.736" gradientTransform="matrix(1 0 0 -1 0 900)" gradientUnits="userSpaceOnUse"><stop offset="0" stop-color="#b0caf9"/><stop offset=".523" stop-color="#e7effd"/><stop offset="1" stop-color="#9fbef8"/></linearGradient><path fill="url(#SVGID_34_)" d="M1388 .1h-.4c-1.9 7.7-3.7 15.6-5.3 23.7-43.1 212.5-147.1 673.7-257.1 786h.6c.3 0 .6 0 .9.1 42.3-43.8 87.4-142.1 134.6-293.5 52-166.4 95-359.8 121.9-492.4 1.7-8.3 3.5-16.2 5.3-24-.1.1-.3.1-.5.1z" opacity=".931"/><linearGradient id="SVGID_35_" x1="1729.239" x2="1716.275" y1="802.732" y2="-256.471" gradientTransform="matrix(1 0 0 -1 0 900)" gradientUnits="userSpaceOnUse"><stop offset="0" stop-color="#b0caf9"/><stop offset=".523" stop-color="#e7effd"/><stop offset="1" stop-color="#9fbef8"/></linearGradient><path fill="url(#SVGID_35_)" d="M1912.1 467.6c0-.3-.1-.6-.1-.9-11-21-23-32.8-36.3-35.7-34.5-7.5-72.1 47.2-108.5 100.3-33.8 49.3-65.9 96-95.3 96.2h-.1c-11.1.1-21-6.5-30.2-20.2-32.2-38-53.1-128.6-60.2-262.1-6.9-147.1-19.4-262.9-37.2-345-.4 0-.8-.1-1.1-.1 17.8 82 30.4 197.9 37.3 345.2 5 93.3 19.5 214.6 60.5 262.8 9.4 13.9 19.5 20.7 31 20.6 29.9-.3 62.2-47.2 96.2-96.7 36.3-52.8 73.6-107.2 107.5-99.8 13.2 2.9 25.2 14.9 36.2 36.4 0-.4.1-.7.3-1z" opacity=".931"/></g><g opacity=".965"><linearGradient id="SVGID_36_" x1="1730.191" x2="1717.231" y1="802.466" y2="-256.432" gradientTransform="matrix(1 0 0 -1 0 900)" gradientUnits="userSpaceOnUse"><stop offset="0" stop-color="#b0caf9"/><stop offset=".523" stop-color="#e7effd"/><stop offset="1" stop-color="#9fbef8"/></linearGradient><path fill="url(#SVGID_36_)" d="M1911.9 466.2c0-.4 0-.8.1-1.1-11.7-23.4-24.4-36.4-38.4-39.3-34.8-7.2-72.2 49.2-108.6 104.1-32.6 49.2-66.5 100.2-96.7 100.8h-.3c-11.4.1-21.6-6.8-31.2-21-41.1-48.4-52.5-165.1-58.3-273.1-7.2-153.7-18.9-261.3-32.4-336.3-.2 0-.4-.1-.6-.1-.2 0-.4.1-.6.1 15.1 83.4 26 196.2 32.6 336.3 5.8 108.1 17.2 225.2 58.5 273.8 9.8 14.5 20.3 21.5 32 21.4h.3c30.7-.6 63.2-49.6 97.5-101.2 36.2-54.5 73.4-110.7 107.5-103.6 14 2.9 26.8 16.3 38.6 40.5.1-.5.1-.9 0-1.3z" opacity=".965"/><linearGradient id="SVGID_37_" x1="533.529" x2="520.569" y1="817.112" y2="-241.786" gradientTransform="matrix(1 0 0 -1 0 900)" gradientUnits="userSpaceOnUse"><stop offset="0" stop-color="#b0caf9"/><stop offset=".523" stop-color="#e7effd"/><stop offset="1" stop-color="#9fbef8"/></linearGradient><path fill="url(#SVGID_37_)" d="M1045.9 809.8h.7c-20.9-45.1-31.9-123.5-42.7-200.2-13.7-97.5-26.6-189.7-59.2-202.7-9.9-4-21.3-.4-34 10.7-13.4 19.1-23.8 46.1-33.9 72.2-12.2 31.7-24.9 64.5-43.2 84.8-12 13.2-24 18.4-35.7 15.5-50-12.8-89.8-171-121.9-298.8-18.4-73-34.2-136.2-49.1-163.1-19.8-35.9-39.5-52.8-58.3-50.1-26.3 3.8-51.7 45.2-77.5 126.6-22.5 71-42.4 163-60 244.4-21.5 99.3-40.1 185.3-58.4 214.9-18.2 22.5-34.1 32.5-48.5 30.5-26.4-3.7-44.1-48.4-61.2-91.8-17.3-43.8-35.3-89.2-62.7-92.3-17.3-1.9-36.5 12.6-58.9 44.5-18 20-37.9 33.3-59.3 39.7-33 9.8-63.3-5.3-75.3-37.6l-1.2.4c12.2 32.9 43.1 48.3 76.8 38.3 21.6-6.4 41.7-19.9 59.9-40.1 22.2-31.5 41-45.8 57.8-44 26.7 3 44.5 48 61.7 91.5 17.3 43.6 35.1 88.7 62.2 92.5 14.8 2.1 31.1-8 49.6-31 18.5-29.9 37.1-115.9 58.6-215.3 34.9-161.5 78.2-361.6 136.5-370.1 18.3-2.7 37.5 14 57.1 49.5 14.8 26.7 30.6 89.9 49 162.8 32.2 128 72.1 286.7 122.8 299.6 12.1 3.1 24.5-2.2 36.8-15.8 18.5-20.5 31.2-53.4 43.5-85.2 10-26.1 20.4-53 33.6-71.8 12.5-10.9 23.2-14.3 32.8-10.4 32 12.8 44.9 104.7 58.5 201.8 10.7 76.4 21.7 154.5 42.5 200 .2.1.4.1.6.1z" opacity=".965"/><linearGradient id="SVGID_38_" x1="1265.183" x2="1252.223" y1="808.157" y2="-250.741" gradientTransform="matrix(1 0 0 -1 0 900)" gradientUnits="userSpaceOnUse"><stop offset="0" stop-color="#b0caf9"/><stop offset=".523" stop-color="#e7effd"/><stop offset="1" stop-color="#9fbef8"/></linearGradient><path fill="url(#SVGID_38_)" d="M1384 0h-.9c-.1.6-.2 1.1-.3 1.7l-2.7 13.2c-25.1 123.9-67.3 332.1-119.8 509.4-41.9 141.8-82.7 237.4-121.9 285.6h.6c.3 0 .5 0 .8.1 107.2-133.4 198.7-584.8 241.3-794.7l2.7-13.2c.1-.7.3-1.3.4-1.9 0-.2-.1-.2-.2-.2z" opacity=".965"/></g><linearGradient id="SVGID_39_" x1="532.342" x2="519.382" y1="816.886" y2="-241.975" gradientTransform="matrix(1 0 0 -1 0 900)" gradientUnits="userSpaceOnUse"><stop offset="0" stop-color="#b0caf9"/><stop offset=".523" stop-color="#e7effd"/><stop offset="1" stop-color="#9fbef8"/></linearGradient><path fill="url(#SVGID_39_)" d="M1044 809.8h.2c-18.4-48.3-27.9-124.9-37.2-199.8-12.4-100.4-24.2-195.4-57.1-209-10.2-4.2-21.6-.6-35.1 11.1-14.3 20.3-24.8 49-35.1 76.7-11.8 32.1-24.1 65.3-42.3 86.5-12.9 13.5-25.6 18.6-37.8 15.2-51.2-14.4-88.7-175.7-119-305.8-18.1-77.7-33.7-145-49.5-173.5-20.7-37.4-40.8-55-59.9-52.1-59.1 8.9-98.6 205.6-133.6 379.8-21.3 106.1-39.8 198-59.2 229.4-19 23.5-35.4 33.9-50.1 31.7-26.9-4-44.2-50.5-61.1-95.5-17-45.4-34.6-92.5-62.3-95.8-17.5-2.1-37.4 13-60.8 46.2-18.9 21-38.7 34.5-60.4 41.2C49 606 19.6 591 7 557l-1.2.4c12.8 34.7 42.9 49.9 78.3 39.8 22-6.8 41.9-20.4 61.1-41.7 23.1-32.9 42.7-47.8 59.7-45.7 27 3.3 44.5 50 61.4 95 17 45.3 34.5 92.1 62 96.3 15.2 2.3 32-8.2 51.3-32.2 19.6-31.7 38-123.7 59.4-229.9 16.8-83.5 35.8-178 57.5-250.4 24.7-82.5 49.3-124.4 75.1-128.4 18.6-2.8 38.3 14.5 58.7 51.5 15.7 28.4 31.3 95.5 49.4 173.2 31.9 137.2 68 292.1 119.8 306.7 12.6 3.6 25.7-1.7 38.9-15.5 18.3-21.4 30.6-54.7 42.5-86.9 10.2-27.7 20.8-56.3 34.8-76.3 13-11.3 24.1-14.8 33.8-10.8 32.3 13.3 44 108 56.4 208 9.3 74.8 18.7 151.2 37.1 199.7h1z"/><linearGradient id="SVGID_40_" x1="1269.211" x2="1256.252" y1="807.868" y2="-250.993" gradientTransform="matrix(1 0 0 -1 0 900)" gradientUnits="userSpaceOnUse"><stop offset="0" stop-color="#b0caf9"/><stop offset=".523" stop-color="#e7effd"/><stop offset="1" stop-color="#9fbef8"/></linearGradient><path fill="url(#SVGID_40_)" d="M1379.5.1h-.2c-3.3 16.7-6.9 34.9-10.7 53.7-45.2 228.4-122.5 619.6-218.1 755.8h.2c.3 0 .6 0 .9.1 95.8-137.3 172.9-527.6 218-755.6 3.8-19 7.4-37.2 10.7-54.1-.3.1-.5.1-.8.1z"/><linearGradient id="SVGID_41_" x1="1730.77" x2="1717.811" y1="802.219" y2="-256.642" gradientTransform="matrix(1 0 0 -1 0 900)" gradientUnits="userSpaceOnUse"><stop offset="0" stop-color="#b0caf9"/><stop offset=".523" stop-color="#e7effd"/><stop offset="1" stop-color="#9fbef8"/></linearGradient><path fill="url(#SVGID_41_)" d="M1912.2 463.7c-12.4-26-25.8-40.2-40.6-43.1-35-6.9-72.3 51.3-108.6 107.8-32.9 51.3-67 104.5-98 105.3h-.6c-11.7.1-22.2-7.1-32.2-21.9-40.6-47.8-49.6-156.9-56.3-284.1C1569.6 194 1560 84.3 1547.1.2h-.2c-.3 0-.5 0-.8-.1 11.7 76.5 21.9 182.2 28.8 327.6 3.1 58.8 6.6 115.8 14.6 166.1 9.1 57.4 22.9 96.3 42 118.7 10.2 15.1 21 22.4 33 22.3h.6c31.5-.9 64.2-51.9 98.8-105.8 36.1-56.3 73.2-114.2 107.6-107.3 14.7 2.9 28.1 17.4 40.5 43.9 0-.3.1-.6.2-.8-.1-.4-.1-.7 0-1.1z"/><g opacity=".85"><g class="st2"><linearGradient id="SVGID_42_" x1="956.39" x2="956.39" y1="530.027" y2="161.692" gradientTransform="matrix(1 0 0 -1 0 900)" gradientUnits="userSpaceOnUse"><stop offset="0" stop-color="#fa4468"/><stop offset=".518" stop-color="#fcd9d9"/><stop offset="1" stop-color="#fa4468"/></linearGradient><path fill="url(#SVGID_42_)" d="M1912.5 552.7c0-.3 0-.6-.1-.9H.2v1.4h1912.4c-.1-.2-.1-.3-.1-.5z" opacity=".1"/></g><g opacity=".156"><linearGradient id="SVGID_43_" x1="956.241" x2="956.241" y1="530.018" y2="161.7" gradientTransform="matrix(1 0 0 -1 0 900)" gradientUnits="userSpaceOnUse"><stop offset="0" stop-color="#fa4468"/><stop offset=".518" stop-color="#fcd9d9"/><stop offset="1" stop-color="#fa4468"/></linearGradient><path fill="url(#SVGID_43_)" d="M1912.4 550.7c-10.1-.2-23.6-.3-41.9-.5h-3.5c-.4 0-57.3.6-58.8.9-1.8.3-64.1.5-64.7.5h-3.6c-85.5-1-100.2-2.2-101.3-2.8-1.1-1-16.6-1.8-51.6-3.4-25.4-1.2-57-2.6-58.8-3.7-2.7-3.3-120.9-3.8-121.9-3.5-2.1.5-30.3 1.9-66.1 3.7-100 5-183.2 9.5-187.7 12.9-1 .3-9.8.7-16.9 1-13.4.5-14.8.7-15.1.9-.8.3-10.5.6-17.5.8-10.6.3-12.7.4-13 .6-3.1 1.2-87 1-89.7-.2-1.2-.8-18.7-1.5-55.6-3-27.2-1-58-2.2-59.7-3.1-2-1.6-81.6-1.7-82.3-1.6-.3 0-5.2.1-10.8.1-19 .2-28.1.3-28.6.5-1.3.3-44.5 1.1-46.7.8-.5-.1-5.8-.2-15.7-.6-21.6-.7-66.5-2.1-68.6-3.1-.9-.9-12.6-1.6-47.6-3-18.2-.7-38.9-1.6-40.2-2.2-1.6-1.3-61.3-1.6-61.7-1.5-.4.1-5.8.2-12.1.4-30.1.9-35.6 1.3-36.1 1.9-1.5.9-24.9 2.1-45.6 3.1-34.8 1.7-45.8 2.5-46.5 3.4-3.8 2.3-94.8 3-95.5 2.8-.6-.1-8.9-.3-22.5-.5-14.5-.3-32.6-.6-33.6-.8-1.8-.7-79.2-.7-81.9-.1-1 .2-22.7.3-35.6.3-6.8 0-11.7.1-12.1.1-3.9.2-59.7-.2-60.9-.4l-.4 1.7c.9.5 60.8.5 61.4.5.4 0 5.5 0 12.1-.1 19.2-.1 35.1-.2 35.8-.4 2.6-.6 79.4-.5 81.4 0 .8.3 13.9.5 33.9.9 11.1.2 21.7.4 22.3.5.8.2 94.3-.4 96.4-3.1 1.5-.9 25.1-2.1 45.9-3.2 33.3-1.7 44.6-2.4 46.1-3.4 1.4-.6 22.8-1.3 35.5-1.7 8.6-.3 11.9-.4 12.3-.5.4-.1 58.4.3 60.9 1.3.9.7 13.1 1.3 40.8 2.4 20.2.8 45.4 1.9 46.9 2.7.9 1 18.4 1.9 69.3 3.5 8.5.3 15.1.5 15.6.6.3 0 45.6-.3 47-.9.9-.2 18.1-.4 28.4-.5 7-.1 10.6-.1 10.9-.1.6-.1 78.8.2 81.6 1.4 1.3 1 23.6 1.9 60.3 3.3 25.1 1 53.5 2.1 55.1 2.8 1.1.7 26.9 1.1 50.7 1.1 20.2 0 38.9-.3 39.9-.8.6-.1 6.7-.3 12.7-.5 15.5-.5 17.6-.7 17.9-.9.7-.2 8.1-.5 14.7-.8 16.3-.7 17.2-.8 17.6-1.2 3.7-3.4 118.5-9.2 187.1-12.7 37.2-1.9 64.1-3.2 66.2-3.7.9-.2 116.7.4 120.9 3.2 1 1.2 16.5 2.1 59.5 4.1 23.2 1.1 49.5 2.3 51 3.1.5.5 2.1 1.8 101.9 3h3.6c.6 0 63.2-.2 64.9-.6 1.7-.3 57.3-.9 58.6-.9h3.5c18.2.1 31.8.3 41.9.5-.1-.4-.1-.9-.1-1.3z" opacity=".156"/></g><g opacity=".212"><linearGradient id="SVGID_44_" x1="956.211" x2="956.211" y1="530.019" y2="161.701" gradientTransform="matrix(1 0 0 -1 0 900)" gradientUnits="userSpaceOnUse"><stop offset="0" stop-color="#fa4468"/><stop offset=".518" stop-color="#fcd9d9"/><stop offset="1" stop-color="#fa4468"/></linearGradient><path fill="url(#SVGID_44_)" d="M1912.4 549.6c-11.4-.4-26-.7-43.8-1h-2.1c-3 0-56.6 1.2-59.4 1.9-2.9.7-61.6 1.2-65.3 1.1h-.3c-46.6-1-102.2-3-105.2-5.7-2.1-1.8-20.6-3.7-50.9-6.6-25.1-2.4-56.4-5.4-58.3-7.7-4.5-5.5-116-8.4-122.4-6.9-3.8.9-27.4 3.3-57.2 6.4-94.7 9.8-187.7 20-193.1 26.9-.9.6-10.1 1.4-16.8 1.9-10.9.9-14.4 1.3-15 1.8-.9.6-10.5 1.2-17.5 1.6-8.7.6-12.3.8-13 1.2-4.1 2.3-86.8 2-90.4-.3-2.4-1.6-22.5-3.2-55.3-5.8-26.9-2.1-57.3-4.5-59.6-6.3-3.6-2.8-78.1-3.6-82.9-3.1-.6.1-5.1.2-10.8.3-15.2.3-27.9.6-29.1 1-2.1.8-44.9 2-47 1.7-1-.1-5.8-.4-13.2-.9-20.5-1.3-68.7-4.4-71-6.7-1.7-1.9-19-3.5-47.4-5.9-17.9-1.5-38.2-3.2-39.8-4.5-1.5-1.2-17.7-2-31-2.5-13.7-.5-29.5-.8-31.1-.4-.7.2-5.7.5-11.5.8-23.5 1.5-35.6 2.4-36.7 3.8-1.5 1.8-25.5 4.3-44.7 6.3-27.4 2.8-44.2 4.7-45.8 6.8-3.2 4.1-90.6 6.8-95.7 5.7-1.2-.2-11-.6-22.3-1-14.6-.5-32.7-1.2-34.1-1.7-4.4-1.6-79.4-.9-82.7-.1-1.5.3-23.1.6-36 .7-6.6.1-11.4.1-12.2.2-5.4.3-59.6-.2-61.5-.8l-.3 1.3c1.8.9 61.4.9 61.9.9.7 0 5.8-.1 12.1-.2 18.3-.2 34.8-.4 36.2-.7 3-.7 78.2-1.4 82.2.1 1.4.5 15.2 1.1 34.4 1.8 10.8.4 21.1.8 22.1 1 2.6.5 26.7.1 48.8-1 20.8-1 46-2.7 47.9-5.2 1.5-1.9 25.7-4.4 45.1-6.4 27.2-2.8 43.8-4.7 45.4-6.7 1.5-1.3 23.9-2.7 36-3.4 7-.4 11-.7 11.7-.9 3.1-.7 58.7.9 61.3 2.7 1.7 1.4 16.4 2.7 40.4 4.7 20.1 1.7 45.1 3.8 46.7 5.5 1.9 2.1 30.1 4.3 71.7 7 7.1.5 12.2.8 13.2.9 2.3.3 45.2-.9 47.5-1.7 1.2-.4 18.4-.8 28.8-1 5.9-.1 10.2-.2 10.8-.3 4.4-.5 79.1.5 82.3 2.9 2.4 1.8 25.4 3.8 60.2 6.5 25.8 2 52.5 4.2 54.8 5.7 2.1 1.4 26.8 2.1 50.1 2.1 20.2 0 39.2-.6 41.3-1.8.7-.3 7-.7 12.6-1.1 12.7-.8 17.4-1.3 18.1-1.9.8-.5 8.4-1.1 14.5-1.6 12.8-1.1 16.8-1.5 17.4-2.3 5.7-7.2 122.6-19.3 192.5-26.5 31-3.2 53.4-5.5 57.3-6.4 7.6-1.8 117.6 1.8 121.4 6.5 2 2.5 24.7 4.8 59 8.1 23.8 2.3 48.3 4.6 50.3 6.4 4.1 3.6 82 5.5 105.8 6h.4c3.8.1 62.4-.4 65.5-1.1 2.5-.6 53.1-1.8 58.8-1.8h2.4c19.2.3 33.4.6 43.8 1-.3-.4-.3-.8-.3-1.3z" opacity=".212"/></g><g opacity=".269"><linearGradient id="SVGID_45_" x1="956.212" x2="956.212" y1="530.019" y2="161.7" gradientTransform="matrix(1 0 0 -1 0 900)" gradientUnits="userSpaceOnUse"><stop offset="0" stop-color="#fa4468"/><stop offset=".518" stop-color="#fcd9d9"/><stop offset="1" stop-color="#fa4468"/></linearGradient><path fill="url(#SVGID_45_)" d="M1912.4 548.6c-17.3-.9-37.3-1.4-46.3-1.5H1865.5c-6.3 0-55.5 1.9-59.6 2.8-4.4 1-60.7 1.8-65.9 1.7-12.9-.3-100.1-3.3-106.1-8.6-3.2-2.9-24.9-6.1-50.1-9.8-25.7-3.8-54.9-8.1-57.8-11.7-3.9-4.8-39.6-7.7-60.5-9-28.4-1.8-57.5-2.3-62.3-1.2-4.8 1.1-21.5 3.8-44.6 7.4-72.1 11.4-192.8 30.5-202.2 42.5-.9 1-10 2.1-16.7 3-8.6 1.1-13.9 1.8-14.9 2.7-.9.8-11 1.9-17.6 2.5-7.4.7-11.9 1.2-12.8 1.7-6.4 3.6-85.5 3.1-91.1-.5-3.7-2.5-28.6-5.5-55-8.7-26.2-3.2-56-6.8-59.6-9.6-5.4-4.1-77.1-5.3-83.6-4.6-.9.1-5.2.2-10.6.4-14.6.4-27.9.9-29.6 1.6-3.1 1.2-43.9 3-47.4 2.5-1.1-.2-4.8-.5-9.9-1-19.4-1.9-70.9-6.8-74.2-10.4-2.5-2.8-20.3-5.3-47.2-8.7-18.2-2.4-37-4.8-39.4-6.8-3.8-3.1-58-5.4-62.5-4.4-1 .2-5.3.6-10.8 1.1-18.7 1.8-35.6 3.5-37.4 5.7-2.3 2.8-24.4 6.4-44 9.6-25.7 4.1-42.7 7.1-45 10.1-4.5 5.8-87.4 10.5-95.9 8.7-1.7-.4-11.1-.9-22-1.5-14.5-.8-32.6-1.9-34.8-2.6-6.1-2.2-77.7-1.5-83.4-.2-2.3.5-23.8.9-36.7 1.1-6 .1-10.8.2-11.9.2-6.9.4-59.8-.3-62.1-1.2l-.3 1.2c2.3 1.1 56.9 1.6 62.5 1.3 1.1-.1 5.8-.1 11.8-.2 13.8-.2 34.6-.5 36.9-1.1 5.7-1.4 76.9-2 82.9.1 2.3.8 19.7 1.8 35.1 2.7 10.4.6 20.3 1.2 21.9 1.5 3.8.8 27.3.1 49.2-1.5 16.5-1.2 44.7-3.7 47.7-7.6 2.2-2.9 24.6-6.5 44.4-9.7 25.4-4.1 42.3-7 44.7-10 1.6-2 25.3-4.2 36.7-5.3 5.7-.5 9.9-.9 10.9-1.2 5-1.2 58.4 1.6 61.6 4.2 2.7 2.1 19.9 4.4 39.9 7 20.7 2.7 44.1 5.7 46.5 8.4 3.2 3.5 39.6 7.4 74.9 10.8 5.1.5 8.7.8 9.9 1 3.1.4 44.2-1.2 47.8-2.6 1.7-.7 19-1.2 29.3-1.5 5.4-.2 9.7-.3 10.6-.4 6.7-.7 78.2.8 82.9 4.4 3.8 2.9 31.1 6.2 60.1 9.8 25.1 3.1 51 6.2 54.5 8.5 3.2 2.1 27.2 3.2 50 3.2 19.9 0 38.8-.9 42.1-2.7.8-.4 7-1.1 12.5-1.6 10.3-1 17.1-1.8 18.2-2.8.8-.7 8.3-1.7 14.3-2.4 11.1-1.4 16.4-2.2 17.4-3.4 9.2-11.7 134.3-31.5 201.5-42.1 23.1-3.7 39.8-6.3 44.7-7.4 10.7-2.5 115.7 2.3 121.8 9.8 3 3.7 25.1 7.2 58.5 12.1 22.9 3.4 46.5 6.9 49.6 9.5 7 6.2 105.8 8.9 106.8 8.9 5.3.1 61.6-.6 66.1-1.7 4.1-.9 55.3-2.9 59.7-2.8h.2c15.9.3 32.6.8 46.2 1.5.1-.3.1-.8.1-1.2z" opacity=".269"/></g><g opacity=".325"><linearGradient id="SVGID_46_" x1="956.216" x2="956.216" y1="530.019" y2="161.7" gradientTransform="matrix(1 0 0 -1 0 900)" gradientUnits="userSpaceOnUse"><stop offset="0" stop-color="#fa4468"/><stop offset=".518" stop-color="#fcd9d9"/><stop offset="1" stop-color="#fa4468"/></linearGradient><path fill="url(#SVGID_46_)" d="M1912.4 548.2c0-.1-.1-.2-.1-.3 0-.1 0-.2-.1-.3-21.4-1.5-46.5-2.1-46.9-2.1h-.4c-7 0-54.5 2.5-60.1 3.7-6.1 1.4-60.5 2.4-66.6 2.2-16.9-.4-98.8-4.5-106.7-11.6-4.2-3.8-26.1-8.2-49.2-12.9-25.1-5.1-53.5-10.9-57.5-15.7-8.7-10.6-110.5-16.6-123.3-13.6-4.1 1-12.4 2.7-23.9 5.2-61.4 13-205.2 43.5-219.3 61.4-1 1.3-9.7 2.8-16.6 4-8.3 1.5-13.5 2.4-14.7 3.5-1.3 1.2-10.8 2.5-17.7 3.4-7.1 1-11.5 1.6-12.7 2.3-7.2 4-82.9 5.1-91.7-.7-4.9-3.2-29-7.3-54.6-11.5-26.9-4.5-54.7-9.1-59.6-12.8-7.2-5.4-76.5-6.9-84.2-6.1-1.1.1-5.2.3-10.3.5-11.7.5-27.8 1.1-30.3 2.1-4.3 1.6-43 4.1-47.8 3.4-.9-.1-2.6-.3-4.9-.6-49.2-6.1-75.9-11.1-79.1-14.7-3.6-3.9-25.6-7.9-47-11.7-17.6-3.1-35.7-6.4-39-9-5.1-4.1-56.6-7.2-62.8-5.8-1.2.3-5 .8-9.8 1.4-18.1 2.3-35.9 4.8-38.2 7.7-3.1 3.9-23.5 8.4-43.3 12.8-21 4.7-40.9 9.1-44.2 13.4-6.3 8.1-85.9 13.8-96.2 11.7-2.2-.5-11.2-1.1-21.6-1.9-14.5-1.1-32.6-2.5-35.6-3.6-7.6-2.7-75.7-2.2-84.2-.2-3.1.7-23.7 1.2-37.4 1.4-5.7.1-10.3.2-11.7.3-9 .5-60.2-.4-62.7-1.6l-.4 1.2c3 1.5 56.3 2.1 63.1 1.7 1.4-.1 5.9-.2 11.6-.3 13.7-.3 34.4-.7 37.6-1.5 8.4-2 76.2-2.5 83.7.2 3.1 1.1 20.5 2.5 35.9 3.6 10.4.8 19.4 1.5 21.5 1.9 9.5 2 90.2-3.1 97.2-12.1 3-3.9 23.7-8.5 43.6-13 20.9-4.7 40.6-9.1 43.9-13.2 2.3-2.9 25.2-5.8 37.6-7.3 5-.6 8.7-1.1 9.9-1.4 5.9-1.4 57.2 1.7 62 5.6 3.5 2.8 20.9 5.9 39.4 9.2 20.2 3.6 43.1 7.7 46.4 11.3 4.7 5.1 47.8 11 79.8 15 2.3.3 4 .5 4.9.6 4.9.7 43.9-1.8 48.2-3.5 2.4-.9 19-1.6 30-2 5.1-.2 9.1-.4 10.3-.5 8.3-.9 76.8.8 83.5 5.9 5.1 3.9 33 8.5 60 13 24.3 4.1 49.5 8.3 54.2 11.4 4.4 2.9 25.2 4.1 46 4.1 21.5 0 43.1-1.3 46.8-3.4 1.1-.6 6.8-1.4 12.4-2.2 10.1-1.4 16.8-2.4 18.2-3.7 1.1-1 8.1-2.2 14.2-3.3 9.9-1.7 16-2.9 17.3-4.4 13.8-17.5 157.4-48 218.7-61 11.5-2.4 19.8-4.2 24-5.2 12.8-3 113.7 2.7 122.3 13.2 4.3 5.2 31.6 10.8 58 16.1 22 4.5 44.7 9.1 48.8 12.7 8.7 7.8 95.9 11.6 107.4 11.8 6.1.2 60.6-.8 66.8-2.3 5.5-1.3 52.8-3.7 59.8-3.7h.4c8.1.2 29.1.8 47.1 2.1-.1.2-.1-.1-.1-.3z" opacity=".325"/></g><g opacity=".381"><linearGradient id="SVGID_47_" x1="956.166" x2="956.166" y1="530.019" y2="161.701" gradientTransform="matrix(1 0 0 -1 0 900)" gradientUnits="userSpaceOnUse"><stop offset="0" stop-color="#fa4468"/><stop offset=".518" stop-color="#fcd9d9"/><stop offset="1" stop-color="#fa4468"/></linearGradient><path fill="url(#SVGID_47_)" d="M1912.3 547.8c-.1-.5-.2-.9-.2-1.4-21.7-1.9-46.9-2.6-47.3-2.6-7.1-.1-54.1 3.1-61 4.7-7.7 1.8-60.1 2.9-67.2 2.8-15.8-.3-97-5.4-107.3-14.5-5.2-4.7-26.2-10.1-48.3-16-24.4-6.4-52-13.7-57.1-19.9-11.6-14.1-109.3-20.3-123.8-16.9-28.1 6.6-218.7 56.5-239.7 83.1-1.3 1.7-9.8 3.6-16.6 5.1-6.9 1.6-12.9 2.9-14.5 4.3-1.7 1.5-10.6 3.1-17.9 4.4-5.9 1-11.1 1.9-12.6 2.8-9.3 5.2-82.1 5.9-92.4-.9-6.1-4-29.4-9-54.1-14.3-26.3-5.6-53.5-11.5-59.7-16.2-8.8-6.7-75.6-8.6-84.8-7.6-1.4.1-5.1.3-9.9.6-11.7.6-27.8 1.4-31 2.6-5.4 2.1-42.5 5-48.1 4.3-15.1-2.1-77.4-11.9-84-19.2-4.4-4.9-26-9.8-46.9-14.6-17.7-4.1-34.4-7.9-38.5-11.2-6.7-5.3-56.5-8.8-63.2-7.2-1.3.3-4.5.8-8.6 1.5-17.5 2.8-36.4 6.1-39.5 9.9-3.9 4.9-23.5 10.6-42.5 16.1-20.2 5.9-39.4 11.4-43.5 16.7-8.2 10.5-85.2 17-96.4 14.6-2.7-.6-11.2-1.4-21.1-2.4-14.6-1.4-32.7-3.2-36.6-4.6-10-3.6-75.4-2.6-84.9-.3-3.9.9-24.6 1.5-38.2 1.8-5.4.1-9.6.2-11.3.3-11.5.6-60.1-.5-63.3-2l-.3 1.5c3.5 1.7 52.8 2.7 63.7 2.1 1.6-.1 5.9-.2 11.2-.3 13.7-.4 34.4-.9 38.4-1.9 9.5-2.3 74.5-3.4 84.4.2 4 1.4 21.4 3.1 36.8 4.6 9.9 1 18.4 1.8 21 2.3 11.6 2.4 88.8-3.9 97.4-15 3.9-5 23.7-10.7 42.9-16.3 20-5.8 39-11.3 43.1-16.5 3-3.8 26.3-7.5 38.8-9.5 4.1-.6 7.3-1.2 8.6-1.5 7.6-1.8 56.5 2.3 62.4 7 4.3 3.4 21.1 7.3 38.9 11.4 19.8 4.5 42.2 9.7 46.4 14.3 7.8 8.6 83.8 19.4 84.6 19.5 6 .8 43-2.2 48.6-4.3 3.1-1.2 19.7-2 30.7-2.6 4.8-.2 8.6-.4 10-.6 9.1-1 75.7 1 84.1 7.4 6.4 4.8 33.7 10.7 60.1 16.3 23.5 5.1 47.9 10.3 53.8 14.2 5.5 3.6 26.6 5.2 47.5 5.2 20.7 0 41.1-1.6 45.9-4.3 1.4-.8 6.7-1.7 12.3-2.7 9.7-1.7 16.6-3 18.4-4.6 1.4-1.3 7.8-2.7 14.1-4.1 9.4-2.1 15.7-3.6 17.2-5.5 20.8-26.4 211.1-76.1 239.1-82.7 16.7-3.9 112.5 3.9 122.8 16.5 5.3 6.5 31.9 13.5 57.7 20.3 22 5.8 42.8 11.3 47.9 15.7 11.3 10 98.4 14.5 107.9 14.7 7.3.1 59.5-1 67.4-2.8 6.8-1.6 53.7-4.8 60.8-4.6 6.3.4 28.4 1.2 47.4 2.8 0 .1 0 .1 0 0z" opacity=".381"/></g><g opacity=".438"><linearGradient id="SVGID_48_" x1="956.108" x2="956.108" y1="530.018" y2="161.7" gradientTransform="matrix(1 0 0 -1 0 900)" gradientUnits="userSpaceOnUse"><stop offset="0" stop-color="#fa4468"/><stop offset=".518" stop-color="#fcd9d9"/><stop offset="1" stop-color="#fa4468"/></linearGradient><path fill="url(#SVGID_48_)" d="M1912.2 545.5c-19.3-2.1-41.6-3.1-48-3.2-8.4-.1-53.4 3.7-61.5 5.6-8.9 2-58 3.6-67.8 3.4-15.3-.3-95.2-6.1-107.9-17.4-6.2-5.5-26.1-12-47.3-18.9-24.9-8.1-50.7-16.6-56.9-24.1-13.7-16.7-106.3-24.5-124.3-20.3-40.4 9.5-211.6 68.6-236.1 99.7-1.7 2.1-9.6 4.3-16.6 6.2-6.4 1.8-12.5 3.4-14.3 5.1-2 1.9-10.9 3.8-18.1 5.3-5.7 1.2-10.6 2.3-12.4 3.3-11.7 6.6-80.6 7.2-93.1-1.1-7.2-4.8-29.7-10.7-53.6-17-25.7-6.8-52.3-13.9-59.8-19.5-10.6-8-74.3-10.3-85.4-9.1-1.6.2-5 .4-9.4.7-11.1.7-27.9 1.7-31.8 3.2-6.3 2.4-41.3 6.1-48.5 5.1-14.2-1.9-75.7-14-83.9-23-5.3-5.9-26.4-11.9-46.9-17.7-17-4.8-33-9.4-37.9-13.3-7.9-6.3-55.3-10.6-63.5-8.6-1.3.3-3.8.8-6.9 1.4-12.9 2.5-37 7-41.1 12.2-4.7 5.9-23.5 12.7-41.8 19.3-19.4 7-37.8 13.7-42.7 20-9.5 12.2-81.5 20.8-96.7 17.6-3.1-.6-11.1-1.6-20.3-2.7-14.7-1.7-33-3.9-37.8-5.6-11.8-4.2-73.7-3.2-85.7-.3-4.8 1.2-25.5 1.8-39.2 2.2-5 .2-8.9.3-10.8.4-13.6.7-60-.6-63.8-2.5l-.4 1.2c4.3 2.1 51.9 3.2 64.3 2.6 1.9-.1 5.8-.2 10.7-.4 13.7-.4 34.4-1.1 39.4-2.3 11.6-2.8 73.9-3.8 85.2.3 4.9 1.8 23.2 3.9 38 5.7 9.3 1.1 17.2 2 20.3 2.7 14.3 3 87.4-4.7 97.7-18 4.7-6 23.7-12.9 42.2-19.6 19.2-7 37.4-13.6 42.3-19.7 3.8-4.8 28.6-9.5 40.5-11.8 3.1-.6 5.5-1.1 6.9-1.4 8.7-2.1 55.6 2.7 62.7 8.4 5.1 4 21.2 8.6 38.3 13.5 19.3 5.5 41.3 11.7 46.4 17.3 8.9 9.8 73.8 21.9 84.5 23.4 7.3 1 42.6-2.7 49-5.2 3.8-1.4 20.5-2.5 31.5-3.2 4.4-.3 7.9-.5 9.5-.7 13.1-1.4 74.8 1.3 84.8 8.9 7.6 5.8 34.3 12.9 60.1 19.7 23.8 6.3 46.2 12.2 53.3 16.9 6.4 4.2 27.6 6.2 48.4 6.2 20.1 0 39.9-1.8 45.7-5 1.6-.9 6.7-2 12.1-3.2 8-1.7 16.3-3.5 18.5-5.6 1.7-1.5 7.9-3.2 13.9-4.9 7.8-2.2 15.2-4.2 17.1-6.6 24.3-30.9 195.1-89.8 235.5-99.3 19.1-4.5 110.7 4.5 123.3 19.9 6.4 7.8 32.3 16.3 57.4 24.5 21 6.9 40.9 13.3 46.9 18.7 13.2 11.7 92.5 17.3 108.6 17.7 10.1.2 58.9-1.3 68.1-3.4 7.9-1.8 51.1-5.6 60.7-5.6h.6c6.3.1 28.7 1 47.9 3.2 0-.4 0-.8.1-1.2-.2 0-.2-.1-.2-.1z" opacity=".438"/></g><g opacity=".494"><linearGradient id="SVGID_49_" x1="956.11" x2="956.11" y1="530.018" y2="161.701" gradientTransform="matrix(1 0 0 -1 0 900)" gradientUnits="userSpaceOnUse"><stop offset="0" stop-color="#fa4468"/><stop offset=".518" stop-color="#fcd9d9"/><stop offset="1" stop-color="#fa4468"/></linearGradient><path fill="url(#SVGID_49_)" d="M1912.1 544.4c-19.7-2.6-42.2-3.6-48.5-3.7-9.6-.2-52.5 4.3-62.1 6.5-10.7 2.5-58.2 4.1-68.5 3.9-21.1-.4-93.9-7.4-108.5-20.3-7.1-6.3-26-13.8-46.1-21.7-24.3-9.6-49.5-19.5-56.8-28.5-14.9-18.2-102.3-28.9-124.7-23.6-44.6 10.5-203.3 79.2-232.5 116.3-2 2.5-9.7 5.1-16.6 7.4-6.2 2-12 4-14.1 5.9-2.4 2.2-10.9 4.4-18.3 6.3-5.5 1.4-10.2 2.6-12.1 3.7-13.5 7.6-79.4 8.2-93.8-1.3-8.3-5.5-30-12.4-53-19.7-25.2-8-51.2-16.3-60-23-12.1-9.2-71.5-12.2-86.1-10.6-1.7.2-4.8.4-8.8.7-11.2.8-28.1 2-32.8 3.8-8 3-40.9 7.1-48.9 6-13.6-1.8-73.9-16.1-83.8-26.9-6.2-6.9-26.9-14-46.9-20.8-16.3-5.6-31.6-10.8-37.3-15.3-8.9-7.1-53.5-12.5-63.9-10-1 .2-2.5.6-4.4 1-12.5 2.7-38.4 8.4-43.6 14.8-5.5 6.9-23.6 14.9-41.1 22.6-17.8 7.9-36.3 16-41.9 23.3-11.2 14.4-79.3 24.2-96.9 20.6-3.4-.7-10.7-1.7-19.2-2.9-14.9-2.1-33.5-4.7-39.3-6.8-13.3-4.8-72.6-3.7-86.5-.3-5.8 1.4-26.5 2.1-40.2 2.6-4.5.2-8.2.3-10.2.4-15.3.8-59.9-.6-64.4-2.9l-.3 1.2c4.9 2.4 51 3.7 64.9 3 2-.1 5.7-.2 10.2-.4 13.7-.5 34.5-1.2 40.4-2.7 13.8-3.3 72.7-4.5 85.9.3 5.9 2.1 24.5 4.7 39.5 6.8 8.5 1.2 15.8 2.2 19.1 2.9 16.2 3.4 85.6-5.1 97.9-21 5.5-7 23.8-15.1 41.5-22.9 18.4-8.1 35.8-15.8 41.5-22.9 4.9-6.1 31.6-11.9 43-14.4 1.8-.4 3.3-.7 4.4-1 10-2.4 54.6 3 63.1 9.8 5.8 4.6 21.2 9.9 37.6 15.5 19.9 6.8 40.4 13.8 46.5 20.5 10.2 11.2 70.3 25.3 84.4 27.3 8.1 1.1 41.3-3 49.4-6 4.6-1.7 21.4-3 32.5-3.8 4-.3 7.1-.5 8.8-.7 14.1-1.5 73.7 1.5 85.4 10.4 8.9 6.8 35.1 15.1 60.3 23.1 22.9 7.3 44.5 14.2 52.7 19.6 7.6 5 28.4 7.3 48.9 7.3 19.6 0 39-2.1 45.9-6 1.9-1 6.7-2.3 11.9-3.6 7.5-1.9 16.1-4.2 18.7-6.6 1.9-1.8 7.9-3.8 13.7-5.7 7.3-2.4 14.9-4.9 17.1-7.7 29.1-37 187.5-105.4 231.9-115.9 22.3-5.3 109 5.2 123.7 23.2 7.5 9.2 32.8 19.2 57.3 28.8 20 7.9 38.8 15.3 45.8 21.5 15.6 13.9 93.6 20.3 109.1 20.6 10.6.2 57.7-1.4 68.7-3.9 9.5-2.2 52.3-6.6 61.8-6.5 6.3.1 28.9 1.2 48.5 3.7 0-.1 0-.1.1-.2.1-.2 0-.6 0-1.1z" opacity=".494"/></g><g class="st28"><linearGradient id="SVGID_50_" x1="956.076" x2="956.076" y1="530.018" y2="161.7" gradientTransform="matrix(1 0 0 -1 0 900)" gradientUnits="userSpaceOnUse"><stop offset="0" stop-color="#fa4468"/><stop offset=".518" stop-color="#fcd9d9"/><stop offset="1" stop-color="#fa4468"/></linearGradient><path fill="url(#SVGID_50_)" d="M1912.2 544v-.5c-18.3-2.8-39.4-4.2-49.1-4.4h-.8c-12.6 0-51.4 5.1-61.8 7.5-12.1 2.8-56.7 4.7-69.1 4.5-23.4-.5-92.4-8.4-109.1-23.3-7.9-7.1-25.8-15.4-44.7-24.3-23.8-11.2-48.4-22.7-57-33.1-17.6-21.5-100.8-32.7-125.2-26.9-50.5 11.9-194.7 89.3-229 132.9-2.3 2.9-9.9 5.9-16.6 8.5-5.9 2.3-11.5 4.5-13.9 6.7-2.9 2.6-11.2 5.1-18.6 7.4-5.2 1.6-9.6 2.9-11.8 4.1-15.9 8.9-77.9 9.5-94.5-1.4-9.4-6.2-30.2-14-52.1-22.2-24.7-9.3-50.3-18.8-60.5-26.6-14.2-10.8-72.2-13.6-86.7-12.1-1.7.2-4.5.4-7.9.7-11.3.9-28.5 2.3-34 4.4-9 3.4-40 8.1-49.3 6.8-14.9-2-72.2-18.1-83.7-30.8-7.2-7.9-27.5-16.1-47.1-24-15.5-6.2-30.1-12.1-36.5-17.2-10.2-8.2-53.1-14.1-64.3-11.5l-.3.1c-10.1 2.4-40.9 9.6-47.5 17.9-6.3 7.9-23.6 17-40.3 25.8-17.1 9-34.7 18.3-41.2 26.6-13.4 17.1-78 27.5-97.2 23.5-3.5-.7-9.9-1.8-17.4-3-15.4-2.5-34.6-5.6-41.5-8.1-15.2-5.5-71-4.3-87.2-.4-6.8 1.6-27.7 2.5-41.4 3.1-4 .2-7.3.3-9.4.4-16.5.9-59.7-.7-65-3.3l-.5 1.3c5.5 2.7 48.4 4.3 65.5 3.4 2.1-.1 5.4-.3 9.4-.4 13.8-.6 34.7-1.4 41.6-3.1 16.2-3.9 71.6-5.1 86.7.4 7 2.5 26.3 5.7 41.7 8.2 7.4 1.2 13.8 2.2 17.3 3 19.3 4 84.6-6.5 98.2-23.9 6.3-8.1 23.8-17.3 40.8-26.2 16.8-8.9 34.2-18 40.7-26.1 4.2-5.3 20-11.2 47-17.5l.3-.1c11.1-2.6 53.4 3.2 63.5 11.3 6.5 5.2 21.2 11.1 36.7 17.4 19.5 7.9 39.7 16 46.7 23.7 11.7 12.9 69.3 29.1 84.3 31.1 9.4 1.3 40.7-3.4 49.7-6.9 5.4-2.1 22.5-3.5 33.8-4.4 3.4-.3 6.2-.5 8-.7 16.9-1.8 72.7 1.7 86 11.9 10.3 7.8 36 17.4 60.8 26.7 21.9 8.2 42.6 16 51.9 22.1 8.6 5.7 29.1 8.3 49.3 8.3 19.3 0 38.3-2.4 46.2-6.8 2.1-1.2 6.7-2.6 11.6-4 7.5-2.3 16-4.8 19-7.6 2.2-2 7.7-4.2 13.5-6.5 7.2-2.8 14.5-5.7 17.1-8.9 34.2-43.5 178-120.6 228.4-132.5 24.3-5.7 106.8 5.3 124.2 26.6 8.7 10.6 33.4 22.2 57.4 33.4 18.8 8.8 36.6 17.2 44.5 24.1 17 15.1 86.3 23 109.7 23.5 12.4.3 57.2-1.7 69.3-4.5 10.3-2.4 51-7.7 62.4-7.4 9.7.2 30.8 1.5 49.1 4.4v-.5c-.2-.4-.2-.5-.1-.6z" opacity=".55"/></g><g opacity=".606"><linearGradient id="SVGID_51_" x1="956.075" x2="956.075" y1="530.019" y2="161.701" gradientTransform="matrix(1 0 0 -1 0 900)" gradientUnits="userSpaceOnUse"><stop offset="0" stop-color="#fa4468"/><stop offset=".518" stop-color="#fcd9d9"/><stop offset="1" stop-color="#fa4468"/></linearGradient><path fill="url(#SVGID_51_)" d="M1912.1 542.6v-.1c-18-3.2-38.5-4.7-49.6-5-12.6-.2-51.1 5.6-63.1 8.4-13.7 3.1-55.7 5.3-69.8 5-23.4-.5-90.3-9-109.7-26.2-8.7-7.7-25.3-16.8-43-26.5-23.4-12.8-47.6-26.1-57.5-38.1-20.5-25-99.1-36.5-125.7-30.3-60.1 14.2-189.5 103.8-225.4 149.4-2.7 3.4-9.8 6.6-16.7 9.7-5.6 2.6-10.9 5-13.6 7.4-3.3 3-11.7 5.9-19 8.5-4.7 1.6-9 3.1-11.4 4.5-17.7 9.9-76.6 10.6-95.2-1.6-10.4-6.8-30.1-15.4-51-24.5-24.4-10.6-49.6-21.5-61.3-30.4-15.3-11.6-69.2-15.5-87.3-13.6-1.7.2-4 .4-6.8.6-11.6 1.1-29 2.6-35.5 5.1-9.8 3.7-39.1 9.1-49.7 7.7-18.6-2.5-71.2-20.9-83.6-34.7-8.2-9.1-28.2-18.4-47.5-27.5-14.6-6.8-28.4-13.3-35.4-18.9-11.2-8.9-51.4-16-64.6-12.9-1.6.4-39.1 9.3-47.8 20.2-7.1 8.9-23.6 19.2-39.5 29.1-16.3 10.1-33.2 20.6-40.4 29.9-14.4 18.5-75 31.2-97.4 26.5-3.3-.7-8.3-1.6-14.1-2.7-15.5-2.9-36.7-6.8-45.2-9.8-17.4-6.3-69.7-4.8-88-.4-7.9 1.9-28.9 2.9-42.8 3.5-3.4.2-6.3.3-8.5.4-19.9 1.1-59.8-.9-65.6-3.7l-.4 1.5c6.3 3.1 47.8 4.8 66.1 3.8 2.1-.1 5-.3 8.5-.4 13.9-.6 35-1.6 43-3.5 18.1-4.4 70.1-5.8 87.4.4 8.5 3.1 29.8 7 45.3 9.9 5.8 1.1 10.9 2 14.1 2.7 23.2 4.8 83.5-7.7 98.4-26.9 7.1-9.1 23.9-19.5 40.1-29.6 16-10 32.6-20.3 39.8-29.3 6.8-8.5 33.8-16.7 47.2-19.8 13.1-3.1 52.8 3.9 63.8 12.7 7.1 5.7 21 12.2 35.6 19.1 19.2 9 39.1 18.3 47.2 27.2 12.6 13.9 65.5 32.5 84.2 35 10.7 1.4 40.3-4 50.1-7.8 6.4-2.4 24.5-4.1 35.3-5.1 2.8-.3 5.1-.5 6.8-.6 18-2 71.5 1.9 86.6 13.4 11.8 8.9 37 19.9 61.5 30.5 20.8 9.1 40.5 17.6 50.8 24.4 9.6 6.3 29.8 9.2 49.7 9.2 19 0 37.8-2.7 46.5-7.6 2.3-1.3 6.6-2.8 11.2-4.4 7.4-2.6 15.9-5.5 19.4-8.7 2.5-2.3 7.7-4.7 13.3-7.2 7-3.2 14.2-6.5 17.1-10.1 35.8-45.5 164.9-134.9 224.8-149.1 28.5-6.7 106 7 124.7 29.9 10 12.2 34.3 25.5 57.8 38.4 17.6 9.6 34.2 18.7 42.8 26.4 19.6 17.4 86.9 26 110.3 26.4 14.1.3 56.3-1.9 70-5.1 12-2.8 50.3-8.7 62.9-8.4 11.1.2 31.7 1.7 49.7 5 .1-.4.1-.8.1-1.3z" opacity=".606"/></g><g opacity=".662"><linearGradient id="SVGID_52_" x1="956.073" x2="956.073" y1="530.018" y2="161.701" gradientTransform="matrix(1 0 0 -1 0 900)" gradientUnits="userSpaceOnUse"><stop offset="0" stop-color="#fa4468"/><stop offset=".518" stop-color="#fcd9d9"/><stop offset="1" stop-color="#fa4468"/></linearGradient><path fill="url(#SVGID_52_)" d="M1912.1 542.6c-.1-.4-.1-.7-.1-1.1-18.2-3.7-38.7-5.3-50.1-5.6-13.8-.2-49.3 6-63.7 9.3-15 3.5-54.5 6-70.4 5.6-28.5-.6-89.7-10.8-110.3-29.1-9.2-8.2-24.5-17.8-40.6-28-23.3-14.7-47.3-29.9-58.6-43.7-22-26.9-95.8-40.8-126.1-33.6-63.9 15-178.6 111.1-221.8 166-3 3.8-10 7.5-16.8 11-5.3 2.8-10.4 5.4-13.2 8-3.8 3.5-12.2 6.8-19.6 9.7-4.3 1.7-8.3 3.3-10.8 4.7-19.4 10.9-75.2 11.8-95.9-1.8-11.1-7.3-29.6-16.5-49.1-26.2-24.3-12.1-49.4-24.6-62.8-34.7-17.3-13.1-67.5-17.3-87.9-15.1-1.4.2-3.2.3-5.2.5-11.2 1.1-29.9 3-37.5 5.9-10.4 4-38.1 10.2-50 8.6-19.9-2.7-69.6-23.2-83.5-38.5-9.4-10.3-29.2-21-48.3-31.3-13.6-7.3-26.5-14.2-34.1-20.3-13-10.4-50.9-17.6-65-14.3-12 2.8-39.5 12-47.8 22.5-7.9 9.9-23.6 21.3-38.8 32.3-15.6 11.3-31.6 22.9-39.7 33.2-16.9 21.7-74.1 34.4-97.7 29.5-2-.4-4.5-.9-7.4-1.5-15.5-3.1-41.4-8.4-52.4-12.4-19.3-7-68.9-5.2-88.7-.5-9.2 2.2-30.5 3.3-44.6 4-2.8.1-5.2.3-7.1.4-21.1 1.1-59.6-.9-66.2-4.1l-.3 1.1c6.7 3.3 45.5 5.3 66.7 4.2 2-.1 4.4-.2 7.1-.4 14.1-.7 35.5-1.8 44.8-4 19.7-4.7 69-6.5 88.2.5 11 4 37 9.3 52.5 12.4 2.8.6 5.3 1.1 7.4 1.5 23.8 5 81.6-7.9 98.7-29.9 7.9-10.2 23.9-21.8 39.4-33 15.3-11 31-22.5 39-32.5 8-10.1 35.7-19.4 47.2-22.1 13.9-3.3 51.4 3.9 64.2 14.1 7.6 6.1 20.5 13 34.2 20.4 19.1 10.3 38.8 20.9 48 31 14.4 15.8 63.7 36.1 84.2 38.9 12.1 1.7 40-4.6 50.5-8.6 7.5-2.9 26.1-4.7 37.2-5.8 2-.2 3.8-.4 5.2-.5 20.8-2.2 70.8 2.4 87.2 14.9 13.4 10.2 38.6 22.7 62.9 34.8 19.5 9.7 37.9 18.9 49 26.2 10.9 7.2 30.5 10.4 49.9 10.4 18.7 0 37.1-3.1 47-8.6 2.4-1.4 6.4-2.9 10.7-4.6 7.5-2.9 16-6.3 19.9-9.9 2.7-2.5 7.7-5.1 13-7.8 6.9-3.6 14-7.3 17.2-11.3 43.1-54.8 157.5-150.6 221.2-165.6 30.1-7.1 103.4 6.6 125.1 33.2 11.4 14 35.6 29.2 58.9 44 16.1 10.2 31.3 19.8 40.5 27.9 21.8 19.3 84 28.8 110.9 29.4 15.9.3 55.5-2.2 70.6-5.6 14.3-3.3 49.7-9.5 63.4-9.3 11.4.2 32.1 1.9 50.2 5.6v-.4z" opacity=".662"/></g><g opacity=".719"><linearGradient id="SVGID_53_" x1="956.03" x2="956.03" y1="530.018" y2="161.701" gradientTransform="matrix(1 0 0 -1 0 900)" gradientUnits="userSpaceOnUse"><stop offset="0" stop-color="#fa4468"/><stop offset=".518" stop-color="#fcd9d9"/><stop offset="1" stop-color="#fa4468"/></linearGradient><path fill="url(#SVGID_53_)" d="M1912 540.6c-17.7-4-37.6-6-50.6-6.2-17.2-.3-56.5 8.5-64.2 10.2-16.1 3.7-53.2 6.5-71 6.2-26.7-.6-86.7-10.5-110.9-32-9.3-8.3-22.7-18-36.9-28.2-22.5-16.3-48-34.7-61.1-50.8-23.6-28.8-91.3-45.3-126.6-37-72.4 17.1-174.4 126.9-218.3 182.6-3.4 4.3-10.3 8.4-17 12.4-5 3-9.7 5.8-12.8 8.5-4.4 4-12.9 7.8-20.4 11.1-3.8 1.7-7.4 3.3-10 4.7-21.6 12.1-73.3 13.4-96.6-2-11.4-7.5-27.9-16.9-45.4-26.7-24.9-14.1-50.6-28.6-66.1-40.3-19.8-15-68.2-18.8-88.5-16.6l-2.9.3c-10.9 1.2-31.1 3.3-40.1 6.7-10.9 4.2-37 11.3-50.4 9.4-21.5-2.9-67.5-24.8-83.5-42.4-10.7-11.8-30.6-23.9-49.8-35.7-12.4-7.6-24.1-14.7-32-21-13.7-11-49.2-19.5-65.4-15.7-12 2.8-38.4 13-47.7 24.7-8.6 10.9-23.5 23.4-37.9 35.4-14.8 12.4-30.2 25.3-39 36.6-17.9 23-71.2 38-97.9 32.4-14.6-3-46-10.2-60.2-15.3-22-7.9-68.4-5.6-89.5-.5-10.7 2.6-32.4 3.7-46.8 4.5-2 .1-3.8.2-5.4.3-22.2 1.2-59.3-.9-66.8-4.6l-.3 1.5c7.7 3.8 44.5 5.8 67.3 4.7 1.6-.1 3.4-.2 5.4-.3 14.4-.8 36.2-1.9 46.9-4.5 21.2-5.1 67.9-7.1 88.9.5 14.2 5.1 45.7 12.3 60.3 15.3 27.6 5.8 80.5-9.1 98.9-32.8 8.8-11.2 24-24 38.8-36.4 14.4-12.1 29.4-24.6 38.1-35.6 9.1-11.5 35.2-21.5 47.1-24.3 16-3.8 51 4.7 64.6 15.5 7.9 6.4 19.7 13.5 32.1 21.1 19.2 11.7 39 23.8 49.5 35.4 16.1 17.7 62.5 39.8 84.1 42.7 13.6 1.8 39.8-5.3 50.9-9.5 8.9-3.4 29-5.5 39.8-6.7l2.9-.3c23.1-2.5 69.9 2.7 87.9 16.4 15.5 11.8 41.3 26.3 66.2 40.4 17.5 9.9 34 19.2 45.4 26.7 11.9 7.9 31.2 11.4 50.2 11.4 18.4 0 36.6-3.4 47.3-9.4 2.5-1.4 6.1-3 9.9-4.7 7.6-3.4 16.2-7.2 20.7-11.3 2.9-2.7 7.6-5.5 12.6-8.4 6.8-4 13.8-8.2 17.4-12.7 43.7-55.6 145.5-165.2 217.7-182.2 35-8.2 102.2 8 125.6 36.6 13.2 16.2 38.8 34.7 61.4 51 14.1 10.2 27.5 19.9 36.8 28.1 24.4 21.7 84.7 31.7 111.5 32.3 17.9.4 55.1-2.5 71.2-6.2 7.7-1.8 46.8-10.6 64-10.2 13.1.3 33.1 2.2 50.7 6.3-.1-.4-.1-.9-.1-1.4z" opacity=".719"/></g><g opacity=".775"><linearGradient id="SVGID_54_" x1="955.993" x2="955.993" y1="530.018" y2="161.7" gradientTransform="matrix(1 0 0 -1 0 900)" gradientUnits="userSpaceOnUse"><stop offset="0" stop-color="#fa4468"/><stop offset=".518" stop-color="#fcd9d9"/><stop offset="1" stop-color="#fa4468"/></linearGradient><path fill="url(#SVGID_54_)" d="M1912 539.7c-18.9-4.8-39.4-6.6-51.2-6.9-15.3-.3-43.3 6.2-60 10.1l-4.7 1.1c-18.8 4.3-53.4 7.1-71.7 6.7-30.7-.6-85.6-11.9-111.5-35-8.2-7.3-18.4-15.7-29.2-24.5-24.1-19.7-51.5-42.1-67.5-61.6-26.7-32.6-91.3-48.7-127.1-40.3-72.6 17.1-151.2 117.8-203.2 184.5-4 5.2-7.9 10.1-11.5 14.7-3.9 4.9-10.8 9.5-17.4 13.9-4.6 3.1-9 6-12.1 8.9-5.2 4.7-14 9.1-21.8 12.9-3.2 1.6-6.2 3.1-8.6 4.4-23 12.9-71.5 14.8-97.2-2.2-9.4-6.2-20.9-13.5-33.2-21.3-27.2-17.3-58-36.8-77.9-51.9-20.9-15.8-65.2-20.7-89.2-18-10.5 1.1-32.4 3.5-43.4 7.7-5.5 2.1-34 12.6-50.8 10.3-22.9-3.1-65.8-26.9-83.4-46.3-12.4-13.7-33.8-28.4-52.7-41.4-10.7-7.3-20.7-14.2-28.4-20.4-15.6-12.5-48.8-21.1-65.7-17.1-13.5 3.2-37.6 14.3-47.6 26.9-9.4 11.8-23.4 25.4-37 38.5-14.1 13.6-28.7 27.7-38.4 40.1-20.7 26.6-70.6 41.1-98.2 35.4-16.1-3.4-45-11-60.6-16.7-24.1-8.7-67.9-5.9-90.2-.6-12.3 3-34.7 4.2-49.4 5l-3.2.2c-25.6 1.4-59.6-1.2-67.4-5l-.6 1.3c8 3.9 41.6 6.5 67.8 5.1l3.2-.2c14.8-.8 37.2-2.1 49.6-5.1 22.2-5.3 65.7-8.1 89.7.6 15.6 5.6 44.5 13.3 60.7 16.7 27.8 5.8 78.2-8.9 99.2-35.8 9.6-12.4 24.2-26.4 38.3-40 13.6-13.1 27.7-26.7 37.1-38.6 9.9-12.4 33.7-23.4 47-26.5 16.8-3.9 49.5 4.6 64.9 17 7.8 6.2 17.8 13.1 28.5 20.5 18.8 13 40.2 27.6 52.5 41.2 17.7 19.5 60.9 43.5 84 46.6 17 2.3 45.7-8.2 51.2-10.3 10.8-4.1 32.6-6.5 43.1-7.6 23.8-2.6 67.8 2.2 88.5 17.9 19.9 15.1 50.7 34.6 78 51.9 12.3 7.8 23.8 15.1 33.2 21.3 13.1 8.6 31.9 12.4 50.4 12.4 18.3 0 36.3-3.7 47.8-10.2 2.3-1.3 5.4-2.8 8.6-4.4 7.9-3.9 16.8-8.2 22.1-13.1 3.1-2.8 7.4-5.7 12-8.8 6.7-4.5 13.7-9.1 17.7-14.2 3.6-4.6 7.5-9.6 11.5-14.7 51.9-66.5 130.3-167 202.6-184.1 35.5-8.4 99.6 7.6 126.1 39.9 16.1 19.7 43.5 42.1 67.7 61.8 10.8 8.8 21 17.2 29.2 24.5 26.2 23.2 81.3 34.6 112.1 35.2 18.4.4 53.1-2.4 71.9-6.8l4.7-1.1c16.7-3.9 44.6-10.3 59.8-10 11.8.2 32.4 2.1 51.2 6.9.1-.5.1-1 .1-1.4z" opacity=".775"/></g><g opacity=".831"><linearGradient id="SVGID_55_" x1="956.023" x2="956.023" y1="530.018" y2="161.699" gradientTransform="matrix(1 0 0 -1 0 900)" gradientUnits="userSpaceOnUse"><stop offset="0" stop-color="#fa4468"/><stop offset=".518" stop-color="#fcd9d9"/><stop offset="1" stop-color="#fa4468"/></linearGradient><path fill="url(#SVGID_55_)" d="M1912 538.8c-17.6-5-36.9-7.3-51.8-7.6-14.6-.3-36.3 5-53.7 9.3-4.2 1-8.1 2-11.6 2.8-19.4 4.4-51.8 7.7-72.3 7.3-34.2-.7-83.9-12.9-112.1-37.9-27.9-24.7-70-62.1-95.5-93.3-27.4-33.5-85.8-53.5-127.5-43.7-67.2 15.8-127.1 99.6-175.1 166.8-12.8 17.8-24.8 34.7-36 48.9-4.4 5.6-11.4 10.8-18.1 15.8-4.2 3.1-8.1 6-11.2 8.9-6.3 5.7-16.3 11.1-24.3 15.4-2.2 1.2-4.2 2.3-6.1 3.3-24.6 13.8-69.8 16.2-97.9-2.3C986 611 938.4 576.4 908 553.4c-21.9-16.6-62.6-22.5-89.8-19.5-20.3 2.2-35 5-43.7 8.3-17.3 6.6-36.8 13.1-51.2 11.1-25.4-3.5-64.3-29.2-83.3-50.1-15.5-17.1-39.3-35.2-60.2-51.2-7.3-5.6-14.2-10.9-20.3-15.8-15.6-12.5-46.6-23.1-66.1-18.6-14.8 3.5-36.6 15.3-47.6 29.1-10 12.6-23.1 27.1-35.7 41-13.6 15-27.6 30.5-38.2 44.2-21.4 27.4-66.4 45-98.4 38.3-17.1-3.6-43.6-11.8-61-18.1-24.5-8.9-64.3-7-91-.6-14.4 3.4-37.6 4.8-53.1 5.7-27 1.4-59.4-1.2-68-5.4l-.4 1.3c8.9 4.4 40.8 6.9 68.5 5.5 15.4-.9 38.7-2.2 53.2-5.7 26.5-6.4 66.1-8.2 90.5.6 17.4 6.3 44 14.5 61.1 18.1 32.3 6.7 77.8-11 99.4-38.8 10.6-13.6 24.6-29.1 38.2-44.1 12.6-14 25.7-28.4 35.7-41.1 10.8-13.6 32.4-25.3 47-28.7 19.3-4.5 49.9 6 65.3 18.4 6.1 4.9 13 10.2 20.4 15.8 20.9 16 44.7 34.1 60.1 51.1 19.1 21.1 58.3 47 83.9 50.5 14.5 2 34.3-4.5 51.6-11.2 8.6-3.3 23.3-6.1 43.5-8.3 27-2.9 67.4 2.9 89.1 19.3 30.4 23.1 78 57.7 110.8 79.3 14.2 9.4 32.7 13.4 50.8 13.4 18.1 0 35.7-4.1 48.1-11.1 1.8-1 3.9-2.1 6-3.3 8.1-4.3 18.2-9.7 24.6-15.6 3.1-2.8 7-5.8 11.1-8.8 6.8-5.1 13.8-10.3 18.3-16 11.2-14.3 23.3-31.1 36-49 48-67.1 107.7-150.7 174.5-166.4 41.4-9.8 99.4 10.1 126.5 43.3 25.6 31.3 67.8 68.7 95.6 93.5 28.3 25.2 78.3 37.4 112.7 38.1 20.6.4 53.1-2.9 72.5-7.3 3.5-.8 7.4-1.8 11.6-2.8 17.4-4.3 38.9-9.6 53.5-9.3 14.9.3 34.2 2.6 51.8 7.6.1-.4.1-.9.1-1.3z" opacity=".831"/></g><g opacity=".887"><linearGradient id="SVGID_56_" x1="956.063" x2="956.063" y1="530.018" y2="161.7" gradientTransform="matrix(1 0 0 -1 0 900)" gradientUnits="userSpaceOnUse"><stop offset="0" stop-color="#fa4468"/><stop offset=".518" stop-color="#fcd9d9"/><stop offset="1" stop-color="#fa4468"/></linearGradient><path fill="url(#SVGID_56_)" d="M1912.1 537.9c-22.3-7-44.3-8.1-52.5-8.3-14.6-.3-33.4 4.7-50 9-5.6 1.5-11 2.9-15.8 4-22 5.1-52 8.3-72.9 7.9-41.5-.9-85.8-16.9-112.7-40.8-27.4-24.4-62.7-62-94.3-100.5-30.7-37.5-84.5-57.2-128-47-66.5 15.7-115.9 93.2-159.4 161.5-16.6 26.1-32.4 50.8-48.1 70.8-5.2 6.6-12.5 12.6-19.6 18.5-3.4 2.8-6.7 5.5-9.6 8.1-8.8 8-21.8 15.3-30.4 20.2-29.7 16.6-71.1 15.6-98.6-2.5-22.3-14.7-47.2-34.8-71.2-54.3-13.8-11.2-26.9-21.8-39.1-31-24.6-18.6-63.1-24-90.4-21-10.7 1.2-30.7 3.9-44.1 9l-3.7 1.4c-14.6 5.6-32.7 12.7-47.9 10.6-26.8-3.6-61.9-30.5-83.2-54-17.9-19.7-44.8-44-80-72.1-17.1-13.7-45.4-24.9-66.5-20-16.1 3.8-36.1 17-47.5 31.4l-8.7 11c-20.8 26.2-44.3 55.8-63.7 80.7-24 30.8-65.5 48.2-98.7 41.3-18-3.7-42-12.4-59.5-18.7l-1.9-.7c-27.8-10.1-65.6-6.9-91.7-.7-14.6 3.5-34.3 5-53.5 6.1-28.3 1.5-59-1.1-68.6-5.8l-.3 1.1c9.8 4.8 40.1 7.4 69 5.9 19.2-1.1 39-2.6 53.7-6.1 26-6.2 63.6-9.3 91.2.7l1.9.7c17.5 6.3 41.6 15 59.6 18.8 33.5 7 75.4-10.6 99.7-41.7 19.3-24.8 42.9-54.5 63.7-80.7l8.7-11c11.3-14.2 31-27.2 46.9-31 20.8-4.9 48.8 6.3 65.7 19.8 35.1 28.1 62 52.3 79.8 72 21.4 23.6 56.8 50.7 83.8 54.4 15.4 2.1 33.6-5 48.3-10.6l3.7-1.4c13.2-5.1 33.1-7.8 43.8-8.9 27.1-3 65.4 2.4 89.7 20.8 12.2 9.3 25.3 19.8 39.1 31 24.1 19.5 49 39.7 71.3 54.4 14.6 9.6 33.1 14.5 51.7 14.5 16.8 0 33.7-4 47.9-11.9 8.7-4.9 21.8-12.2 30.6-20.3 2.9-2.6 6.1-5.3 9.5-8.1 7.1-5.9 14.5-12 19.8-18.7 15.8-20.1 31.6-44.8 48.2-71 43.4-68.2 92.7-145.5 158.8-161 43.1-10.2 96.6 9.4 127 46.6 31.6 38.6 66.9 76.2 94.4 100.7 27.1 24.1 71.6 40.2 113.3 41.1 21 .4 51.1-2.8 73.2-7.9 4.9-1.1 10.2-2.5 15.8-4 16.5-4.3 35.2-9.3 49.7-9 8.2.2 30.1 1.3 52.4 8.3 0-.4.1-.8.1-1.2.1-.3.1-.3.1-.4z" opacity=".887"/></g><g opacity=".944"><linearGradient id="SVGID_57_" x1="956.065" x2="956.065" y1="530.018" y2="161.699" gradientTransform="matrix(1 0 0 -1 0 900)" gradientUnits="userSpaceOnUse"><stop offset="0" stop-color="#fa4468"/><stop offset=".518" stop-color="#fcd9d9"/><stop offset="1" stop-color="#fa4468"/></linearGradient><path fill="url(#SVGID_57_)" d="M1912.1 537.2c-16.1-5.6-34.2-8.7-53.1-9.1h-1.4c-14.5 0-30.6 4.5-46.1 8.9-6.6 1.9-12.9 3.6-18.9 5-25.2 5.8-52 8.8-73.6 8.4-42.3-.9-82.5-16.4-113.3-43.7-25.3-22.5-49-52.4-72-81.4-7.3-9.2-14.1-17.9-21.1-26.3-33.6-41-84-60.8-128.5-50.3-67.3 15.9-108.8 89.6-148.9 160.9-18.4 32.6-35.7 63.5-55.1 88.1-6.7 8.6-15.3 16.3-23.6 23.7-1.8 1.6-3.6 3.2-5.3 4.8-8.3 7.6-19.1 15.3-30.4 21.6-31.7 17.8-69.8 16.8-99.3-2.7-21.4-14.1-42.7-33.3-63.4-51.8-15.3-13.7-31.1-27.9-46.6-39.7-23.4-17.8-57.4-26.2-91-22.5-10 1.1-29.2 3.8-44.4 9.6-2.6 1-5.2 2-7.9 3.1-14.4 5.8-29.2 11.8-44.1 9.7-23.2-3.1-51.1-22.6-83.1-57.9-30.7-33.8-56.7-59.1-79.4-77.3-17.3-13.9-44-26.8-66.8-21.4-16 3.8-33.8 16.3-47.5 33.6-12.4 15.7-24.9 33.6-36.9 50.9-11.1 16-22.6 32.6-34 47.3-26.8 34.4-64.7 51.4-98.9 44.3-15-3.1-31.2-9.3-46.9-15.3-5.2-2-10.1-3.8-14.9-5.6-31.5-11.4-67.7-6.7-92.5-.7-16.6 4-36.6 5.5-54 6.5-30.1 1.6-58.5-1-69.2-6.2v1.4c10.8 5.3 39.4 7.9 69.6 6.3 17.4-1 37.4-2.6 54.1-6.6 24.7-5.9 60.7-10.6 92 .7 4.8 1.7 9.7 3.6 14.9 5.6 15.7 6 32 12.2 47.1 15.3 34.6 7.2 72.8-9.9 99.9-44.7 11.4-14.7 22.9-31.3 34.1-47.4 12-17.3 24.4-35.2 36.8-50.9 13.6-17.1 31.1-29.5 46.9-33.2 22.5-5.3 48.9 7.5 66 21.2 22.6 18.1 48.6 43.4 79.2 77.1 32.2 35.5 60.4 55 83.7 58.2 15.1 2.1 30.1-4 44.5-9.8 2.7-1.1 5.3-2.1 7.9-3.1 15.1-5.8 34.2-8.5 44.2-9.6 33.4-3.6 67.1 4.7 90.3 22.3 15.4 11.7 31.2 25.9 46.5 39.6 20.7 18.5 42 37.7 63.5 51.9 15.7 10.3 33.7 15.5 52 15.5 16.5 0 33.1-4.2 48.3-12.8 11.4-6.4 22.2-14.1 30.6-21.8 1.7-1.6 3.5-3.2 5.3-4.8 8.3-7.5 16.9-15.2 23.7-23.9 19.4-24.7 36.8-55.6 55.2-88.3 40-71.1 81.3-144.5 148.2-160.3 44.1-10.4 94.1 9.2 127.5 50 6.9 8.4 13.8 17.1 21 26.3 23 29 46.7 59 72.1 81.5 30.9 27.5 71.4 43.1 113.9 44 21.6.4 48.5-2.6 73.8-8.4 6-1.4 12.3-3.2 18.9-5 16-4.5 32.4-9.2 47.2-8.9 18.9.4 36.9 3.6 53 9.1 0-.2 0-.3.1-.5.1.1.1-.2.1-.5z" opacity=".944"/></g><linearGradient id="SVGID_58_" x1="956.125" x2="956.125" y1="530.018" y2="161.699" gradientTransform="matrix(1 0 0 -1 0 900)" gradientUnits="userSpaceOnUse"><stop offset="0" stop-color="#fa4468"/><stop offset=".518" stop-color="#fcd9d9"/><stop offset="1" stop-color="#fa4468"/></linearGradient><path fill="url(#SVGID_58_)" d="M1912.2 536.4c-16.4-6.2-34.2-9.5-53.8-9.9-15.3-.3-30.7 4.4-45.7 8.9-7 2.1-14.2 4.3-21.2 5.9-28.7 6.6-52.2 9.4-74.2 9-42.3-.9-79.6-16.1-113.9-46.6-22.8-20.3-41.8-46.8-60.1-72.4-10.2-14.2-20.7-28.9-31.7-42.5-37.2-45.4-83-64.5-128.9-53.7-69 16.2-105.7 90.6-141.2 162.6-18.1 36.6-36.7 74.4-59.2 103-9.2 11.8-18.9 22-28.7 30.5-9.7 9.4-19.9 17.2-30.4 23-33.8 19-68.4 18-100-2.9-21.9-14.4-41.5-33.9-60.4-52.8-15.6-15.5-31.7-31.6-49.1-44.8-25.6-19.4-57.3-27.8-91.6-24-16.6 1.8-31.7 5.3-44.8 10.3-3.7 1.4-7.3 3-10.8 4.4-13.7 5.8-26.6 11.3-41.5 9.3-30.8-4.2-59-35.2-81.6-60.2l-1.4-1.6c-6.4-7.1-12.9-14.4-19.1-21.6-18.7-21.4-38-43.5-59.7-60.9-24.7-19.8-47.4-27.5-67.2-22.8-15.7 3.7-31.2 15.4-47.4 35.8-13 16.4-24.4 35.2-35.4 53.3-10.6 17.5-21.6 35.5-34 51.5-20.8 26.7-54.8 56.5-99.2 47.2-14.4-3-28.5-8.8-42.1-14.3-6.6-2.7-13.3-5.5-20.1-7.9-28-10.1-57.7-10.4-93.2-.8-17 3.6-34.8 5.9-54.4 7-31.3 1.7-58.1-.9-69.7-6.6l-.5 1.3c11.8 5.8 38.7 8.4 70.2 6.7 19.7-1.1 37.5-3.4 54.6-7 35.4-9.5 64.9-9.3 92.7.8 6.7 2.4 13.5 5.2 20.1 7.9 13.7 5.6 27.8 11.4 42.3 14.4 44.8 9.3 79.2-20.8 100.2-47.7 12.5-16 23.4-34.1 34-51.6 11-18.1 22.3-36.8 35.3-53.2 16-20.2 31.3-31.8 46.8-35.4 19.6-4.6 41.9 3 66.4 22.6 21.6 17.3 40.9 39.4 59.5 60.7 6.2 7.1 12.7 14.5 19.1 21.6l1.4 1.6c22.8 25.1 51.1 56.3 82.3 60.5 15.1 2 28.1-3.5 41.9-9.3 3.5-1.5 7.2-3 10.8-4.4 13-5 28-8.4 44.5-10.2 34.1-3.7 65.5 4.5 91 23.8 17.3 13.1 33.4 29.2 49 44.7 19 18.9 38.6 38.4 60.6 52.9 16.8 11 34.3 16.6 52.2 16.6 16.2 0 32.6-4.5 48.8-13.6 10.5-5.9 20.8-13.7 30.6-23.2 9.8-8.5 19.5-18.8 28.8-30.6 22.5-28.7 41.3-66.6 59.4-103.2 35.4-71.7 72-145.8 140.5-161.9 45.6-10.7 91 8.2 127.9 53.3 11 13.5 21.5 28.2 31.7 42.4 18.4 25.7 37.3 52.3 60.2 72.6 34.5 30.7 72 46 114.5 46.9 22 .5 45.7-2.4 74.4-9 7-1.6 14.3-3.8 21.3-6 14.9-4.5 30.2-9.2 45.4-8.9 19.5.4 37.3 3.7 53.6 9.9.1-.5.1-1 .2-1.4z"/></g></g></g></svg>