<svg width="40" height="40" viewBox="0 0 40 40" fill="none" xmlns="http://www.w3.org/2000/svg">
<path d="M27.7909 30.0605C20.0321 30.0605 13.7423 23.7707 13.7423 16.0119C13.7423 11.1633 16.1985 6.88842 19.9345 4.36365C19.5016 4.33217 19.0643 4.31592 18.6233 4.31592C8.76938 4.31592 0.78125 12.304 0.78125 22.158C0.78125 32.0119 8.76938 40 18.6233 40C26.5427 40 33.2569 34.8403 35.5879 27.6993C33.357 29.1905 30.6757 30.0605 27.7909 30.0605Z" fill="url(#paint0_linear)"/>
<path d="M34.3332 7.3443L38.7083 0H30.7032V2.34375H34.584L30.2089 9.68805H39.2189V7.3443H34.3332Z" fill="url(#paint1_linear)"/>
<path d="M27.6362 8.92648H20.3978V11.2702H23.5119L20.1357 16.9377H27.5593V14.5939H24.26L27.6362 8.92648Z" fill="url(#paint2_linear)"/>
<path d="M31.9976 22.2469L34.1345 18.6598H28.0865V21.0036H30.0102L27.8733 24.5907H34.2193V22.2469H31.9976Z" fill="url(#paint3_linear)"/>
<defs>
<linearGradient id="paint0_linear" x1="20.0001" y1="0" x2="20.0001" y2="40" gradientUnits="userSpaceOnUse">
<stop stop-color="#6574CE"/>
<stop offset="1" stop-color="#55B588"/>
</linearGradient>
<linearGradient id="paint1_linear" x1="20.0001" y1="0" x2="20.0001" y2="40" gradientUnits="userSpaceOnUse">
<stop stop-color="#6574CE"/>
<stop offset="1" stop-color="#55B588"/>
</linearGradient>
<linearGradient id="paint2_linear" x1="20.0001" y1="0" x2="20.0001" y2="40" gradientUnits="userSpaceOnUse">
<stop stop-color="#6574CE"/>
<stop offset="1" stop-color="#55B588"/>
</linearGradient>
<linearGradient id="paint3_linear" x1="20.0001" y1="0" x2="20.0001" y2="40" gradientUnits="userSpaceOnUse">
<stop stop-color="#6574CE"/>
<stop offset="1" stop-color="#55B588"/>
</linearGradient>
</defs>
</svg>
