<svg width="40" height="41" viewBox="0 0 40 41" fill="none" xmlns="http://www.w3.org/2000/svg">
<path d="M35.8277 4.07015C33.1861 1.5201 29.6674 0.102554 25.9199 0.0784454C22.7747 0.0579987 19.7953 1.01656 17.2944 2.84944C14.8688 4.6274 13.0656 7.15914 12.2169 9.97836C11.6166 11.9721 11.8632 14.1455 12.9291 16.2635C15.1783 20.7319 15.8137 24.841 15.1218 30.4459C14.7486 33.4711 15.4645 35.9632 17.1924 37.6533C18.7839 39.21 20.9446 40.0779 23.1882 40.0779C23.364 40.0779 23.541 40.0727 23.7177 40.0617C25.8067 39.9345 27.7656 39.0537 29.2341 37.5818C30.7102 36.1021 31.5586 34.1587 31.6227 32.11C31.6434 31.4435 31.5818 30.7779 31.4396 30.1316C31.0465 28.3475 31.8931 26.4466 33.5462 25.4017C37.6368 22.8159 40.0492 18.4439 39.9992 13.7067C39.9607 10.0522 38.4794 6.62997 35.8277 4.07015ZM33.1007 15.0226C32.4534 15.0226 31.9288 14.498 31.9288 13.8507C31.9288 10.6092 29.1904 7.97183 25.8244 7.97183C22.9276 7.97183 20.496 9.92495 19.874 12.5351C20.6235 12.5632 21.3654 12.7503 22.0322 13.0912C23.7852 13.9865 24.8786 15.8799 24.7538 17.8028C24.6308 19.6955 23.3295 21.4286 21.5162 22.1155C21.3795 22.1674 21.2391 22.1921 21.1011 22.1921C20.6281 22.1921 20.1829 21.9037 20.0053 21.435C19.7758 20.8298 20.0806 20.1535 20.6858 19.9241C21.6556 19.5566 22.3505 18.6429 22.4149 17.6508C22.4799 16.648 21.898 15.6543 20.9663 15.1783C20.3413 14.859 19.5609 14.7882 18.8789 14.9887C18.5245 15.0928 18.1419 15.0241 17.8461 14.8029C17.5504 14.5816 17.3762 14.2337 17.3762 13.8645V13.8507C17.3762 9.31674 21.1661 5.62807 25.8244 5.62807C30.4829 5.62807 34.2725 9.31674 34.2725 13.8507C34.2725 14.498 33.7479 15.0226 33.1007 15.0226Z" fill="url(#paint0_linear)"/>
<path d="M8.09384 33.1272C7.78774 33.1272 7.48196 33.0082 7.25216 32.7708C6.80172 32.306 6.81332 31.5641 7.2781 31.1137C9.08474 29.3632 10.0799 27.0338 10.0799 24.5554C10.0799 22.0768 9.08474 19.7477 7.2781 17.9969C6.81332 17.5468 6.80172 16.8049 7.25216 16.3398C7.7026 15.875 8.44448 15.8634 8.90927 16.3139C11.1755 18.5099 12.4237 21.4369 12.4237 24.5554C12.4237 27.674 11.1755 30.6007 8.90927 32.797C8.68161 33.0174 8.38741 33.1272 8.09384 33.1272Z" fill="url(#paint1_linear)"/>
<path d="M4.66899 29.8085C4.3629 29.8085 4.05711 29.6895 3.82732 29.4521C3.37688 28.9873 3.38847 28.2454 3.85326 27.7949C4.74834 26.9276 5.2415 25.7771 5.2415 24.5555C5.2415 23.3336 4.74834 22.1831 3.85326 21.3158C3.38847 20.8653 3.37688 20.1234 3.82732 19.6587C4.27776 19.1939 5.01933 19.1823 5.48442 19.6327C6.8391 20.9453 7.58525 22.6936 7.58525 24.5555C7.58525 26.4171 6.8391 28.1654 5.48442 29.4783C5.25676 29.6989 4.96257 29.8085 4.66899 29.8085Z" fill="url(#paint2_linear)"/>
<path d="M1.35193 25.9016C0.606385 25.9016 0 25.2976 0 24.5554C0 23.8129 0.606385 23.209 1.35193 23.209C2.09747 23.209 2.70386 23.8129 2.70386 24.5554C2.70386 25.2976 2.09747 25.9016 1.35193 25.9016Z" fill="url(#paint3_linear)"/>
<defs>
<linearGradient id="paint0_linear" x1="20" y1="0.078125" x2="20" y2="40.0779" gradientUnits="userSpaceOnUse">
<stop stop-color="#6574CD"/>
<stop offset="1" stop-color="#55B488"/>
</linearGradient>
<linearGradient id="paint1_linear" x1="20" y1="0.078125" x2="20" y2="40.0779" gradientUnits="userSpaceOnUse">
<stop stop-color="#6574CD"/>
<stop offset="1" stop-color="#55B488"/>
</linearGradient>
<linearGradient id="paint2_linear" x1="20" y1="0.078125" x2="20" y2="40.0779" gradientUnits="userSpaceOnUse">
<stop stop-color="#6574CD"/>
<stop offset="1" stop-color="#55B488"/>
</linearGradient>
<linearGradient id="paint3_linear" x1="20" y1="0.078125" x2="20" y2="40.0779" gradientUnits="userSpaceOnUse">
<stop stop-color="#6574CD"/>
<stop offset="1" stop-color="#55B488"/>
</linearGradient>
</defs>
</svg>
