<svg width="40" height="40" viewBox="0 0 40 40" fill="none" xmlns="http://www.w3.org/2000/svg">
<g clip-path="url(#clip0)">
<path d="M37.7467 19.9723C37.7467 17.2468 36.3364 14.7527 34.0726 13.3365C34.5735 11.8338 34.4995 10.14 33.73 8.61805C32.9889 7.15219 31.7213 6.06266 30.1607 5.55016C30.0712 5.52078 29.9814 5.49406 29.8912 5.46891C29.9021 5.33313 29.9092 5.19664 29.9093 5.05914C29.9101 3.72859 29.3925 2.47703 28.4499 1.5257C27.4652 0.531953 26.106 0 24.707 0C22.7546 0 21.1718 1.58273 21.1718 3.53516V36.4648C21.1718 38.4173 22.7546 40 24.707 40C26.106 40 27.4652 39.468 28.45 38.4742C29.3925 37.523 29.9101 36.2714 29.9093 34.9408C29.9093 34.8033 29.9022 34.6668 29.8913 34.531C29.9814 34.5059 30.0713 34.4791 30.1607 34.4498C31.7213 33.9373 32.9889 32.8477 33.73 31.3819C34.5072 29.8446 34.5742 28.1322 34.0566 26.6183C36.3314 25.2052 37.7467 22.7124 37.7467 19.9723ZM31.6264 23.6248C31.6264 26.417 29.3547 28.6887 26.5625 28.6887V26.3449C28.0624 26.3449 29.2826 25.1246 29.2826 23.6248C29.2826 22.1249 28.0623 20.9046 26.5625 20.9046V18.5609C28.0624 18.5609 29.2826 17.3405 29.2826 15.8407C29.2826 14.3409 28.0623 13.1205 26.5625 13.1205V10.7768C29.3547 10.7768 31.6264 13.0485 31.6264 15.8407C31.6264 17.4036 30.9143 18.8031 29.7979 19.7327C30.9143 20.6624 31.6264 22.0619 31.6264 23.6248Z" fill="url(#paint0_linear)"/>
<path d="M15.2931 0C13.894 0 12.5349 0.531953 11.5501 1.52578C10.6076 2.47703 10.09 3.72859 10.0908 5.05922C10.0908 5.19672 10.0979 5.3332 10.1088 5.46898C10.0187 5.49414 9.92881 5.52086 9.83943 5.55023C8.27881 6.06266 7.01123 7.15227 6.27006 8.61812C5.50061 10.14 5.42654 11.8338 5.92748 13.3366C3.66373 14.7528 2.25342 17.2469 2.25342 19.9724C2.25342 22.7125 3.66873 25.2052 5.9435 26.6184C5.42584 28.1323 5.49287 29.8447 6.27006 31.382C7.01115 32.8478 8.27881 33.9373 9.83943 34.4498C9.92889 34.4792 10.0187 34.5059 10.1089 34.5311C10.0979 34.6669 10.0909 34.8034 10.0908 34.9409C10.09 36.2714 10.6076 37.523 11.5502 38.4743C12.5349 39.468 13.894 40 15.2931 40C17.2455 40 18.8283 38.4173 18.8283 36.4648V3.53516C18.8283 1.58273 17.2455 0 15.2931 0ZM13.4376 13.1205C11.9377 13.1205 10.7175 14.3408 10.7175 15.8406C10.7175 17.3405 11.9378 18.5608 13.4376 18.5608V20.9045C11.9377 20.9045 10.7175 22.1248 10.7175 23.6247C10.7175 25.1245 11.9378 26.3448 13.4376 26.3448V28.6886C10.6454 28.6886 8.37373 26.4169 8.37373 23.6247C8.37373 22.0618 9.08576 20.6623 10.2022 19.7327C9.08576 18.803 8.37373 17.4035 8.37373 15.8406C8.37373 13.0484 10.6454 10.7767 13.4376 10.7767V13.1205Z" fill="url(#paint1_linear)"/>
</g>
<defs>
<linearGradient id="paint0_linear" x1="20" y1="0" x2="20" y2="40" gradientUnits="userSpaceOnUse">
<stop stop-color="#6674CF"/>
<stop offset="1" stop-color="#55B886"/>
</linearGradient>
<linearGradient id="paint1_linear" x1="20" y1="0" x2="20" y2="40" gradientUnits="userSpaceOnUse">
<stop stop-color="#6674CF"/>
<stop offset="1" stop-color="#55B886"/>
</linearGradient>
<clipPath id="clip0">
<rect width="40" height="40" fill="white"/>
</clipPath>
</defs>
</svg>
